<?xml version="1.0" encoding="utf-8"?>
<!-- Generator: Adobe Illustrator 18.1.1, SVG Export Plug-In . SVG Version: 6.00 Build 0)  -->
<svg version="1.1" id="Layer_1" xmlns="http://www.w3.org/2000/svg" xmlns:xlink="http://www.w3.org/1999/xlink" x="0px" y="0px"
	 width="219px" height="49px" viewBox="0 0 219 49" enable-background="new 0 0 219 49" xml:space="preserve">
<g>
	<path fill="#00A9E0" d="M23.4,25c-1.9-1.9-3.9-3.2-6.1-3.2c-5.9,0-9.4,4.6-9.4,9.6c0,5,3.5,9.6,9.4,9.6c2.5,0,4.7-1.1,6.2-3
		l5.3,5.7c-3.3,3.3-8.7,4.5-11.5,4.5C7.7,48.1,0,41.4,0,31.4c0-10,7.7-16.8,17.4-16.8c4.1,0,8.5,1.5,11.6,4.9L23.4,25z"/>
	<path fill="#00A9E0" d="M47.2,14.6c-5.1,0-10,1.5-13.6,5.1l4.2,4.2c2.1-2,5.2-3.3,8.5-3.3c4.3,0,7.3,2.1,7.3,6v0.9h-2
		c-8,0-20.1,0.7-20.1,11.1c0,6.3,5.7,9.6,11.6,9.6c4.3,0,8-1.6,10.2-5.2h0.2v4.4h7.2V29C60.8,24.4,60.8,14.6,47.2,14.6z M53.2,34.8
		c0,4.5-2.6,7.3-8.1,7.3c-2.6,0-5.6-1.3-5.6-4.2c0-4.6,7.6-4.9,12-4.9h1.7V34.8z"/>
	<path fill="#00A9E0" d="M66.4,15.4h8v5.1h0.1c1.7-3.7,5.3-5.9,9.4-5.9c1,0,1.9,0.2,2.9,0.5v7.7c-1.3-0.3-2.6-0.6-3.9-0.6
		c-7.5,0-8.6,6.3-8.6,8.1v17.1h-8V15.4z"/>
	<path fill="#00A9E0" d="M90.8,22.2v-6.8h6.6V6.1h8v9.2h8.8v6.8h-8.8v14c0,3.2,0.9,5.2,4.5,5.2c1.4,0,3.3-0.3,4.3-1v6.7
		c-1.7,0.8-4.5,1.1-6.3,1.1c-8.5,0-10.4-3.8-10.4-11.3V22.2H90.8z"/>
	<path fill="#00A9E0" d="M149.6,32c0-11.1-6.1-17.4-15-17.4c-9.6,0-17.4,6.7-17.4,16.8c0,10,7.7,16.8,17.4,16.8
		c5.1,0,9.8-1.8,13.5-6.4l-5.7-4.3c-2,2.5-4.6,4.3-8.6,4.3c-4.5,0-8.1-2.9-8.6-7.6h24.4V32z M125.2,28.2c0.6-4.6,3.5-7.6,8.3-7.6
		c5,0,8.1,2.9,8.1,7.6H125.2z"/>
	<path fill="#00A9E0" d="M154.1,15.4h8v5.1h0.1c1.7-3.7,5.3-5.9,9.5-5.9c1,0,1.9,0.2,2.9,0.5v7.7c-1.3-0.3-2.6-0.6-3.9-0.6
		c-7.5,0-8.6,6.3-8.6,8.1v17.1h-8V15.4z"/>
	<polygon fill="#00A9E0" points="181.9,1.9 190,1.9 184.9,17.8 177.7,17.8 	"/>
	<path fill="#00A9E0" d="M205.4,24.2c-1.5-2.1-3.5-3.3-6.3-3.3c-2.1,0-4.7,1-4.7,3.4c0,5.7,17.2,1.1,17.2,13.5
		c0,7.6-7.3,10.3-13.8,10.3c-4.9,0-9.2-1.3-12.4-4.9l5.3-5c2.1,2.3,4.2,3.9,7.6,3.9c2.3,0,5.3-1.1,5.3-3.7c0-6.6-17.2-1.4-17.2-13.6
		c0-7.1,6.4-10.3,12.8-10.3c4.3,0,8.8,1.3,11.4,4.9L205.4,24.2z"/>
	<g>
		<path fill="#00A9E0" d="M215.7,15.8c-1.4,0-2.6,1.1-2.6,2.6c0,1.4,1.1,2.6,2.6,2.6c1.4,0,2.6-1.1,2.6-2.6
			C218.3,16.9,217.1,15.8,215.7,15.8z M215.7,20.5c-1.2,0-2.1-0.9-2.1-2.1c0-1.2,0.9-2.1,2.1-2.1c1.1,0,2.1,0.9,2.1,2.1
			C217.8,19.6,216.9,20.5,215.7,20.5z"/>
		<path fill="#00A9E0" d="M216.2,18.5c0.4,0,0.7-0.3,0.7-0.8c0-0.6-0.3-0.9-1-0.9h-1.2v2.9h0.6v-1.2h0.4l0.7,1.2h0.6L216.2,18.5z
			 M215.3,18.2v-0.8h0.4c0.3,0,0.7,0,0.7,0.4c0,0.4-0.4,0.4-0.7,0.4H215.3z"/>
	</g>
</g>
</svg>
