<svg xmlns="http://www.w3.org/2000/svg" class="logo_gap logo_gap_text-only" viewBox="0 0 110 83.8"><path class="logo_gap--text" d="M97.8,1.5H83.1v2.4H87v74.4c-0.1,1.6-0.7,2.2-3.1,2.3h-0.8v2.1h16.6v-2.1H98c-2.8-0.1-3.8-1.2-3.9-3.7V48.1h4.8c7,0,11.1-3.4,11.1-7.9V10.1C110,5.6,106.5,1.5,97.8,1.5 M102.9,24.5v16c0,2.5-1.6,4.9-4.7,4.8h-4.1V3.9h3.7c2.8,0,5.1,2.3,5.1,5.1v0.1V24.5L102.9,24.5z M11.3,48.1h4.3v29.1c0.1,2.5-1.9,4.6-4.4,4.7h-0.1c-2.5,0-4.3-2.1-4.3-4.7V8.9c0-1.9,0.4-6.3,3.6-6.2c2.6,0,4.5,2.4,5.3,6.1c0.9,3.8,1.5,12.7,1.5,16.6c0,1.3,0.5,1.8,1.9,1.8h3.1V1.5h-2.5v1.2c0,1.3-0.8,1.2-1.5,0.8c-2.4-1.6-5.1-2.7-7.7-2.7C6.2,0.8,0,2.7,0,10.9v60.3c0.1,10.5,5.6,12.4,11.1,12.5c4.2,0,6.2-2.2,7.8-3c1.1-0.5,1.9,0.8,1.9,2.4H23v-35h3.6v-2.6H11.3V48.1z M47.2,45.5l3.9-32.6l4.4,32.7L47.2,45.5L47.2,45.5z M66.4,76.9L66.4,76.9L57,1.5l0,0l0,0h-7.4l-9.4,75.6c-0.5,2.4-0.6,3-4.2,3.2v0.5v1.8h11.6v-2.1c-1.3,0.1-2.6-0.3-3.6-1.1c-0.4-0.5-0.6-1-0.6-1.6L46.9,48h9l3.7,29.8c0,1.9-0.2,2.6-2.5,2.7H56v2.1h14.8v-2.1h-0.4C67.5,80.5,66.6,78.7,66.4,76.9"></path></svg>
