<?xml version="1.0" encoding="UTF-8" standalone="no"?>
<!-- Created with Inkscape (http://www.inkscape.org/) -->

<svg
   xmlns:dc="http://purl.org/dc/elements/1.1/"
   xmlns:cc="http://creativecommons.org/ns#"
   xmlns:rdf="http://www.w3.org/1999/02/22-rdf-syntax-ns#"
   xmlns:svg="http://www.w3.org/2000/svg"
   xmlns="http://www.w3.org/2000/svg"
   xmlns:sodipodi="http://sodipodi.sourceforge.net/DTD/sodipodi-0.dtd"
   xmlns:inkscape="http://www.inkscape.org/namespaces/inkscape"
   width="603"
   height="398"
   viewBox="0 0 603.00001 398.00001"
   id="svg4304"
   version="1.1"
   inkscape:version="0.91 r13725"
   sodipodi:docname="michael kors.svg">
  <defs
     id="defs4306">
    <clipPath
       id="clipPath4326"
       clipPathUnits="userSpaceOnUse">
      <path
         inkscape:connector-curvature="0"
         id="path4328"
         d="M 0,800 600,800 600,0 0,0 0,800 Z" />
    </clipPath>
  </defs>
  <sodipodi:namedview
     id="base"
     pagecolor="#ffffff"
     bordercolor="#666666"
     borderopacity="1.0"
     inkscape:pageopacity="0.0"
     inkscape:pageshadow="2"
     inkscape:zoom="0.35"
     inkscape:cx="22.142857"
     inkscape:cy="520"
     inkscape:document-units="px"
     inkscape:current-layer="layer1"
     showgrid="false"
     units="px"
     inkscape:window-width="1280"
     inkscape:window-height="744"
     inkscape:window-x="-4"
     inkscape:window-y="-4"
     inkscape:window-maximized="1" />
  <metadata
     id="metadata4309">
    <rdf:RDF>
      <cc:Work
         rdf:about="">
        <dc:format>image/svg+xml</dc:format>
        <dc:type
           rdf:resource="http://purl.org/dc/dcmitype/StillImage" />
        <dc:title></dc:title>
      </cc:Work>
    </rdf:RDF>
  </metadata>
  <g
     inkscape:label="Layer 1"
     inkscape:groupmode="layer"
     id="layer1"
     transform="translate(0,-654.36216)">
    <g
       transform="matrix(1.25,0,0,-1.25,-95.37125,1406.7115)"
       inkscape:label="michael_kors"
       id="g4320">
      <g
         id="g4322">
        <g
           clip-path="url(#clipPath4326)"
           id="g4324">
          <path
             inkscape:connector-curvature="0"
             id="path4330"
             style="fill:#231f20;fill-opacity:1;fill-rule:evenodd;stroke:none"
             d="m 132.777,332.499 6.318,0 0,-46.66 -6.318,0 0,46.66 z m 127.759,-6.954 6.963,-20.595 -14.413,0 7.31,20.595 0.14,0 z m -3.195,6.954 -17.681,-46.66 6.532,0 4.826,13.492 18.75,0 4.687,-13.492 6.751,0 -16.765,46.66 -7.1,0 z m -54.116,0 0,-19.314 24.358,0 0,19.314 6.177,0 0,-46.66 -6.177,0 0,21.807 -24.358,0 0,-21.807 -6.39,0 0,46.66 6.39,0 z m -44.526,-9.017 c -2.908,-3.266 -4.332,-7.882 -4.332,-13.847 0,-12.994 5.043,-19.531 15.34,-19.531 7.241,0 11.716,4.258 13.421,12.92 l 6.109,0 c -1.138,-7.453 -4.476,-12.782 -9.945,-15.831 -3.055,-1.779 -6.605,-2.63 -10.507,-2.63 -5.828,0 -10.656,1.92 -14.418,5.679 -4.404,4.407 -6.533,10.802 -6.533,19.181 0,7.24 1.914,13.14 5.822,17.538 3.908,4.621 9.235,6.819 15.839,6.819 5.676,0 10.295,-1.634 13.845,-4.828 3.052,-2.696 4.828,-6.183 5.467,-10.438 l -6.175,0 c -1.278,6.533 -5.684,9.727 -13.137,9.727 -4.404,0 -7.959,-1.561 -10.796,-4.759 m -42.615,1.565 -13.137,-39.208 -6.249,0 -12.994,39.208 -0.284,0 0.284,-39.208 -6.178,0 0,46.66 9.017,0 13.206,-39.414 0.287,0 13.209,39.414 9.019,0 0,-46.66 -6.18,0 0.146,39.208 -0.146,0 z m 422.705,3.194 c -7.24,0 -10.793,-2.696 -10.793,-8.166 0,-3.056 1.914,-4.976 5.61,-5.825 l 13.355,-3.051 c 6.957,-1.776 10.507,-5.899 10.507,-12.427 0,-5.114 -1.986,-8.739 -6.106,-11.223 -3.198,-2.057 -7.246,-2.986 -12.077,-2.986 -6.034,0 -10.797,1.562 -14.129,4.476 -3.2,2.839 -4.687,6.751 -4.687,11.857 l 5.893,0 c 0,-3.903 1.422,-6.746 4.118,-8.66 2.272,-1.498 5.115,-2.203 8.662,-2.203 8.171,0 12.22,2.556 12.22,7.882 0,2.416 -0.714,4.189 -2.06,5.258 -1.281,1.066 -3.908,2.127 -7.814,2.908 l -9.587,2.275 c -6.604,1.562 -9.945,5.187 -9.945,11.009 0,3.903 1.35,7.243 3.837,9.802 2.91,3.123 6.959,4.613 12.289,4.613 11.504,0 17.538,-4.974 18.251,-14.914 l -5.968,0 c -0.072,3.196 -1.493,5.685 -3.977,7.39 -2.06,1.272 -4.614,1.985 -7.599,1.985 m -56.46,-1.068 15.625,0 c 5.679,0 8.524,-2.622 8.524,-7.808 0,-5.465 -3.198,-8.166 -9.444,-8.166 l -14.705,0 0,15.974 z m -6.249,5.326 0,-46.66 6.249,0 0,20.025 15.275,0 c 5.536,0 8.373,-2.691 8.373,-8.303 0,-5.683 0.355,-9.585 0.997,-11.722 l 7.813,0 0,1.068 c -1.561,0.854 -2.278,2.415 -2.278,4.614 l -0.492,8.455 c -0.078,2.911 -0.711,5.186 -1.849,6.463 -0.639,0.855 -1.914,1.706 -3.69,2.416 4.257,2.482 6.389,6.244 6.389,11.08 0,8.45 -5.111,12.564 -15.263,12.564 l -21.524,0 z m -31.03,-4.258 c 4.971,0 8.871,-1.92 11.859,-5.538 2.908,-3.478 4.329,-7.957 4.329,-13.49 0,-5.618 -1.421,-10.234 -4.329,-13.642 -2.988,-3.693 -6.888,-5.467 -11.859,-5.467 -5.117,0 -9.023,1.774 -11.865,5.467 -2.909,3.408 -4.33,8.024 -4.33,13.642 0,5.533 1.421,10.012 4.33,13.49 2.985,3.618 6.89,5.538 11.865,5.538 m -17.9,-2.979 c -3.197,-4.476 -4.834,-9.8 -4.834,-16.049 0,-6.326 1.637,-11.652 4.834,-16.128 4.043,-5.68 9.94,-8.522 17.9,-8.522 7.951,0 13.842,2.842 17.753,8.522 3.338,4.476 4.966,9.802 4.966,16.128 0,6.249 -1.628,11.573 -4.966,16.049 -3.911,5.676 -9.802,8.518 -17.753,8.518 -7.96,0 -13.857,-2.842 -17.9,-8.518 m -36.219,7.237 0,-22.581 22.509,22.581 8.737,0 -19.387,-18.956 19.888,-27.704 -8.034,0 -16.467,23.443 -7.246,-7.109 0,-16.334 -6.393,0 0,46.66 6.393,0 z m -54.331,0 0,-41.045 23.721,0 0,-5.615 -29.827,0 0,46.66 6.106,0 z m -14.912,-5.538 -27.7,0 0,-14.344 25.5,0 0,-5.538 -25.5,0 0,-15.625 28.053,0 0,-5.615 -34.3,0 0,46.66 33.947,0 0,-5.538 z" />
          <g
             transform="translate(317.4971,388.1279)"
             id="g4332">
            <path
               inkscape:connector-curvature="0"
               id="path4334"
               style="fill:#231f20;fill-opacity:1;fill-rule:nonzero;stroke:none"
               d="m 0,0 c -34.721,0 -65.139,18.722 -81.729,46.588 l 18.854,0 0.401,48.335 20.948,-48.335 20.538,0 20.985,48.335 0,-48.335 22.513,0 0.807,33.029 7.249,6.041 31.822,-39.07 19.335,0 C 65.133,18.722 34.719,0 0,0 m -83.823,139.836 0,-89.559 c -7.16,13.358 -11.235,28.598 -11.235,44.781 0,16.181 4.075,31.429 11.235,44.778 M 0,190.111 c 34.83,0 65.325,-18.841 81.878,-46.854 l -23.114,0 -35.045,-32.627 0,32.627 -29.802,0 -24.569,-60.015 -23.361,60.015 -27.873,0 C -65.328,171.27 -34.83,190.111 0,190.111 M 95.052,95.058 c 0,-15.096 -3.553,-29.373 -9.839,-42.066 l -36.925,47.57 36.561,37.263 C 91.358,124.957 95.052,110.437 95.052,95.058 M 0,212.668 c -64.958,0 -117.616,-52.661 -117.616,-117.61 0,-64.955 52.658,-117.616 117.616,-117.616 64.949,0 117.61,52.661 117.61,117.616 0,64.949 -52.661,117.61 -117.61,117.61" />
          </g>
        </g>
      </g>
    </g>
  </g>
</svg>
