<?xml version="1.0" encoding="utf-8"?>
<!-- Generator: Adobe Illustrator 18.1.1, SVG Export Plug-In . SVG Version: 6.00 Build 0)  -->
<svg version="1.1" id="Layer_1" xmlns="http://www.w3.org/2000/svg" xmlns:xlink="http://www.w3.org/1999/xlink" x="0px" y="0px"
	 viewBox="0 0 140 81" enable-background="new 0 0 140 81" xml:space="preserve">
<g>
	<g>
		<path fill="#D12430" d="M53.5,8.4h-2.7V6.6h1.7c0.2,0,0.3-0.2,0.3-0.3V5.7c0-0.2-0.2-0.3-0.3-0.3h-1.7V3.9h2.5
			c0.2,0,0.3-0.2,0.3-0.3V2.9c0-0.2-0.2-0.3-0.3-0.3h-3.5c-0.2,0-0.3,0.2-0.3,0.3v6.4c0,0.2,0.2,0.3,0.3,0.3h3.7
			c0.2,0,0.3-0.2,0.3-0.3V8.8C53.8,8.6,53.7,8.4,53.5,8.4"/>
		<path fill="#D12430" d="M57.8,5.4c-0.7-0.3-1.2-0.5-1.2-1c0-0.5,0.4-0.8,0.8-0.8c0.5,0,0.8,0.3,1,1.1c0,0.1,0.1,0.2,0.2,0.2
			c0.1,0,0.2,0,0.3,0l0.6-0.2c0.2-0.1,0.3-0.2,0.2-0.4c-0.3-1.2-1.2-1.9-2.2-1.9c-1.3,0-2.2,0.9-2.2,2.1c0,1.4,1,1.8,1.9,2.1
			c0.8,0.3,1.2,0.5,1.2,1.1c0,0.5-0.4,0.8-0.9,0.8c-0.7,0-1.1-0.6-1.2-1.1c0-0.1-0.1-0.2-0.1-0.2c-0.1,0-0.2-0.1-0.3,0l-0.7,0.2
			c-0.2,0-0.3,0.2-0.3,0.4c0.3,1.3,1.2,2.1,2.5,2.1c1.3,0,2.3-0.9,2.3-2.2C59.8,6.2,58.7,5.8,57.8,5.4"/>
		<path fill="#D12430" d="M65.2,2.6h-4.1c-0.2,0-0.3,0.2-0.3,0.3v0.6c0,0.2,0.2,0.3,0.3,0.3h1.4v5.5c0,0.2,0.2,0.3,0.3,0.3h0.7
			c0.2,0,0.3-0.2,0.3-0.3V3.9h1.4c0.2,0,0.3-0.2,0.3-0.3V2.9C65.5,2.8,65.4,2.6,65.2,2.6"/>
		<path fill="#D12430" d="M67.3,8.1h-0.8c-0.2,0-0.3,0.2-0.3,0.3v1c0,0.2,0.2,0.3,0.3,0.3h0.8c0.2,0,0.3-0.2,0.3-0.3v-1
			C67.6,8.2,67.5,8.1,67.3,8.1"/>
		<path fill="#D12430" d="M76.8,8.4h-0.6V2.9c0-0.2-0.2-0.3-0.3-0.3h-0.5c0,0-0.1,0-0.1,0l-1.2,0.4c-0.1,0-0.2,0.2-0.2,0.3v0.4
			c0,0.1,0,0.2,0.1,0.3c0.1,0.1,0.1,0.1,0.2,0.1c0,0,0,0,0,0l0.7-0.1v4.4h-0.6c-0.2,0-0.3,0.2-0.3,0.3v0.6c0,0.2,0.2,0.3,0.3,0.3
			h2.5c0.2,0,0.3-0.2,0.3-0.3V8.8C77.1,8.6,77,8.4,76.8,8.4"/>
		<path fill="#D12430" d="M81,6.6c0.8,0.3,1.2,0.6,1.2,1.1c0,0.6-0.6,0.9-1.1,0.9c-0.5,0-1-0.2-1-0.9C80.1,7.2,80.4,6.9,81,6.6
			 M81.2,5.3c-0.3-0.1-0.9-0.4-0.9-0.9c0-0.5,0.5-0.7,0.9-0.7c0.4,0,0.8,0.2,0.8,0.7C82,4.8,81.7,5.1,81.2,5.3 M82.5,5.9
			C83,5.5,83.3,5,83.3,4.4c0-1.2-1.1-1.9-2.2-1.9c-1.1,0-2.2,0.7-2.2,1.9c0,0.8,0.4,1.2,0.8,1.5c-0.7,0.5-1,1-1,1.8
			c0,1.4,1.2,2.1,2.4,2.1c1.2,0,2.4-0.7,2.4-2.1C83.5,7,83.2,6.4,82.5,5.9"/>
		<path fill="#D12430" d="M87.3,3.7c0.3,0,1,0.1,1,1.5c-0.1,0.2-0.5,0.9-1.2,0.9c-0.6,0-0.7-0.7-0.7-1.1C86.5,4.1,86.9,3.7,87.3,3.7
			 M87.4,2.5c-1.1,0-2.2,0.8-2.2,2.5c0,1.7,1.3,2.4,2.1,2.4c0.4,0,0.7-0.1,1.1-0.3C88.1,8,87.6,8.6,87,8.6c-0.3,0-0.5-0.1-0.7-0.3
			c-0.1-0.1-0.2-0.1-0.3-0.1c-0.1,0-0.2,0.1-0.2,0.2l-0.3,0.5c-0.1,0.2-0.1,0.4,0.1,0.5C86,9.7,86.5,9.8,87,9.8
			c1.3,0,2.7-1.1,2.7-4.1C89.7,3.3,88.5,2.5,87.4,2.5"/>
		<path fill="#D12430" d="M93.5,4.7c-0.3,0-0.6,0-0.8,0.1l0.1-1h2.1c0.2,0,0.3-0.2,0.3-0.3V2.9c0-0.2-0.2-0.3-0.3-0.3h-2.9
			c-0.2,0-0.3,0.1-0.3,0.3l-0.2,3.4c0,0.2,0.1,0.3,0.3,0.4l0.5,0.1c0,0,0.1,0,0.1,0c0.1,0,0.2-0.1,0.3-0.2c0.3-0.5,0.6-0.7,0.9-0.7
			c0.4,0,0.8,0.4,0.8,1.3c0,0.2,0,1.4-1,1.4c-0.6,0-0.8-0.5-0.9-0.7c0-0.1-0.1-0.2-0.2-0.2c-0.1,0-0.2,0-0.3,0L91.4,8
			c-0.2,0.1-0.2,0.3-0.1,0.4c0.5,0.9,1.1,1.4,2.1,1.4c1.4,0,2.3-1.1,2.3-2.7C95.7,6,95,4.7,93.5,4.7"/>
	</g>
	<g>
		<path fill="#D12430" d="M53.8,63.2c-0.2,0.1-0.3,0.1-0.5,0.2c-0.3,0.1-0.6,0.2-0.9,0.3c-0.1,0-0.2,0-0.2,0.1
			c-0.2,0-0.3,0.1-0.5,0.1c-0.1,0-0.2,0-0.3-0.1c0,0,0-0.1,0-0.2c0-0.2,0.1-0.3,0.1-0.5c0.1-0.4,0.2-0.9,0.4-1.3
			c0.2-0.4,0.3-0.8,0.5-1.2c0.1-0.3,0.2-0.6,0.3-0.9c0.1-0.2,0.1-0.4,0.2-0.6c0.2-0.8,0.5-1.5,1.2-1.8c0.3-0.1,0.7-0.2,1.1-0.3
			c0.1,0,0.2,0,0.3,0c0.7,0,1.2,0.3,1.5,0.8c0.2,0.4,0.4,0.9,0.3,1.4c0,0.2-0.1,0.4-0.2,0.7c0,0.1-0.1,0.2-0.1,0.3
			c-0.1,0.3-0.2,0.6-0.5,1c-0.2,0.3-0.4,0.6-0.8,0.9c-0.5,0.4-1,0.8-1.5,1.1C54.2,63,54,63.1,53.8,63.2 M52.5,67.3
			c1,0,1.9,0.9,2.1,2.2c0.2,1.5-0.6,3.2-2,4.1c-0.6,0.4-1.3,0.6-1.9,0.7c-0.2,0-0.4,0-0.5,0c-0.7,0-1.2-0.2-1.6-0.7
			c-0.2-0.3-0.1-0.7,0.1-1.1l0-0.1c0.2-0.5,0.3-1,0.5-1.6l0-0.2c0.2-0.8,0.6-2.4,1.3-2.7c0.5-0.2,0.9-0.4,1.4-0.5
			C52.2,67.3,52.4,67.3,52.5,67.3 M57.8,67.8c-0.2-0.6-0.6-1.1-1-1.5c-0.1-0.1-0.2-0.2-0.3-0.3L56.4,66c0,0-0.1-0.1-0.1-0.1
			c-0.1-0.1-0.1-0.1-0.2-0.2c0,0-0.1,0-0.1-0.1c0,0-0.1-0.1-0.2-0.1c0,0,0,0,0,0c0,0,0,0,0-0.1c0.1-0.1,0.2-0.2,0.4-0.3
			c0.1-0.1,0.2-0.1,0.2-0.1c0.2-0.1,0.3-0.2,0.5-0.4c0.1-0.1,0.2-0.1,0.2-0.2c0.2-0.2,0.5-0.3,0.7-0.5c0.2-0.2,0.4-0.3,0.7-0.5
			l0.2-0.1c0.4-0.3,0.8-0.7,1.2-1.1c1.2-1.6,1.6-3.8,1.1-5.7c-0.1-0.4-0.3-0.7-0.6-1.1c-0.4-0.5-0.9-1.1-1.5-1.5
			c-0.3-0.2-0.6-0.3-0.9-0.4c-0.3-0.1-0.5-0.1-0.8-0.2c-0.4-0.1-0.7-0.1-1.1-0.1l-0.4,0c-0.2,0-0.3,0-0.5,0c-0.3,0-0.7,0.1-1.1,0.1
			l-0.1,0c-1,0.2-1.8,0.4-2.5,0.8c-0.4,0.2-0.7,0.4-1,0.6c-0.2,0.1-0.3,0.2-0.5,0.3c-0.3,0.2-0.7,0.4-1,0.7l-0.2,0.1
			c-0.2,0.2-1.5,1.2-1.7,1.4c-0.3,0.3-0.1,1,0,1.4c0,0.1,0,0.1,0.1,0.2c0.1,0.3,0.5,1.1,0.9,1.2c0,0,0.1,0,0.1,0
			c0.2,0,0.3-0.1,0.5-0.2c0,0,0.1-0.1,0.1-0.1c0.1-0.1,0.3-0.1,0.4-0.2c0.1,0,0.2-0.1,0.3-0.1c0,0,0.1-0.1,0.2-0.1
			c0.1-0.1,0.2-0.2,0.3-0.1c0.1,0,0.1,0.2,0,0.6c-0.1,0.2-0.2,0.4-0.2,0.7c0,0.1-0.1,0.2-0.1,0.3c-0.2,0.6-0.4,1.1-0.6,1.7L48.6,63
			c-0.1,0.3-0.2,0.7-0.3,1c-0.2,0.7-0.4,1.4-0.7,2c-0.1,0.1-0.1,0.3-0.1,0.4l-1.6,4.7c-0.5,0.3-0.8,0.9-0.8,1.5c0,0.2,0,0.4,0.1,0.6
			c0,0,0,0,0,0c-0.1,0.4-0.3,0.8-0.4,1.2l-0.3,1c-0.1,0.3-0.2,0.6-0.3,0.9c0,0.1,0,0.1-0.1,0.2c-0.1,0.4-0.3,0.9,0.1,1.1
			c0.3,0.2,0.7,0.2,1.1,0.2c0.1,0,0.2,0,0.2,0c0.1,0,0.1,0,0.2,0c0.3,0,0.5,0,0.7,0c0.3,0,0.4-0.1,0.5-0.4c0.2-0.4,0.3-0.8,0.4-1.2
			c0.1,0,0.2,0.2,0.4,0.3c0.1,0.1,0.2,0.1,0.2,0.2c0.4,0.2,0.8,0.4,1.2,0.5c0.7,0.2,1.3,0.3,1.8,0.3h0c0.4,0,0.7,0,1.1-0.1
			c1.3-0.3,3-1,4.2-2.4C57.7,73.1,58.8,70.2,57.8,67.8"/>
		<path fill="#D12430" d="M66.2,65.4c-0.1,0.1-0.1,0.3-0.1,0.4c-0.4,1.5-0.9,2.9-1.5,4.1c-0.2,0.4-0.5,0.7-0.8,0.8
			c-0.6,0.1-1.5-0.3-1.7-0.9c-0.4-1.2-0.1-2.6,0.4-3.6c0.7-1.4,1.5-2.1,2.6-2.2l0.1,0c0.1,0,0.3,0,0.4,0c0.5,0,0.8,0.1,0.9,0.4
			C66.5,64.6,66.4,65.1,66.2,65.4 M70.7,62.1c0.1-0.3,0.1-0.5-0.1-0.7c-0.3-0.2-1-0.3-1.5-0.3c-0.1,0-0.2,0-0.2,0
			c-0.3,0-0.5,0.1-0.7,0.3c-0.1,0.1-0.2,0.3-0.3,0.5c-0.1,0.2-0.2,0.4-0.3,0.5c-0.9-0.5-1.7-0.9-2.7-0.9c-0.2,0-0.5,0-0.7,0.1
			c-1.4,0.2-2.3,1-3.1,1.8c-1,1-1.4,2.2-1.8,3.4c-0.3,0.8-0.4,1.5-0.4,2.3c0,2.2,0.6,3.7,1.8,4.3c0.4,0.2,1.1,0.4,1.7,0.4
			c0.3,0,0.5,0,0.7-0.1c0,0.3-0.2,1-0.2,1.1c-0.2,0.4-0.3,0.7-0.5,0.9c-0.4,0.5-1,0.7-1.5,0.6c-0.2,0-0.3-0.2-0.5-0.3
			c-0.2-0.2-0.5-0.4-0.8-0.4c-0.1,0-0.2,0-0.2,0c-0.4,0.2-1.6,1.7-1.5,2.1c0,0.3,0.4,0.5,0.8,0.8c0.6,0.3,1.1,0.5,1.9,0.5
			c1.1,0,2.4-0.1,3.4-1.1c1.1-1,1.6-2.3,2-3.6c0.2-0.7,0.5-1.4,0.7-2c0.2-0.6,0.5-1.2,0.7-1.8c0.5-1.4,1-2.9,1.6-4.5
			c0.2-0.4,0.4-0.9,0.6-1.3c0.1-0.3,0.3-0.6,0.4-0.9c0.1-0.1,0.1-0.2,0.2-0.4C70.3,63.1,70.6,62.7,70.7,62.1L70.7,62.1z"/>
		<path fill="#D12430" d="M76.1,61.5C76.1,61.5,76.1,61.5,76.1,61.5c0.1,0,0.1,0,0.2,0c0.1,0,0.2,0,0.3,0.1c0.2,0.1,0.6,0.4,0.7,1.5
			c0.1,0.7-0.1,1.6-0.3,2.4l0,0c-0.5,1.5-1.7,2.4-2.4,2.5c-0.2,0-0.3,0-0.4-0.1c-0.2-0.1-0.5-0.5-0.6-1.5c-0.1-0.8,0.1-1.7,0.4-2.6
			C74.4,62.3,75.5,61.5,76.1,61.5 M80.1,63.2c0-0.3,0-0.6-0.1-0.9c-0.1-0.7-0.3-1.7-1-2.5c-0.6-0.8-1.8-0.9-2.5-0.9h-0.1
			c-1,0-1.8,0.3-2.7,0.9c-2.1,1.3-3.5,3.8-3.5,6.4c0,1.1,0.3,3.1,2,4.1c0.5,0.3,1.1,0.4,1.8,0.4c1.5,0,3.1-0.8,4.3-2.2
			c0.7-0.9,1.2-2,1.5-3.5C80,64.4,80.1,63.8,80.1,63.2"/>
		<path fill="#D12430" d="M85.1,57.3c0.4,0,0.7,0.2,1,0.4c0.3,0.2,0.6,0.5,1.1,0.4c0.7-0.1,1.2-0.8,1.4-1.1c0.1-0.2,0.2-0.5,0.1-0.7
			c-0.3-0.8-2-1.3-2.5-1.4c-0.3-0.1-0.6-0.1-0.9,0c-0.9,0.1-2.1,0.8-2.6,1.6c-0.4,0.7-0.7,1.5-0.7,2.2c-0.1,1,0.2,2.2,0.8,3.2
			c0.1,0.2,0.3,0.4,0.4,0.6c0.6,0.9,1.4,2.1,0.7,3c-0.3,0.4-0.9,0.5-1.1,0.5c-0.2,0-1.1-0.2-1.3-0.3c0,0-0.1,0-0.1-0.1
			c-0.1-0.1-0.2-0.1-0.3-0.1c-0.3,0-0.5,0.4-0.7,0.6l-0.1,0.1c-0.2,0.3-0.7,1-0.5,1.6c0.1,0.3,0.3,0.5,0.7,0.6
			c0.7,0.2,1.3,0.3,1.9,0.3c0.2,0,0.4,0,0.6,0c0.7,0,1.3-0.1,1.7-0.3c1-0.4,2-1.7,2.2-2.9c0.3-1.7-0.4-3.3-1-4.3l-0.1-0.1
			c-0.3-0.5-0.6-1-0.8-1.5c-0.1-0.2-0.2-0.5-0.3-0.8c-0.1-0.3-0.1-0.9,0.1-1.2C84.8,57.4,84.9,57.4,85.1,57.3"/>
		<path fill="#D12430" d="M96,55.8c-0.3-0.3-0.7-0.5-1.1-0.6c-0.4-0.1-1.1,0.1-1.6,0.4c0.2-0.4,0.4-0.9,0.5-1.4
			c0.1-0.3,0.2-0.6,0.3-0.9c0.2-0.5,0.4-1,0.6-1.6c0,0,0-0.1,0.1-0.1c0.3-0.6,0.5-1.4,0.3-1.7c0-0.1-0.1-0.1-0.2-0.2
			c-0.2,0-0.5-0.1-0.8-0.1c-0.8,0-1.3,0.2-1.5,0.7l-0.1,0.2c-0.1,0.1-0.1,0.2-0.2,0.5c-0.2,0.4-0.3,0.8-0.5,1.2
			c-0.1,0.3-0.2,0.7-0.4,1c-0.3,0.7-0.5,1.5-0.8,2.2c-0.2,0.5-0.3,0.9-0.5,1.4c-0.1,0.4-0.3,0.7-0.4,1.1c-0.3,0.8-0.6,1.7-0.9,2.5
			c-0.2,0.6-0.4,1.2-0.7,1.8c-0.2,0.5-0.3,0.9-0.5,1.4c-0.1,0.4-0.2,0.8-0.4,1.2l0,0.1c-0.1,0.4-0.5,1.1-0.2,1.6
			c0.1,0.1,0.2,0.2,0.4,0.2c0.3,0,0.7,0.1,0.9,0.1c0.2,0,0.3,0,0.5,0c0.7,0,0.9-0.6,1.1-1.2c0-0.1,0.1-0.2,0.1-0.3
			c0.1-0.3,0.2-0.7,0.3-1c0.1-0.4,0.2-0.8,0.4-1.2c0.1-0.1,0.1-0.4,0.2-0.6c0.4-1,1.1-2.9,1.4-3.3c0.4-0.5,1.1-1,1.4-1
			c0.1,0,0.1,0,0.1,0c0.4,0.2,0.1,1-0.1,1.5c0,0.1,0,0.1-0.1,0.2c-0.1,0.4-0.3,0.8-0.5,1.2c-0.1,0.3-0.3,0.7-0.4,1
			c-0.1,0.4-0.3,0.7-0.4,1.1c-0.1,0.3-0.3,0.7-0.4,1.1c-0.1,0.4-0.3,0.9,0,1.1c0.1,0.1,0.2,0.1,0.5,0.1c0.6,0,1.6-0.2,1.8-0.3
			c0.2-0.1,0.6-1.3,1.2-3.1c0.2-0.6,0.4-1.1,0.5-1.5c0.1-0.2,0.1-0.4,0.2-0.6c0.3-0.7,0.5-1.3,0.6-2.1C96.9,56.9,96.7,56.4,96,55.8"
			/>
		<path fill="#D12430" d="M63.6,59.1c0.1,0,0.3,0.1,0.4,0.1c0.1,0,0.1,0,0.2,0c0.5-0.1,1-0.3,1.5-0.7c1.2-0.9,1.8-2.8,1.4-4.3
			c-0.2-0.5-1-1.1-1.5-1.2c-0.8-0.2-1.4,0.1-1.8,0.7c-0.4,0.7-0.4,1.6,0,2.3c0.1,0.2,0.3,0.3,0.5,0.5c0.3,0.2,0.5,0.4,0.5,0.7
			c0,0.4-0.4,0.6-0.8,0.7c-0.3,0.1-0.6,0.3-0.7,0.5c-0.1,0.2-0.1,0.3-0.1,0.4C63.2,59,63.4,59.1,63.6,59.1"/>
		<path fill="#D12430" d="M13.8,41.6c-4.4,0-6.4-4.9-6.4-9.5c0-4.9,2-9.8,6.4-9.8c4.3,0,6.3,5,6.3,9.6
			C20.2,36.7,18.2,41.6,13.8,41.6 M26.9,31.6C26.9,22.3,21.7,16,14,16C6.2,16,0.7,22.6,0.7,32.1c0,9.2,5.3,15.7,12.9,15.7
			C20.2,47.8,26.9,42.8,26.9,31.6"/>
		<path fill="#D12430" d="M33.7,43.9c5.6,0,8.1-3.8,8.1-7.5c0-4.5-3.1-6.4-5.7-7.5c-2.6-1.1-3.1-1.8-3.1-2.9c0-0.4,0.2-1.9,2.4-1.9
			c1.7,0,2.8,0.7,2.9,0.8c0.3,0.2,0.8,0.3,1.2,0.2c0.4-0.1,0.7-0.5,0.8-0.8l0.7-2.3c0.2-0.6-0.1-1.2-0.5-1.5c-1.2-0.8-3.1-1.3-5-1.3
			c-4.4,0-7.6,3-7.6,7.1c0,3.3,1.9,5.7,5.9,7.3c2.7,1.1,2.9,2,2.9,3c0,1.5-1,2.4-2.8,2.4c-1.3,0-2.7-0.4-3.7-1.2
			c-0.3-0.2-0.8-0.3-1.2-0.2c-0.4,0.1-0.7,0.5-0.8,0.9l-0.7,2.3c-0.1,0.5,0,1.1,0.5,1.4C29.2,43.2,31.6,43.9,33.7,43.9"/>
		<path fill="#D12430" d="M45.4,43.5H48c0.7,0,1.3-0.6,1.3-1.3v-8.8h6.8v8.8c0,0.7,0.6,1.3,1.3,1.3h2.5c0.7,0,1.3-0.6,1.3-1.3V20.8
			c0-0.7-0.6-1.3-1.3-1.3h-2.5c-0.7,0-1.3,0.6-1.3,1.3v7.7h-6.8v-7.7c0-0.7-0.6-1.3-1.3-1.3h-2.5c-0.7,0-1.3,0.6-1.3,1.3v21.4
			C44.1,42.9,44.7,43.5,45.4,43.5"/>
		<path fill="#D12430" d="M69.5,47.5c0.9,0,1.7-0.7,1.7-1.7V36l0.6-0.7l7,11.5c0.3,0.5,0.8,0.8,1.4,0.8h3.8c0.6,0,1.2-0.3,1.4-0.8
			c0.3-0.5,0.3-1.2,0-1.7l-9.2-14.9l8.4-10.8c0.4-0.5,0.5-1.2,0.2-1.7c-0.3-0.6-0.9-0.9-1.5-0.9h-4c-0.5,0-1,0.2-1.3,0.7l-6.7,9.1
			v-8.1c0-0.9-0.7-1.7-1.7-1.7h-3.2c-0.9,0-1.7,0.7-1.7,1.7v27.5c0,0.9,0.7,1.7,1.7,1.7H69.5z"/>
		<path fill="#D12430" d="M93.4,24c3.4,0,4.9,3.9,4.9,7.5c0,3.8-1.5,7.6-5,7.6c-3.4,0-5-3.8-5-7.4C88.4,27.8,89.9,24,93.4,24
			 M93.2,43.9c5.1,0,10.3-3.9,10.3-12.6c0-7.3-4.1-12.2-10.1-12.2c-6.1,0-10.3,5.2-10.3,12.6C83.2,38.9,87.3,43.9,93.2,43.9"/>
		<path fill="#D12430" d="M119.2,36.4c0-4.5-3.1-6.4-5.7-7.5c-2.6-1.1-3.1-1.8-3.1-2.9c0-0.4,0.2-1.9,2.4-1.9c1.7,0,2.8,0.7,2.9,0.8
			c0.3,0.2,0.8,0.3,1.2,0.2c0.4-0.1,0.7-0.4,0.8-0.8l0.7-2.3c0.2-0.6,0-1.2-0.5-1.5c-1.2-0.8-3.1-1.3-5-1.3c-4.4,0-7.6,3-7.6,7.1
			c0,3.3,2,5.7,5.9,7.3c2.7,1.1,2.9,2,2.9,3c0,1.5-1,2.4-2.8,2.4c-1.3,0-2.7-0.4-3.7-1.2c-0.3-0.2-0.8-0.3-1.2-0.2
			c-0.4,0.1-0.7,0.5-0.8,0.9l-0.7,2.3c-0.1,0.5,0,1.1,0.5,1.4c1.3,1,3.7,1.6,5.7,1.6C116.7,43.9,119.2,40.1,119.2,36.4"/>
		<path fill="#D12430" d="M138,19.5h-2.5c-0.7,0-1.3,0.6-1.3,1.3v7.7h-6.8v-7.7c0-0.7-0.6-1.3-1.3-1.3h-2.5c-0.7,0-1.3,0.6-1.3,1.3
			v21.4c0,0.7,0.6,1.3,1.3,1.3h2.5c0.7,0,1.3-0.6,1.3-1.3v-8.8h6.8v8.8c0,0.7,0.6,1.3,1.3,1.3h2.5c0.7,0,1.3-0.6,1.3-1.3V20.8
			C139.3,20.1,138.7,19.5,138,19.5"/>
		<path fill="#D12430" d="M90.2,46.8c0,0,0,0.8,0.8,0.8h47.5c0,0,0.8,0,0.8-0.8v-0.6c0,0,0-0.8-0.8-0.8H91c0,0-0.8,0-0.8,0.8V46.8z"
			/>
		<path fill="#D12430" d="M61.2,46.1c0,0,0-0.8-0.8-0.8H27.1c0,0-0.8,0-0.8,0.8v0.6c0,0,0,0.8,0.8,0.8h33.4c0,0,0.8,0,0.8-0.8V46.1z
			"/>
		<g>
			<path fill="#D12430" d="M100,56.9c0.1,0,0.3,0,0.4-0.1c0.1-0.1,0.2-0.1,0.3-0.2c0.1-0.1,0.2-0.2,0.2-0.3c0.1-0.1,0.1-0.3,0.1-0.4
				c0-0.1,0-0.3-0.1-0.4c-0.1-0.1-0.1-0.2-0.2-0.3c-0.1-0.1-0.2-0.2-0.3-0.2c-0.1-0.1-0.3-0.1-0.4-0.1c-0.1,0-0.3,0-0.4,0.1
				c-0.1,0.1-0.2,0.1-0.3,0.2c-0.1,0.1-0.2,0.2-0.2,0.3C99,55.6,99,55.7,99,55.9c0,0.1,0,0.3,0.1,0.4c0.1,0.1,0.1,0.2,0.2,0.3
				c0.1,0.1,0.2,0.2,0.3,0.2C99.7,56.9,99.8,56.9,100,56.9 M100,54.7c0.2,0,0.3,0,0.5,0.1c0.2,0.1,0.3,0.2,0.4,0.3
				c0.1,0.1,0.2,0.2,0.3,0.4c0.1,0.2,0.1,0.3,0.1,0.5c0,0.2,0,0.3-0.1,0.5c-0.1,0.2-0.2,0.3-0.3,0.4c-0.1,0.1-0.2,0.2-0.4,0.3
				c-0.2,0.1-0.3,0.1-0.5,0.1c-0.2,0-0.3,0-0.5-0.1c-0.2-0.1-0.3-0.2-0.4-0.3c-0.1-0.1-0.2-0.2-0.3-0.4c-0.1-0.2-0.1-0.3-0.1-0.5
				c0-0.2,0-0.3,0.1-0.5c0.1-0.2,0.2-0.3,0.3-0.4c0.1-0.1,0.2-0.2,0.4-0.3C99.6,54.7,99.8,54.7,100,54.7"/>
			<path fill="#D12430" d="M100.2,55.6c0-0.1-0.1-0.2-0.2-0.2c0,0,0,0-0.1,0c0,0,0,0,0,0v0.4h0.1c0.1,0,0.1,0,0.2-0.1
				C100.1,55.7,100.2,55.7,100.2,55.6 M100.5,56.6C100.5,56.6,100.5,56.6,100.5,56.6C100.5,56.6,100.5,56.6,100.5,56.6l-0.2,0.1
				c0,0,0,0,0,0c0,0,0-0.1,0-0.1c0-0.1,0-0.1,0-0.2c0-0.1-0.1-0.2-0.3-0.2h-0.1v0.6c0,0,0,0,0,0h-0.2c0,0,0,0,0,0v-1.4c0,0,0,0,0,0
				c0.1,0,0.2,0,0.3,0c0.2,0,0.3,0,0.4,0.1c0,0,0.1,0.1,0.1,0.1c0,0.1,0,0.1,0,0.2c0,0.1,0,0.1,0,0.2c0,0.1-0.1,0.1-0.1,0.1
				c0,0,0,0,0,0c0,0,0,0,0,0.1c0,0,0,0.1,0,0.1c0,0,0,0.1,0,0.1c0,0,0,0,0,0.1c0,0,0,0,0,0.1C100.4,56.4,100.5,56.4,100.5,56.6
				C100.5,56.5,100.5,56.5,100.5,56.6"/>
		</g>
	</g>
</g>
</svg>
