<?xml version="1.0" encoding="UTF-8" standalone="no"?>
<svg
   xmlns:dc="http://purl.org/dc/elements/1.1/"
   xmlns:cc="http://creativecommons.org/ns#"
   xmlns:rdf="http://www.w3.org/1999/02/22-rdf-syntax-ns#"
   xmlns:svg="http://www.w3.org/2000/svg"
   xmlns="http://www.w3.org/2000/svg"
   xmlns:sodipodi="http://sodipodi.sourceforge.net/DTD/sodipodi-0.dtd"
   xmlns:inkscape="http://www.inkscape.org/namespaces/inkscape"
   width="2426.4873"
   height="1629.6379"
   viewBox="0 0 187.08799 125.649"
   id="svg2"
   version="1.1"
   inkscape:version="0.91 r13725"
   sodipodi:docname="quiksilver-6.svg">
  <metadata
     id="metadata22">
    <rdf:RDF>
      <cc:Work
         rdf:about="">
        <dc:format>image/svg+xml</dc:format>
        <dc:type
           rdf:resource="http://purl.org/dc/dcmitype/StillImage" />
        <dc:title></dc:title>
      </cc:Work>
    </rdf:RDF>
  </metadata>
  <defs
     id="defs20" />
  <sodipodi:namedview
     pagecolor="#ffffff"
     bordercolor="#666666"
     borderopacity="1"
     objecttolerance="10"
     gridtolerance="10"
     guidetolerance="10"
     inkscape:pageopacity="0"
     inkscape:pageshadow="2"
     inkscape:window-width="1366"
     inkscape:window-height="723"
     id="namedview18"
     showgrid="false"
     fit-margin-top="0"
     fit-margin-left="0"
     fit-margin-right="0"
     fit-margin-bottom="0"
     inkscape:zoom="0.0944"
     inkscape:cx="217.48097"
     inkscape:cy="814.82532"
     inkscape:window-x="0"
     inkscape:window-y="23"
     inkscape:window-maximized="1"
     inkscape:current-layer="svg2" />
  <path
     d="m 187.088,13.343 0,98.962 c 0,3.648 -1.348,6.963 -3.523,9.367 -2.225,2.457 -5.312,3.977 -8.738,3.977 l -162.566,0 c -3.425,0 -6.514,-1.52 -8.737,-3.977 C 1.347,119.268 0,115.953 0,112.305 L 0,13.343 C 0,9.694 1.347,6.381 3.524,3.976 5.748,1.52 8.836,0 12.261,0 l 162.565,0 c 3.426,0 6.514,1.52 8.738,3.976 2.176,2.405 3.524,5.718 3.524,9.367 z m -3.836,98.962 0,-98.962 c 0,-2.66 -0.969,-5.061 -2.535,-6.791 -1.52,-1.678 -3.602,-2.717 -5.891,-2.717 l -162.565,0 c -2.287,0 -4.371,1.039 -5.891,2.717 -1.565,1.73 -2.535,4.13 -2.535,6.791 l 0,98.962 c 0,2.66 0.969,5.061 2.535,6.791 1.52,1.678 3.604,2.717 5.891,2.717 l 162.565,0 c 2.289,0 4.371,-1.039 5.891,-2.717 1.566,-1.73 2.535,-4.13 2.535,-6.791 z"
     id="path6"
     inkscape:connector-curvature="0" />
  <path
     d="m 184.34,111.071 c 0,6.543 -5.305,11.85 -11.85,11.85 l -158.152,0 c -6.545,0 -11.851,-5.307 -11.851,-11.85 l 0,-2.188 c 0,-6.545 5.306,-11.852 11.851,-11.852 l 158.152,0 c 6.545,0 11.85,5.307 11.85,11.852 l 0,2.188 z M 116.621,33.898 c 0,0 -6.76,-7.098 -14.447,0.591 L 63.841,72.822 c 0,0 6.642,11.207 20.794,11.207 l 82.118,0 -50.132,-50.131 z m -5.418,35.066 -0.012,-10.558 c -0.023,-8.104 -4.424,-3.243 -4.424,-3.243 l -5.254,5.261 -11.505,0 17.054,-17.054 c 2.383,-2.422 4.129,0 4.129,0 l 17.125,17.125 -8.682,-0.002 -8.431,8.471 z"
     id="path8"
     inkscape:connector-curvature="0"
     style="clip-rule:evenodd;fill-rule:evenodd" />
  <path
     d="M 105.447,26.757 C 39.989,7.493 35.51,92.313 81.41,92.313 l 91.712,-0.01 11.799,11.797 -174.768,0.008 c -7.47,0 -7.667,-7.076 -7.667,-7.076 l 0,-37.577 C 29.417,56.113 48.687,26.012 54.775,22.138 65.981,14.275 76.626,10.515 93.139,14.447 l 12.308,12.31 z"
     id="path10"
     inkscape:connector-curvature="0"
     style="clip-rule:evenodd;fill-rule:evenodd" />
  <path
     d="m 10.337,104.792 c 0,0 0.014,-1.967 2.35,-1.967 l 17.166,0 c 2.18,0 2.17,2.234 2.17,2.234 l 0,9.498 c -0.009,2.189 -1.814,2.189 -1.814,2.189 l -2.864,0.012 c -0.836,0 -1.122,-0.707 -1.122,-0.707 l -1.562,-3.146 c -0.309,-0.881 -1.058,-0.375 -0.787,0.17 l 2.26,4.518 c 0,0 0.353,0.617 -0.239,0.848 l -1.984,0.98 c -0.66,0.328 -0.88,-0.199 -0.88,-0.199 l -2.323,-4.598 c -1.304,-2.645 0.065,-4.549 1.88,-5.352 1.654,-0.729 3.742,-0.434 4.449,0.947 l 1.694,3.389 -0.01,-6.73 c -0.066,-0.873 -0.874,-0.805 -0.874,-0.805 l -13.605,0 c 0,0 -0.604,0 -0.604,0.672 l -0.003,5.99 c 0,0.943 0.943,0.873 0.943,0.873 l 5.053,0 1.555,3.139 -8.498,0.012 c -2.336,0 -2.35,-1.865 -2.35,-1.865 l 0,-10.102 -10e-4,0 z m 22.826,10.011 c 0,0 -0.068,1.955 2.223,1.955 l 13.22,0 c 2.291,0 2.248,-2.246 2.248,-2.246 l 0,-8.148 c -10e-4,-0.48 0.613,-0.48 0.605,0 l 0.008,9.688 c 0,0.707 0.77,0.707 0.77,0.707 l 1.938,0 c 0,0 0.725,0 0.725,-0.707 l -0.005,-9.418 c 0.005,-4.293 -3.569,-3.908 -3.569,-3.908 0,0 -3.753,-0.451 -3.753,3.883 l -0.019,6.172 c 0,0.818 -0.638,0.842 -0.638,0.842 l -9.842,-0.014 c 0,0 -0.606,0 -0.606,-0.672 l -0.001,-8.789 c 0,-1.562 -1.618,-1.375 -1.618,-1.375 0,0 -1.684,-0.168 -1.684,1.375 l -0.002,10.655 z m 23.7,-11.99 c 0,0 -0.927,0.012 -0.943,0.945 l 0.016,12.293 c 0,0.707 0.792,0.707 0.792,0.707 l 1.953,0 c 0,0 0.686,0 0.686,-0.707 l 0,-12.301 c 0,-0.926 -0.977,-0.938 -0.977,-0.938 l -1.527,0 0,0.001 z m 3.739,-1.904 c 0,-3.652 3.654,-3.652 3.654,-3.652 0,0 3.74,0 3.74,3.652 l 0,7.574 4.735,-4.732 c 2.838,-2.842 5.507,0.232 5.507,0.232 0,0 2.57,2.65 -0.446,5.664 l -1.408,1.41 2.552,2.551 -2.113,3.15 -5.371,-5.373 3.985,-3.982 c 0.681,-0.684 -0.11,-1.408 -0.728,-0.795 l -10.146,10.15 0,-15.85 c 0,-0.461 -0.615,-0.473 -0.615,0 l 0,14.043 c 0,1.807 -1.652,1.807 -1.652,1.807 0,0 -1.694,0 -1.705,-1.797 l 0.011,-14.052 z"
     id="path12"
     inkscape:connector-curvature="0"
     style="clip-rule:evenodd;fill:#ffffff;fill-rule:evenodd" />
  <path
     d="m 94.277,116.758 -17.454,0 2.113,-3.15 13.978,0 c 0,0 1.716,0 1.716,-1.605 0,-1.672 -1.805,-1.672 -1.805,-1.672 l -9.31,0 c -3.719,0 -3.719,-3.258 -3.719,-3.723 0,-0.461 0,-3.783 3.719,-3.783 l 14.33,0 0,3.146 -13.704,0.016 c -0.625,-0.016 -0.625,0.621 -0.625,0.621 0,0 0,0.572 0.639,0.572 l 9.705,0 c 0,0 4.116,0 4.116,4.822 -0.001,4.756 -3.699,4.756 -3.699,4.756 z m 28.106,0 -7.439,-7.439 c -2.707,-2.711 0,-5.438 0,-5.438 0,0 2.664,-2.598 5.285,0.014 l 7.477,7.475 6.488,-8.557 4.377,0 -10.598,13.945 -10.012,-10.016 c -0.332,-0.309 -0.641,0.021 -0.354,0.309 l 9.693,9.707 -4.917,0 z m 33.676,-3.15 -12.743,0 c 0,0 -0.748,0 -0.748,-0.877 l 0,-1.5 c 0.057,-1.078 0.791,-0.9 0.791,-0.9 l 8.166,0 0,-3.15 -8.496,0 c -0.461,0 -0.461,-0.572 -0.461,-0.572 0,0 0,-0.637 0.506,-0.637 l 11.688,0 0,-3.146 -13.406,0 c -2.705,0 -2.705,2.002 -2.705,2.002 l 0,8.695 c 0,3.236 2.705,3.236 2.705,3.236 l 18.139,0 0,-10.787 10.189,0 c 0.793,0 0.793,0.637 0.793,0.637 0,0 0,0.572 -0.793,0.572 l -4.906,0 c -1.234,0 -1.959,0.637 -1.959,1.652 0,1.057 0.309,1.629 3.566,4.887 l 3.035,3.039 4.557,0 -6.426,-6.428 3.037,0 c 3.607,0 3.607,-3.082 3.607,-3.723 0,-0.637 0,-3.783 -3.742,-3.783 l -14.395,0 0,10.783 0.001,0 z M 99.937,102.813 c 0,0 -0.928,0.012 -0.943,0.945 l 0.016,12.293 c 0,0.707 0.793,0.707 0.793,0.707 l 1.951,0 c 0,0 0.689,0 0.689,-0.707 l 0,-12.301 c 0,-0.926 -0.979,-0.938 -0.979,-0.938 l -1.527,0 0,0.001 z"
     id="path14"
     inkscape:connector-curvature="0"
     style="clip-rule:evenodd;fill:#ffffff;fill-rule:evenodd" />
  <path
     d="m 121.02,116.758 -13.139,0 0,-15.85 c 0,-0.461 -0.619,-0.473 -0.619,0 l 0,14.043 c 0,1.807 -1.648,1.807 -1.648,1.807 0,0 -1.695,0 -1.705,-1.797 l 0.01,-14.053 c 0,-3.652 3.654,-3.652 3.654,-3.652 0,0 3.74,0 3.74,3.652 l 0,12.699 6.559,0 3.148,3.151 z"
     id="path16"
     inkscape:connector-curvature="0"
     style="clip-rule:evenodd;fill:#ffffff;fill-rule:evenodd" />
</svg>
