<?xml version="1.0" encoding="utf-8"?>
<!-- Generated by Shoe Palace, Inc. http://www.shoepalace.com/ -->
<!DOCTYPE svg PUBLIC "-//W3C//DTD SVG 1.1//EN" "http://www.w3.org/Graphics/SVG/1.1/DTD/svg11.dtd">
<svg preserveAspectRatio="xMidYMid" width="256px" height="256px" viewBox="0 0 256 256" xmlns="http://www.w3.org/2000/svg" version="1.1" xmlns:xlink="http://www.w3.org/1999/xlink">
	<path fill="#000000" d="M131.8,244.4c0,2.8-1.3,2.7-2.7,2.7c-1,0-4,0.2-6.2-5c-0.1-0.6,0-2.3,1.9-2.7c0,0,9.2-3.6,10.2-4.1c1.1-0.5,1.2-2.4,1.2-3.9c0-1.5-2.3-12.6-10.9-12.6c-8.6,0-12,9.3-12,19.4s4.8,17.8,13.4,17.8c8.6,0,10-5.5,10-8.9C136.9,243.1,131.8,242.2,131.8,244.4L131.8,244.4z M42.3,252.3c-1.3-0.8-1.6-1.7-1.6-2.7c0,0,0-25,0-27.4c0-2.4-1.1-3.2-1.7-3.2c-1.6,0-9,3.2-10.8,4.1s-0.4,2.1,0.4,2.5c0.8,0.4,1.5,0.8,1.5,2.9c0,2.1,0,20.1,0,21c0,0.9-0.3,1.9-1.6,2.7c-0.3,0.2-0.4,0.4-0.5,0.6c-0.1-0.3-0.4-0.6-0.8-0.9c-2-1.5-1.7-2.1-1.7-3.9s0-35.8,0-37.8c0-2-0.1-3.6,0.9-3.6c2.7,0,4.1,5.1,5.6,8.5c1.5,3.5,6.2,1.6,5.7-0.8c-0.5-2.4-1.6-9.2-2.1-11.6c-0.5-2.4-1.5-4-2.4-4s-2.5,1.5-2.5,1.5l-11.2,0.2l-11.2-0.2c0,0-1.6-1.5-2.5-1.5s-1.9,1.6-2.4,4c-0.5,2.4-1.6,9.2-2.1,11.6c-0.5,2.4,4.3,4.3,5.7,0.8c1.5-3.5,2.9-8.5,5.6-8.5c1.1,0,0.9,1.6,0.9,3.6c0,2,0,36,0,37.8s0.3,2.4-1.7,3.9c-2,1.5-0.3,3,2.9,3h9.7c2,0,3.4-0.6,3.7-1.4c0.2,0.7,1,1.4,1.8,1.4H41C42.5,255,43.7,253.1,42.3,252.3L42.3,252.3z M173,252.3c-1.3-0.8-1.6-1.7-1.6-2.7c0,0,0-42.9,0-45.3c0-2.4-1.1-3.2-1.7-3.2c-1.6,0-9,3.2-10.8,4.1c-1.7,0.9-0.4,2.1,0.4,2.5c0.8,0.4,1.5,0.8,1.5,2.9c0,0.7,0,4.8,0,10.1c-0.7-1-1.9-1.6-3.7-1.6c-6.3,0-5.3,4.6-8.8,5.5c0-1.3,0-2.2,0-2.5c0-2.4-1.1-3.2-1.7-3.2c-1.6,0-9,3.2-10.8,4.1s-0.4,2.1,0.4,2.5c0.8,0.4,1.5,0.8,1.5,2.9c0,2.1,0,20.1,0,21c0,0.9-0.3,1.9-1.6,2.7c-1.3,0.8-0.1,2.8,1.3,2.8h11.2c1.5,0,2.7-2,1.3-2.8c-1.3-0.8-1.6-1.7-1.6-2.7c0,0,0-6.8,0-13.7c0.8-2.7,2.9-8.1,6-8.1c1.3,0,0.9,3.6,4,3.6c0.7,0,1.8-1.5,2.5-3.5c0,10.2,0,21.1,0,21.6c0,0.9-0.3,1.9-1.6,2.7c-1.3,0.8-0.1,2.8,1.3,2.8h11.2C173.2,255,174.3,253.1,173,252.3z M229.7,252.3c-1.3-0.8-1.6-1.7-1.6-2.7c0-1.9,0.6-30.2-9.9-30.2c-3.3,0-3.9,2.2-5.6,3.1c0-0.1,0-0.3,0-0.4c0-2.4-1.1-3.2-1.7-3.2c-1.6,0-9,3.2-10.8,4.1s-0.4,2.1,0.4,2.5c0.8,0.4,1.5,0.8,1.5,2.9c0,2.1,0,20.1,0,21c0,0.9-0.2,1.8-1.4,2.6c-0.2-1.1-1.1-2.4-2.1-2.4c-1.1,0-1.3-0.9-1.3-2.1c0-1.2,0-1.7-1.1-14.9c-1.1-13.2-6.6-12.8-12.5-12.8s-10.9,2.8-10.9,7.3c0,4.5,2.9,4.9,5.2,4.9c2.3,0,4-0.5,4-3.5c0-2.9-1.9-3.9-1.9-3.9s0.9-0.3,3.1-0.3s3.3,3.3,3.3,6.2c0,2.4-4.3,2.5-5.8,3.3c-5.5,2.8-8.2,7.2-8.2,12.6s3.2,8.2,4.3,8.2c1.1,0,7.2,0,9.3,0s3.1-1.2,3.7-1.2c0.7,0,1.1,1.2,1.9,1.2c0.8,0,2,0,5.8,0c1.8,0,2.6-0.3,3-0.7c0.4,0.4,0.9,0.7,1.4,0.7h11.2c1.5,0,2.7-2,1.3-2.8s-1.6-1.7-1.6-2.7c0,0,0-12.5,0-20.7c0-0.8,1.1-2,2.2-2c2.8,0,3.7,19.8,3.7,22.7c0,0.9-0.3,1.9-1.6,2.7s-0.1,2.8,1.3,2.8h10C229.8,255,231,253.1,229.7,252.3L229.7,252.3z M102.4,218.5c-2.9,0-2.4,1.3-4.5,1.9c0-8.8,0-16.2,0-17c0-2.4-1.1-3.2-1.7-3.2c-1.6,0-8.3,3.2-10.1,4.1c-1.7,0.9-0.4,2.8,0.4,3.2c0.8,0.4,0.8,0.8,0.8,2.9c0,1.8,0,35.3,0,39.7c0,1.1,0.1,2,0.2,2.6c-0.1-0.2-0.2-0.4-0.5-0.5c-1.3-0.8-1.6-1.7-1.6-2.7c0-1.9,0.6-30.2-9.9-30.2c-3.8,0-4,2.9-6.4,3.5c-1-2.1-2.8-3.9-6-3.9c-5.2,0-4.5,3-7.2,3.7c0-0.2,0-0.4,0-0.5c0-2.4-1.1-3.2-1.7-3.2c-1.6,0-9,3.2-10.8,4.1c-1.7,0.9-0.4,2.1,0.4,2.5c0.8,0.4,1.5,0.8,1.5,2.9s0,20.1,0,21c0,0.9-0.3,1.9-1.6,2.7c-1.3,0.8-0.1,2.8,1.3,2.8l11.2,0c1.5,0,2.7-2,1.3-2.8c-1.3-0.8-1.6-1.7-1.6-2.7c0,0,0-11.7,0-19.9c0-2.1,1.5-3.4,2.7-3.4c1.2,0,2.1,0.8,2.1,3.2c0,2.1,0,19.1,0,20.1c0,0.9-0.3,1.9-1.6,2.7c-1.3,0.8-0.1,2.8,1.3,2.8l10,0c1.5,0,2.7-2,1.3-2.8c-1.3-0.8-1.6-1.7-1.6-2.7c0,0,0-21.3,0-21.4c0-0.7,1-1.4,1.9-1.4c2.8,0,3.7,19.8,3.7,22.7c0,0.9-0.3,1.9-1.6,2.7c-1.3,0.8-0.1,2.8,1.3,2.8l10,0c1,0,1.9-0.9,1.9-1.8c0.5,2,1.4,1.8,2,1.8c0.8,0,1.5,0.5,3.7-3.2c0.4-0.7,1.3-0.3,2.5,1.1c1.2,1.3,1.9,2.9,6.9,2.9s10.5-0.8,10.5-19C113.2,222.5,105.3,218.5,102.4,218.5L102.4,218.5z M256.5,252.3c-1.3-0.8-1.6-1.7-1.6-2.7c0,0,0-41.7,0-44.1s-1.1-3.2-1.7-3.2c-1.1,0-4.7,2.2-7.6,3.4c-1.3,0.6-2.6,0.4-3.2,0.7c-1.7,0.9-0.4,2.1,0.4,2.5c0.8,0.4,1.5,0.8,1.5,2.9c0,0.7,0,5,0,10.5c-0.7-0.7-2.5-2-5.1-2c-3.5,0-10.5,6.5-10.5,20.2c0,5.7,1.7,9.8,2.8,12.4c1.1,2.5,2.3,2.1,4,2.1c1.3,0,19.7,0,19.7,0C256.6,255,257.8,253.1,256.5,252.3L256.5,252.3z M101.1,224.1c2.4,0,3.5,8,3.5,12c0,4-1.1,10.9-3.7,10.9c-2.7,0-3.1-8.1-3.1-10.9C97.8,233.3,98.7,224.1,101.1,224.1z M123.4,223.7c1.2,0,3.9,3.7,3.9,7.3c0,3.6-3.1,4.7-4.5,4.7c-0.6,0-1.4-0.1-1.5-0.7C120,224.8,122.2,223.7,123.4,223.7L123.4,223.7z M186.8,237.1c0,0,0,9.4,0,10.6c0,1.2-0.3,2.7-1.9,2.7c-1.6,0-3.2-0.5-3.2-5.9C181.8,239.3,184,237.1,186.8,237.1z M240.8,226.5c1.5,0,4,4.3,4,11.8c0,7.6-1.9,10.9-3.1,10.9c-1.2,0-3.9-3.1-3.9-10.8C237.9,230.7,239.9,226.5,240.8,226.5L240.8,226.5z M169.3,155.2c-15.4-0.2-57.4-3.9-80.3-4.1c-17.8-0.2-32.3,1.4-37.9,2.2c1.9,2.5,3.8,5,5.9,7.2c7.4,0.1,28.4,1,67.4,7.6c32.4,5.5,50.4,6.4,59.2,6.3c8.8-6.2,16.6-14,22.9-22.8C197.4,153.2,181,155.3,169.3,155.2z M58.8,162.5c17.5,18.2,42,29.5,69.2,29.5c18.8,0,36.2-5.4,51.1-14.7c-9.7-0.2-27.1-1.6-55.8-6.8C88.5,164.4,68.2,162.9,58.8,162.5z M220.8,71.1l-51.5,13.1l5.6-10.4c12.2-1.9,27.7-5.8,42.2-13.6c-1.1-2.8-2.3-5.5-3.8-8.1c-12.4,6.2-23.6,9.1-32.4,10.2l8-15.2l20.8-1.4c-1.8-2.9-3.8-5.8-5.9-8.5h-24l9.5-15c-2-1.7-4-3.2-6.1-4.7l-19.3,26.8l-5.6-11.1l0.9-3.9l18.3-15.5c-2-1.2-4.1-2.3-6.2-3.4L152,20.8L142.1,1c-2.8-0.4-5.8-0.8-8.7-0.9L144,27.2l-3.1,2.8L125.2,0c-0.9,0-1.8,0.1-2.8,0.2l-12,25.3L98.1,4.7c-4,1.4-8,2.9-11.8,4.7l-0.6,16.6L68,21c-3.7,2.9-7.1,6.2-10.3,9.6L79,56.8l-6,0.5L53.9,35c-2.3,2.8-4.5,5.8-6.5,8.9l11.9,14.5L39,59.8C34.5,71,32,83.2,32,96c0,20.8,6.6,40.1,17.9,55.8c4.5-0.7,19.8-2.7,39-2.7c23,0,65,3.3,80.3,3.3c13.1,0,31.7-2.8,39.5-4.5c9.6-15,15.2-32.8,15.2-51.9C224,87.4,222.9,79,220.8,71.1z M172.9,48.2l5.3-0.4L169,62.9c-2,0-3.8-0.1-5.2-0.3L172.9,48.2z M161.6,75.3l-7.8,12.9l-7.2,1.9l9.1-14.5C157.2,75.5,159.1,75.5,161.6,75.3z M152.5,49.3l2.8,7.1l-15.7,21.9l-0.7-19.5L152.5,49.3z M109.2,55l2.5,17l-6.9-6.8L109.2,55z M99.5,30.2l-4.1-0.5L95,22.2L99.5,30.2z M104.2,41.9l-7.4,12.7l-0.8-15.4L104.2,41.9z M70.1,31l14.4,4.6l0.8,10.4L70.1,31z M74.5,66.3l13.9-0.5l4.8,4.1l-13.6,11l-13-4.9L74.5,66.3z M59.3,66.8l-3.7,5l-11.8-4.4L59.3,66.8z M45.3,76.7l4.9,2.3l-6.8,9.2C43.8,84.2,44.5,80.4,45.3,76.7z M119.6,135.4c-23.6-3.4-47.1-6.8-70.4-7.4c-3.9-9.8-6.1-20.5-6.1-31.6c0-0.2,0-0.5,0-0.7l4.6,0.2h3.2l9.5-11.9l11,5.3l-5.3,7.3l12.4,0.5L102,77.3l5.9,6.6L84.3,97.1l19.7,0.8l12.2-4.7l4.6,5.1L119.6,135.4z M124.3,73.4l-1.5-6.5l5.6-2.5l0.2,9.2L124.3,73.4z M129.1,50.7l-8.1,5.9l-4.7-18.2l8.3-19.2l7.3,15.3L129.1,50.7z M201.6,144.3c-20.5-0.5-41-3-61.5-5.9c-4.3-18.3-2.3-37-2.3-37l31.4-7.8l4.4,6.5l8.3-0.4l-2.2-8.7l12.3-3.1c2.1,3.1,7.7,10.4,13.5,13.5l6.5-3.1c0,0-6.1-7.5-7.9-13.5l10.5-2.6c0.8,4.6,1.1,9.2,1.1,14C216,114,210.7,130.5,201.6,144.3z"/>
</svg>
