<?xml version="1.0" encoding="UTF-8" standalone="no"?>
<svg
   xmlns:dc="http://purl.org/dc/elements/1.1/"
   xmlns:cc="http://creativecommons.org/ns#"
   xmlns:rdf="http://www.w3.org/1999/02/22-rdf-syntax-ns#"
   xmlns:svg="http://www.w3.org/2000/svg"
   xmlns="http://www.w3.org/2000/svg"
   xmlns:sodipodi="http://sodipodi.sourceforge.net/DTD/sodipodi-0.dtd"
   xmlns:inkscape="http://www.inkscape.org/namespaces/inkscape"
   width="2426.4873"
   height="1590.4305"
   viewBox="0 0 187.088 122.62601"
   id="svg2"
   version="1.1"
   inkscape:version="0.91 r13725"
   sodipodi:docname="tommy-hilfiger-3.svg">
  <metadata
     id="metadata22">
    <rdf:RDF>
      <cc:Work
         rdf:about="">
        <dc:format>image/svg+xml</dc:format>
        <dc:type
           rdf:resource="http://purl.org/dc/dcmitype/StillImage" />
        <dc:title></dc:title>
      </cc:Work>
    </rdf:RDF>
  </metadata>
  <defs
     id="defs20" />
  <sodipodi:namedview
     pagecolor="#ffffff"
     bordercolor="#666666"
     borderopacity="1"
     objecttolerance="10"
     gridtolerance="10"
     guidetolerance="10"
     inkscape:pageopacity="0"
     inkscape:pageshadow="2"
     inkscape:window-width="1366"
     inkscape:window-height="723"
     id="namedview18"
     showgrid="false"
     fit-margin-top="0"
     fit-margin-left="0"
     fit-margin-right="0"
     fit-margin-bottom="0"
     inkscape:zoom="0.0944"
     inkscape:cx="217.48094"
     inkscape:cy="795.21485"
     inkscape:window-x="0"
     inkscape:window-y="23"
     inkscape:window-maximized="1"
     inkscape:current-layer="svg2" />
  <g
     id="g4"
     style="clip-rule:evenodd;fill-rule:evenodd"
     transform="translate(-2.834,-35.065)">
    <path
       d="m 189.906,157.691 0,-30.343 -187.072,0 0,30.343 187.072,0 z"
       id="path8"
       inkscape:connector-curvature="0"
       style="fill:#001c4e" />
    <path
       d="m 26.927,148.998 -0.991,0 0,-6.043 -8.512,0 0,6.043 -0.991,0 0,-12.758 0.991,0 0,5.893 8.512,0 0,-5.893 0.991,0 0,12.758 z m 16.743,0 -0.991,0 0,-12.758 0.991,0 0,12.758 z m 16.725,-0.824 6.304,0 0,0.824 -7.296,0 0,-12.758 0.992,0 0,11.934 z m 27.144,-11.112 -5.575,0 0,4.846 5.033,0 0,0.822 -5.033,0 0,6.268 -0.991,0 0,-12.758 6.566,0 0,0.822 z m 15.434,11.936 -0.993,0 0,-12.758 0.993,0 0,12.758 z m 26.414,-10.719 c -1.553,-0.879 -2.994,-1.291 -4.527,-1.291 -3.236,0 -5.631,2.395 -5.631,5.631 0,2.861 1.889,5.631 5.91,5.631 1.479,0 2.49,-0.281 3.5,-0.785 l 0,-3.443 -2.695,0 0,-0.822 3.686,0 0,4.883 c -1.516,0.729 -3.049,1.084 -4.527,1.084 -3.965,0 -6.939,-2.805 -6.939,-6.584 0,-3.742 2.9,-6.51 6.848,-6.51 1.439,0 2.58,0.279 4.377,1.084 l 0,1.122 -0.002,0 z m 22.56,-1.217 -5.967,0 0,5.108 5.817,0 0,0.822 -5.817,0 0,5.182 6.118,0 0,0.824 -7.11,0 0,-12.758 6.959,0 0,0.822 z m 15.994,0 2.076,0 c 2.34,0 3.367,1.049 3.367,2.488 0,1.535 -1.084,2.508 -3.33,2.508 l -2.113,0 0,-4.996 z m -0.99,-0.822 0,12.758 0.99,0 0,-6.117 1.721,0 c 1.535,0 2.021,0.205 3.555,2.619 l 2.227,3.498 1.16,0 -2.881,-4.414 c -0.6,-0.898 -1.105,-1.629 -1.703,-1.945 1.627,-0.6 2.432,-1.629 2.432,-3.105 0,-1.703 -1.104,-3.293 -4.227,-3.293 l -3.274,0 0,-0.001 z M 2.96,65.408 l 0,61.94 92.98,0 0,-61.94 -92.98,0 z"
       id="path10"
       inkscape:connector-curvature="0"
       style="fill:#ffffff" />
    <path
       d="m 95.94,127.348 93.966,0 0,5.888 0.016,0 0,-67.828 -93.982,0 0,61.94 z"
       id="path12"
       inkscape:connector-curvature="0"
       style="fill:#b81d37" />
    <path
       d="m 189.922,65.408 0,-30.343 -187.073,0 0,30.343 187.073,0 z"
       id="path14"
       inkscape:connector-curvature="0"
       style="fill:#001c4e" />
    <path
       d="m 26.856,45.345 -4.789,0 0,11.935 -0.992,0 0,-11.935 -4.789,0 0,-0.824 10.57,0 0,0.824 z M 62.868,50.9 c 0,3.18 -2.469,5.631 -5.668,5.631 -3.199,0 -5.706,-2.451 -5.706,-5.631 0,-3.18 2.506,-5.63 5.706,-5.63 3.198,0 5.668,2.45 5.668,5.63 z m 1.066,0 c 0,-3.667 -2.975,-6.547 -6.771,-6.547 -3.779,0 -6.735,2.881 -6.735,6.547 0,3.666 2.956,6.547 6.735,6.547 3.796,10e-4 6.771,-2.88 6.771,-6.547 z m 37.041,-6.379 0.992,0 0,12.759 -0.992,0 0,-11.319 -0.037,0 -4.827,5.968 -4.826,-5.968 -0.038,0 0,11.319 -0.992,0 0,-12.759 0.992,0 4.864,5.931 4.864,-5.931 z m 38.554,0 0.992,0 0,12.759 -0.992,0 0,-11.319 -0.037,0 -4.826,5.968 -4.826,-5.968 -0.037,0 0,11.319 -0.992,0 0,-12.759 0.992,0 4.863,5.931 4.863,-5.931 z m 32.346,5.912 0,6.847 -0.992,0 0,-6.847 -4.957,-5.912 1.197,0 4.266,5.051 4.246,-5.051 1.197,0 -4.957,5.912 z"
       id="path16"
       inkscape:connector-curvature="0"
       style="fill:#ffffff" />
  </g>
</svg>
