<?xml version="1.0" encoding="UTF-8" standalone="no"?>
<!-- Created with Inkscape (http://www.inkscape.org/) -->
<svg
   xmlns:svg="http://www.w3.org/2000/svg"
   xmlns="http://www.w3.org/2000/svg"
   version="1.0"
   width="791.42859"
   height="320"
   id="svg10142">
  <defs
     id="defs10144" />
  <g
     transform="translate(394.28571,-235.21933)"
     id="layer1">
    <path
       d="M 376.86331,262.87608 C 371.40598,275.67519 382.00473,295.95768 366.73295,299.93358 L -107.68361,298.34322 L -158.0195,299.38893 L -165.14343,310.28179 L -224.52038,535.53516 L -232.74449,539.27141 L -312.88323,537.86623 L -320.4102,522.23498 C -342.71876,430.39731 -367.81591,340.08464 -389.28572,248.3559 C -368.75269,245.66537 -344.83198,244.10769 -323.98305,248.49751 C -302.2518,315.58661 -292.37198,386.98928 -273.4402,456.45303 L -270.95663,458.4682 L -265.09627,451.84535 L -213.99788,251.48215 L -208.27914,246.6893 L 330.5251,247.56073 C 345.96027,252.37537 378.19223,236.55894 376.86331,262.87608"
       id="path69"
       style="fill:#231f20;fill-opacity:1;fill-rule:nonzero;stroke:none" />
    <path
       d="M 377.60402,349.39812 C 378.94384,364.47384 364.59795,378.29687 354.12991,387.0983 C 334.59902,378.42759 310.49313,360.54152 286.48528,373.47134 C 278.9801,379.10294 273.70796,389.21151 279.18707,397.54455 C 312.43206,422.41294 371.75456,408.86222 384.25955,459.30704 C 390.4358,481.0165 385.49045,508.78239 368.29063,524.16311 C 340.5792,550.01185 300.39546,555.48007 261.66046,544.33668 C 244.6676,536.75525 225.67046,531.65739 210.95421,518.04132 C 216.60761,502.60614 226.56368,489.404 237.24957,477.87936 C 258.8501,483.22775 277.67296,500.74347 304.36046,497.61722 C 313.18367,497.47561 324.28349,491.37561 328.64063,481.9424 C 331.78867,444.36204 283.79474,458.88222 261.71492,448.18544 C 239.25385,442.80436 221.50939,423.64383 217.08689,402.16312 C 212.74064,379.70205 218.96046,358.16687 236.10582,343.72295 C 276.25689,316.26206 339.41367,320.59741 377.60402,349.39812"
       id="path73"
       style="fill:#231f20;fill-opacity:1;fill-rule:nonzero;stroke:none" />
    <path
       d="M 194.22279,338.48322 C 195.82404,403.0125 195.55172,470.02535 193.72172,534.20606 C 172.92725,539.56534 149.51851,534.92499 127.49315,534.88142 C 109.70512,505.24195 98.812262,476.89874 78.409943,447.03053 C 75.828336,445.93035 74.6628,449.3725 72.854586,450.04785 L 71.177086,532.90981 C 57.288695,540.51302 37.659768,533.60695 21.549234,536.65695 L 18.009056,525.73142 C 18.662627,464.97107 16.277092,398.61179 21.18977,339.07143 C 39.184768,335.29161 59.489052,335.19358 79.684407,335.98876 L 85.53387,340.00822 L 130.78279,421.35607 L 137.06797,420.14696 C 135.51029,396.17179 140.72797,365.8134 139.40994,339.18036 C 154.96493,332.54661 177.62208,336.17394 194.22279,338.48322"
       id="path77"
       style="fill:#231f20;fill-opacity:1;fill-rule:nonzero;stroke:none" />
    <path
       d="M -81.912158,444.18767 C -83.284658,428.18606 -89.874836,412.7291 -96.573943,398.87339 C -105.64769,411.34571 -105.32091,429.01392 -109.24233,443.67571 C -101.8243,450.48374 -90.103586,447.12874 -81.912158,444.18767 M -33.929127,387.34875 L 2.354976,534.20623 C -13.145558,539.9032 -33.10127,535.61141 -50.736804,535.87284 C -59.440196,523.68373 -53.96109,500.35124 -74.003945,497.78052 C -92.641621,498.91338 -116.79108,491.62606 -129.4268,506.39677 L -138.1193,536.49373 C -155.0359,538.66141 -175.38376,538.79212 -190.89518,534.73998 C -173.89143,468.26088 -154.29519,402.90375 -133.88197,337.5575 C -108.70858,332.61215 -76.23698,334.46393 -50.14859,337.52482 L -33.929127,387.34875 z"
       id="path81"
       style="fill:#231f20;fill-opacity:1;fill-rule:nonzero;stroke:none" />
    <path
       d="M 385.8717,315.47751 C 385.46866,315.29233 384.89134,315.19429 384.12884,315.19429 L 383.4317,315.19429 L 383.4317,318.47304 L 384.56455,318.47304 C 385.27259,318.49483 385.80634,318.34233 386.18759,318.10269 C 386.57973,317.78679 386.7758,317.32929 386.7758,316.71929 C 386.7867,316.0984 386.45991,315.67358 385.8717,315.47751 M 380.55598,324.39876 L 380.55598,313.32072 C 381.26402,313.29894 382.27705,313.32072 383.66045,313.32072 C 385.03295,313.34251 385.80634,313.32072 385.92616,313.32072 C 386.84116,313.38608 387.57098,313.57126 388.13741,313.91983 C 389.12866,314.43179 389.60795,315.3359 389.60795,316.53412 C 389.60795,317.48179 389.3683,318.15715 388.84545,318.5384 C 388.33348,318.96322 387.7017,319.21376 386.9392,319.26822 C 387.64723,319.42072 388.1592,319.66037 388.51866,319.93269 C 389.17223,320.48822 389.54259,321.33787 389.5317,322.45983 L 389.54259,323.42929 C 389.5317,323.53822 389.57527,323.64715 389.5317,323.77787 C 389.5317,323.86501 389.57527,323.99572 389.57527,324.08286 L 389.65152,324.44233 L 386.90652,324.38786 C 386.81938,324.07197 386.75402,323.53822 386.73223,322.85197 C 386.72134,322.20929 386.65598,321.77358 386.53616,321.51215 C 386.38366,321.10912 386.10045,320.8259 385.73009,320.6734 C 385.49045,320.60804 385.15277,320.53179 384.69527,320.51001 L 384.06348,320.51001 L 383.4317,320.48822 L 383.4317,324.40965 L 380.55598,324.39876 z M 379.13991,313.09197 C 377.53866,314.68233 376.74348,316.61037 376.74348,318.87608 C 376.74348,321.14179 377.56045,323.12429 379.18348,324.75822 C 380.80652,326.37036 382.72366,327.16554 384.97848,327.13286 C 387.25509,327.17644 389.2267,326.32679 390.86063,324.71465 C 392.4292,323.09162 393.24616,321.12001 393.24616,318.87608 C 393.24616,316.61037 392.4292,314.68233 390.83884,313.10287 C 389.17223,311.41447 387.25509,310.58662 384.97848,310.58662 C 382.72366,310.58662 380.76295,311.41447 379.13991,313.09197 M 392.00438,326.04358 C 390.03277,327.91715 387.7017,328.88661 384.97848,328.86483 C 382.14634,328.83215 379.7717,327.88447 377.83277,325.96733 C 375.93741,324.03929 375.00063,321.63197 374.95706,318.83251 C 374.95706,315.91322 376.01366,313.47322 378.10509,311.55608 C 380.0658,309.7043 382.34241,308.82197 385.00027,308.7893 C 387.74527,308.7893 390.15259,309.76965 392.04795,311.71947 C 394.03045,313.72376 394.99991,316.06572 394.99991,318.83251 C 395.0108,321.68644 394.03045,324.11554 392.00438,326.04358"
       id="path85"
       style="fill:#231f20;fill-opacity:1;fill-rule:nonzero;stroke:none" />
  </g>
</svg>
