<?xml version="1.0" encoding="UTF-8" standalone="no"?>
<!-- Created with Inkscape (http://www.inkscape.org/) -->
<svg
   xmlns:dc="http://purl.org/dc/elements/1.1/"
   xmlns:cc="http://creativecommons.org/ns#"
   xmlns:rdf="http://www.w3.org/1999/02/22-rdf-syntax-ns#"
   xmlns:svg="http://www.w3.org/2000/svg"
   xmlns="http://www.w3.org/2000/svg"
   xmlns:sodipodi="http://sodipodi.sourceforge.net/DTD/sodipodi-0.dtd"
   xmlns:inkscape="http://www.inkscape.org/namespaces/inkscape"
   width="191.63684"
   height="28.499838"
   id="svg2"
   sodipodi:version="0.32"
   inkscape:version="0.46"
   version="1.0"
   sodipodi:docname="Victoria's Secret logo.svg"
   inkscape:output_extension="org.inkscape.output.svg.inkscape">
  <defs
     id="defs4">
    <inkscape:perspective
       sodipodi:type="inkscape:persp3d"
       inkscape:vp_x="0 : 526.18109 : 1"
       inkscape:vp_y="0 : 1000 : 0"
       inkscape:vp_z="744.09448 : 526.18109 : 1"
       inkscape:persp3d-origin="372.04724 : 350.78739 : 1"
       id="perspective10" />
    <inkscape:perspective
       id="perspective2390"
       inkscape:persp3d-origin="372.04724 : 350.78739 : 1"
       inkscape:vp_z="744.09448 : 526.18109 : 1"
       inkscape:vp_y="0 : 1000 : 0"
       inkscape:vp_x="0 : 526.18109 : 1"
       sodipodi:type="inkscape:persp3d" />
  </defs>
  <sodipodi:namedview
     id="base"
     pagecolor="#ffffff"
     bordercolor="#666666"
     borderopacity="1.0"
     gridtolerance="10000"
     guidetolerance="10"
     objecttolerance="10"
     inkscape:pageopacity="0.0"
     inkscape:pageshadow="2"
     inkscape:zoom="2.0350993"
     inkscape:cx="227.9987"
     inkscape:cy="37.038403"
     inkscape:document-units="px"
     inkscape:current-layer="layer1"
     showgrid="false"
     inkscape:window-width="1024"
     inkscape:window-height="721"
     inkscape:window-x="-4"
     inkscape:window-y="-4" />
  <metadata
     id="metadata7">
    <rdf:RDF>
      <cc:Work
         rdf:about="">
        <dc:format>image/svg+xml</dc:format>
        <dc:type
           rdf:resource="http://purl.org/dc/dcmitype/StillImage" />
      </cc:Work>
    </rdf:RDF>
  </metadata>
  <g
     inkscape:label="Layer 1"
     inkscape:groupmode="layer"
     id="layer1"
     transform="translate(-189.83491,-559.45854)">
    <path
       style="font-size:636.26794434px;font-style:normal;font-weight:normal;text-align:start;line-height:125%;text-anchor:start;opacity:1;fill:#333333;fill-opacity:1;fill-rule:nonzero;stroke:none;stroke-width:1px;stroke-linecap:butt;stroke-linejoin:miter;marker:none;marker-start:none;marker-mid:none;marker-end:none;stroke-miterlimit:4;stroke-dasharray:none;stroke-dashoffset:0;stroke-opacity:1;visibility:visible;display:inline;overflow:visible;enable-background:accumulate;font-family:Bitstream Vera Sans"
       d="M 213.13346,573.43884 C 213.13306,572.2246 213.13386,571.39285 213.13586,570.9436 C 213.13784,570.49438 213.14342,570.16311 213.15259,569.9498 C 213.16534,569.66819 213.21156,569.45926 213.29127,569.32301 C 213.37096,569.18678 213.52239,569.09702 213.74555,569.05371 C 213.83959,569.03545 213.91929,569.02433 213.98465,569.02034 C 214.04999,569.01638 214.11056,569.01479 214.16636,569.01558 C 214.19704,569.0136 214.22653,568.99851 214.25483,568.9703 C 214.28311,568.94211 214.29825,568.91271 214.30025,568.88211 C 214.30105,568.83486 214.28032,568.80071 214.23809,568.77964 C 214.19584,568.7586 214.1273,568.74827 214.03246,568.74865 C 213.74117,568.75024 213.40564,568.75658 213.02588,568.76769 C 212.64611,568.77882 212.42056,568.78517 212.34923,568.78675 C 212.27112,568.78517 212.04478,568.77882 211.6702,568.76769 C 211.29561,568.75658 210.9545,568.75022 210.64686,568.74862 C 210.55202,568.74825 210.48347,568.75859 210.44124,568.77963 C 210.39899,568.80071 210.37827,568.83486 210.37907,568.88211 C 210.37986,568.91271 210.39262,568.94211 210.41732,568.9703 C 210.44203,568.99851 210.47391,569.0136 210.51296,569.01558 C 210.57273,569.01559 210.64925,569.02035 210.74249,569.02988 C 210.83574,569.03942 210.93138,569.05372 211.02941,569.07277 C 211.20833,569.10814 211.33824,569.19473 211.41914,569.33255 C 211.50003,569.47038 211.54865,569.67614 211.56499,569.9498 C 211.58331,570.16311 211.59447,570.49438 211.59846,570.9436 C 211.60244,571.39285 211.60404,572.2246 211.60324,573.43884 L 211.60324,576.2987 C 211.60404,577.08716 211.59766,577.78385 211.58411,578.38879 C 211.57057,578.99373 211.54506,579.46641 211.5076,579.80681 C 211.48449,580.04632 211.44464,580.23936 211.38806,580.38593 C 211.33147,580.5325 211.22467,580.62545 211.06766,580.66477 C 210.98876,580.68463 210.90269,580.70211 210.80944,580.7172 C 210.71619,580.73229 210.63012,580.74024 210.55122,580.74103 C 210.50379,580.74302 210.46953,580.75811 210.4484,580.78631 C 210.42728,580.81452 210.41692,580.84391 210.41732,580.87449 C 210.42051,580.96664 210.50977,581.01113 210.68511,581.00795 C 210.97442,581.00557 211.30438,580.99604 211.67498,580.97935 C 212.04558,580.96267 212.27033,580.95314 212.34923,580.95075 C 212.4118,580.95314 212.65488,580.96267 213.07848,580.97935 C 213.50208,580.99604 213.96035,581.00557 214.45329,581.00795 C 214.54812,581.00716 214.61666,580.99444 214.6589,580.96982 C 214.70113,580.9452 214.72186,580.91342 214.72106,580.87449 C 214.72146,580.84391 214.7111,580.81452 214.68998,580.78631 C 214.66885,580.75811 214.63459,580.74301 214.58717,580.74103 C 214.50388,580.74024 214.38832,580.73229 214.24048,580.7172 C 214.09263,580.70211 213.95316,580.68463 213.82206,580.66477 C 213.58256,580.62545 213.42555,580.5325 213.35104,580.38593 C 213.27652,580.23936 213.2295,580.04632 213.20997,579.80681 C 213.17331,579.46641 213.15099,578.99373 213.14302,578.38879 C 213.13505,577.78385 213.13186,577.08716 213.13346,576.2987 L 213.13346,573.43884 z M 236.05999,569.49222 L 238.16405,569.53035 C 238.94787,569.5534 239.47947,569.64555 239.75882,569.80681 C 240.03816,569.96808 240.18241,570.17463 240.19159,570.42644 L 240.21071,570.59804 C 240.21987,570.71006 240.23501,570.78632 240.25614,570.82682 C 240.27725,570.86735 240.30674,570.88641 240.34461,570.88402 C 240.38445,570.88364 240.41951,570.86536 240.44981,570.82921 C 240.48008,570.79307 240.49603,570.74144 240.49763,570.6743 C 240.50001,570.54482 240.50957,570.27472 240.52632,569.864 C 240.54305,569.45331 240.55261,569.10694 240.55501,568.82492 C 240.55659,568.77528 240.55341,568.73159 240.54545,568.69384 C 240.53747,568.65612 240.51515,568.63625 240.4785,568.63426 C 240.44063,568.63506 240.38245,568.64301 240.30396,568.65809 C 240.22545,568.6732 240.12423,568.69067 240.00031,568.71052 C 239.8676,568.7304 239.70262,568.74787 239.50538,568.76295 C 239.30811,568.77806 239.07141,568.78601 238.79526,568.78679 L 232.44485,568.78679 C 232.33606,568.7872 232.15196,568.78163 231.89254,568.7701 C 231.63312,568.7586 231.37728,568.73874 231.12504,568.71052 C 230.90028,568.67757 230.73292,568.63864 230.62294,568.59374 C 230.51295,568.54887 230.43166,568.52425 230.37905,568.51986 C 230.34917,568.52663 230.31808,568.56555 230.28581,568.63664 C 230.25353,568.70776 230.22723,568.77051 230.20691,568.82492 C 230.1834,568.94568 230.12043,569.23326 230.01802,569.68765 C 229.9156,570.14205 229.85743,570.43917 229.84348,570.57897 C 229.84587,570.62625 229.86021,570.66041 229.88652,570.68144 C 229.91282,570.70251 229.93673,570.71284 229.95825,570.71243 C 229.9965,570.71443 230.02997,570.70569 230.05867,570.68622 C 230.08736,570.66676 230.11127,570.62466 230.13039,570.55991 C 230.1547,570.50629 230.1826,570.44194 230.21408,570.36686 C 230.24556,570.2918 230.30693,570.18456 230.39818,570.04512 C 230.51215,569.85805 230.69546,569.72698 230.94811,569.65189 C 231.20075,569.57683 231.5849,569.53632 232.10055,569.53035 L 234.52978,569.49222 L 234.52978,576.2987 C 234.53137,577.08716 234.52818,577.78385 234.52021,578.38879 C 234.51224,578.99373 234.48992,579.46641 234.45327,579.80681 C 234.42895,580.04712 234.38193,580.24334 234.3122,580.39546 C 234.24245,580.54759 234.1237,580.64372 233.95594,580.68384 C 233.87783,580.70369 233.79495,580.72117 233.70728,580.73626 C 233.61961,580.75136 233.53672,580.7593 233.45862,580.7601 C 233.4112,580.76129 233.37693,580.7732 233.35581,580.79584 C 233.33469,580.81848 233.32433,580.8447 233.32473,580.87449 C 233.32393,580.92176 233.34465,580.95592 233.38689,580.97697 C 233.42913,580.99802 233.49767,581.00835 233.59251,581.00795 C 233.87784,581.00557 234.22055,580.99604 234.62064,580.97935 C 235.02073,580.96267 235.25823,580.95314 235.33316,580.95075 C 235.40448,580.95314 235.64916,580.96267 236.06718,580.97935 C 236.4852,580.99604 236.9355,581.00557 237.41809,581.00795 C 237.51291,581.00716 237.58144,580.99444 237.62369,580.96982 C 237.66592,580.9452 237.68664,580.91342 237.68585,580.87449 C 237.68744,580.84391 237.67947,580.81452 237.66194,580.78631 C 237.6444,580.75811 237.60774,580.74301 237.55196,580.74103 C 237.46747,580.74024 237.34952,580.73229 237.19809,580.7172 C 237.04666,580.70211 236.90958,580.68463 236.78685,580.66477 C 236.53738,580.62545 236.37161,580.5325 236.28953,580.38593 C 236.20743,580.23936 236.15642,580.04632 236.13651,579.80681 C 236.09984,579.46641 236.07752,578.99373 236.06956,578.38879 C 236.06158,577.78385 236.05839,577.08716 236.05999,576.2987 L 236.05999,569.49222 z M 241.81534,574.8497 C 241.81121,575.84666 242.03838,576.82914 242.49686,577.79713 C 242.95533,578.76514 243.66991,579.57108 244.64058,580.21496 C 245.61125,580.85884 246.86282,581.19308 248.39528,581.21768 C 250.45071,581.16842 252.08294,580.51859 253.29199,579.2682 C 254.501,578.0178 255.11947,576.46236 255.14738,574.60185 C 255.10671,572.69687 254.47072,571.21133 253.23938,570.14522 C 252.00802,569.07914 250.4252,568.53736 248.49092,568.51986 C 246.94523,568.54965 245.67973,568.9032 244.69442,569.58049 C 243.7091,570.2578 242.98201,571.08022 242.51315,572.04774 C 242.04428,573.01528 241.81168,573.94927 241.81534,574.8497 L 241.81534,574.8497 z M 243.55597,574.41119 C 243.58187,572.64801 244.03695,571.32691 244.92121,570.44789 C 245.80546,569.56889 246.96349,569.12958 248.39528,569.12997 C 249.76809,569.13396 250.93887,569.63602 251.90761,570.63617 C 252.87634,571.63634 253.38243,573.11075 253.42588,575.05943 C 253.39765,576.60376 253.11616,577.77313 252.58143,578.56753 C 252.04666,579.36195 251.42797,579.89578 250.72533,580.16906 C 250.02267,580.44234 249.40539,580.56944 248.87348,580.55037 C 247.32133,580.53051 246.05492,579.9792 245.07423,578.89642 C 244.09353,577.81364 243.58745,576.31857 243.55597,574.41119 L 243.55597,574.41119 z M 258.56394,576.2987 C 258.56593,577.08716 258.56194,577.78385 258.55199,578.38879 C 258.54202,578.99373 258.51412,579.46641 258.4683,579.80681 C 258.43682,580.04632 258.39458,580.23936 258.34158,580.38593 C 258.28858,580.5325 258.18417,580.62545 258.02836,580.66477 C 257.94946,580.68463 257.86338,580.70211 257.77014,580.7172 C 257.67689,580.73229 257.59081,580.74024 257.51191,580.74103 C 257.46449,580.74302 257.43022,580.75811 257.4091,580.78631 C 257.38798,580.81452 257.37762,580.84391 257.37802,580.87449 C 257.38121,580.96664 257.47047,581.01113 257.64581,581.00795 C 257.9399,581.00557 258.27942,580.99604 258.66437,580.97935 C 259.04931,580.96267 259.2645,580.95314 259.30993,580.95075 C 259.37209,580.95314 259.61119,580.96267 260.02722,580.97935 C 260.44325,580.99604 260.89275,581.00557 261.37573,581.00795 C 261.47056,581.00716 261.5391,580.99444 261.58134,580.96982 C 261.62357,580.9452 261.64429,580.91342 261.64351,580.87449 C 261.64509,580.84391 261.63712,580.81452 261.6196,580.78631 C 261.60205,580.75811 261.56539,580.74301 261.50961,580.74103 C 261.42592,580.74024 261.31116,580.73229 261.16531,580.7172 C 261.01946,580.70211 260.88556,580.68463 260.76363,580.66477 C 260.51337,580.62545 260.34441,580.5325 260.25674,580.38593 C 260.16907,580.23936 260.11487,580.04632 260.09416,579.80681 C 260.05749,579.4672 260.03518,578.99771 260.02721,578.39832 C 260.01924,577.79895 260.01605,577.10543 260.01765,576.31777 L 260.01765,575.93646 C 260.01764,575.84431 260.0559,575.79982 260.13241,575.80299 L 261.5877,575.84112 C 261.64268,575.84034 261.68572,575.84669 261.71681,575.86019 C 261.74789,575.8737 261.78136,575.89912 261.81723,575.93646 C 262.0077,576.172 262.26752,576.51121 262.59669,576.95409 C 262.92584,577.39698 263.27173,577.84582 263.63437,578.30061 C 264.10298,578.90992 264.51423,579.41198 264.8681,579.80681 C 265.22195,580.20163 265.57582,580.49397 265.92969,580.68384 C 266.12893,580.79744 266.36165,580.88005 266.62785,580.93169 C 266.89404,580.98333 267.26065,581.00874 267.7277,581.00795 L 268.77972,581.00795 C 268.93034,581.00835 269.03554,580.99802 269.09533,580.97697 C 269.1551,580.95592 269.18378,580.92176 269.18141,580.87449 C 269.181,580.84391 269.16745,580.81452 269.14076,580.78631 C 269.11405,580.75811 269.07659,580.74301 269.02839,580.74103 C 268.98215,580.74222 268.91201,580.73984 268.81798,580.73388 C 268.72392,580.72792 268.59641,580.71124 268.43543,580.68384 C 268.22939,580.66914 267.97675,580.5889 267.67749,580.44313 C 267.37821,580.29736 267.00602,580.00263 266.56091,579.55895 C 266.07354,579.04934 265.53717,578.43844 264.95179,577.72625 C 264.36639,577.01407 263.7296,576.22681 263.0414,575.36448 C 263.81368,574.70155 265.04106,574.06841 265.34951,573.46505 C 265.65793,572.86171 265.80617,572.26193 265.79422,571.66572 C 265.7719,571.10051 265.63003,570.62942 265.36863,570.25247 C 265.10721,569.87553 264.86014,569.60941 264.62743,569.45409 C 264.17872,569.15779 263.6798,568.96395 263.13069,568.87258 C 262.58155,568.78124 262.03482,568.73993 261.49048,568.74865 C 261.18763,568.75024 260.79392,568.75658 260.30936,568.76769 C 259.82478,568.77882 259.51715,568.78517 259.38644,568.78675 C 259.30953,568.78517 259.06167,568.77882 258.64285,568.76769 C 258.22403,568.75658 257.80879,568.75022 257.39715,568.74862 C 257.3023,568.74825 257.23376,568.75859 257.19152,568.77963 C 257.14928,568.80071 257.12856,568.83486 257.12936,568.88211 C 257.13135,568.91271 257.14649,568.94211 257.17479,568.9703 C 257.20308,568.99851 257.23257,569.0136 257.26325,569.01558 C 257.34574,569.01599 257.44377,569.01995 257.55734,569.02749 C 257.67091,569.03505 257.76416,569.04379 257.83708,569.05371 C 258.10606,569.08986 258.28539,569.17963 258.37505,569.32301 C 258.46471,569.46641 258.51492,569.67535 258.52568,569.9498 C 258.54401,570.16311 258.55517,570.49438 258.55916,570.9436 C 258.56314,571.39285 258.56473,572.2246 258.56394,573.43884 L 258.56394,576.2987 z M 260.01765,569.60662 C 260.01844,569.55936 260.03119,569.52043 260.0559,569.48984 C 260.0806,569.45926 260.11248,569.43464 260.15154,569.41596 C 260.24598,569.39532 260.40617,569.37466 260.63212,569.35399 C 260.85807,569.33335 261.09955,569.32223 261.35659,569.32062 C 262.26435,569.327 262.97367,569.60504 263.48455,570.15475 C 263.99541,570.70449 264.25523,571.48778 264.264,572.50461 C 264.25762,573.12624 264.16039,573.64658 263.97231,574.06562 C 263.78421,574.48468 262.85649,574.79052 262.56321,574.98316 C 262.35997,575.11186 262.14957,575.19289 261.932,575.22626 C 261.56892,575.31316 261.22382,575.25584 260.87361,575.19527 C 260.51895,575.14801 260.27188,575.09002 260.13241,575.0213 C 260.09415,574.9935 260.06546,574.96331 260.04634,574.93073 C 260.02721,574.89817 260.01764,574.85845 260.01765,574.81157 L 260.01765,569.60662 z M 273.28929,573.43884 C 273.28888,572.2246 273.28968,571.39285 273.29168,570.9436 C 273.29366,570.49438 273.29924,570.16311 273.30841,569.9498 C 273.32116,569.66819 273.36739,569.45926 273.44709,569.32301 C 273.52678,569.18678 273.67821,569.09702 273.90137,569.05371 C 273.99541,569.03545 274.07511,569.02433 274.14047,569.02034 C 274.20582,569.01638 274.26639,569.01479 274.32218,569.01558 C 274.35286,569.0136 274.38235,568.99851 274.41065,568.9703 C 274.43894,568.94211 274.45408,568.91271 274.45608,568.88211 C 274.45687,568.83486 274.43615,568.80071 274.39391,568.77964 C 274.35167,568.7586 274.28313,568.74827 274.18829,568.74865 C 273.89699,568.75024 273.56146,568.75658 273.1817,568.76769 C 272.80193,568.77882 272.57638,568.78517 272.50506,568.78675 C 272.42695,568.78517 272.20061,568.77882 271.82602,568.76769 C 271.45143,568.75658 271.11032,568.75022 270.80269,568.74862 C 270.70784,568.74825 270.63929,568.75859 270.59706,568.77963 C 270.55481,568.80071 270.53409,568.83486 270.53489,568.88211 C 270.53569,568.91271 270.54844,568.94211 270.57315,568.9703 C 270.59785,568.99851 270.62973,569.0136 270.66878,569.01558 C 270.72856,569.01559 270.80507,569.02035 270.89832,569.02988 C 270.99157,569.03942 271.0872,569.05372 271.18523,569.07277 C 271.36416,569.10814 271.49406,569.19473 271.57496,569.33255 C 271.65585,569.47038 271.70447,569.67614 271.72081,569.9498 C 271.73914,570.16311 271.75029,570.49438 271.75429,570.9436 C 271.75826,571.39285 271.75986,572.2246 271.75907,573.43884 L 271.75907,576.2987 C 271.75986,577.08716 271.75349,577.78385 271.73994,578.38879 C 271.72639,578.99373 271.70088,579.46641 271.66343,579.80681 C 271.64031,580.04632 271.60046,580.23936 271.54388,580.38593 C 271.48729,580.5325 271.3805,580.62545 271.22349,580.66477 C 271.14458,580.68463 271.05851,580.70211 270.96527,580.7172 C 270.87201,580.73229 270.78594,580.74024 270.70704,580.74103 C 270.65962,580.74302 270.62535,580.75811 270.60423,580.78631 C 270.58311,580.81452 270.57274,580.84391 270.57315,580.87449 C 270.57633,580.96664 270.6656,581.01113 270.84094,581.00795 C 271.13024,581.00557 271.4602,580.99604 271.8308,580.97935 C 272.2014,580.96267 272.42615,580.95314 272.50506,580.95075 C 272.56762,580.95314 272.8107,580.96267 273.23431,580.97935 C 273.6579,580.99604 274.11617,581.00557 274.60912,581.00795 C 274.70394,581.00716 274.77248,580.99444 274.81472,580.96982 C 274.85696,580.9452 274.87768,580.91342 274.87689,580.87449 C 274.87728,580.84391 274.86692,580.81452 274.84581,580.78631 C 274.82468,580.75811 274.79041,580.74301 274.743,580.74103 C 274.6597,580.74024 274.54414,580.73229 274.3963,580.7172 C 274.24845,580.70211 274.10898,580.68463 273.97788,580.66477 C 273.73838,580.62545 273.58137,580.5325 273.50686,580.38593 C 273.43234,580.23936 273.38532,580.04632 273.3658,579.80681 C 273.32913,579.46641 273.30681,578.99373 273.29885,578.38879 C 273.29087,577.78385 273.28769,577.08716 273.28929,576.2987 L 273.28929,573.43884 z M 278.74266,579.21577 C 278.58924,579.63045 278.40833,579.96886 278.19992,580.23102 C 277.9915,580.49318 277.7006,580.65047 277.32721,580.7029 C 277.25509,580.71283 277.16981,580.72157 277.07138,580.72912 C 276.97295,580.73666 276.89245,580.74063 276.82989,580.74103 C 276.79004,580.74182 276.75498,580.75454 276.72469,580.77916 C 276.69441,580.80378 276.67847,580.83556 276.67687,580.87449 C 276.68006,580.96664 276.78845,581.01113 277.00204,581.00795 C 277.36348,581.00557 277.71176,580.99604 278.0469,580.97935 C 278.38203,580.96267 278.6012,580.95314 278.70441,580.95075 C 278.82596,580.95314 279.0515,580.96267 279.38106,580.97935 C 279.71061,580.99604 279.98876,581.00557 280.21551,581.00795 C 280.29281,581.00835 280.35338,580.99802 280.39722,580.97697 C 280.44105,580.95592 280.46336,580.92176 280.46416,580.87449 C 280.46535,580.83556 280.4534,580.80378 280.4283,580.77916 C 280.40319,580.75454 280.35776,580.74182 280.29201,580.74103 L 280.13899,580.74103 C 279.98955,580.74301 279.85805,580.71045 279.74448,580.64332 C 279.63091,580.57619 279.57113,580.46259 279.56516,580.30252 C 279.56595,580.15714 279.58827,579.99031 279.6321,579.80204 C 279.67594,579.61377 279.73651,579.41834 279.81382,579.21577 L 280.77021,576.62283 C 280.80846,576.53068 280.86584,576.48619 280.94235,576.48936 L 284.82529,576.48936 C 284.87111,576.48857 284.90378,576.49493 284.92332,576.50843 C 284.94283,576.52193 284.96117,576.54736 284.97831,576.58469 L 286.4894,580.30252 C 286.5392,580.43518 286.54,580.53687 286.49179,580.60757 C 286.44356,580.67827 286.39176,580.72276 286.33638,580.74103 C 286.29811,580.75771 286.26942,580.77201 286.2503,580.78393 C 286.23116,580.79584 286.2216,580.81968 286.22161,580.85542 C 286.22599,580.90071 286.28416,580.9293 286.39615,580.94122 C 286.50812,580.95314 286.64759,580.96267 286.81457,580.96982 C 287.42027,580.98809 287.97817,580.99921 288.48825,581.00318 C 288.99831,581.00716 289.32667,581.00874 289.47333,581.00795 C 289.57294,581.00835 289.66061,580.99802 289.73633,580.97697 C 289.81203,580.95592 289.85188,580.92176 289.85588,580.87449 C 289.85308,580.82723 289.82996,580.79307 289.78654,580.77201 C 289.74309,580.75096 289.69607,580.74063 289.64548,580.74103 C 289.55779,580.74182 289.45578,580.73547 289.33943,580.72197 C 289.22306,580.70846 289.10192,580.68304 288.97601,580.6457 C 288.79548,580.61234 288.58746,580.48364 288.35196,580.25962 C 288.11644,580.0356 287.84626,579.57325 287.54143,578.87259 C 287.27263,578.23105 286.93152,577.40497 286.51809,576.39433 C 286.10464,575.3837 285.68224,574.34849 285.25088,573.28869 C 284.8195,572.22891 284.44253,571.30452 284.11995,570.51552 C 283.79736,569.72653 283.59254,569.23291 283.50547,569.03464 C 283.42418,568.85154 283.35723,568.70776 283.30463,568.60328 C 283.25202,568.49882 283.18508,568.4456 283.10379,568.4436 C 283.04999,568.43647 282.99499,568.4746 282.93881,568.55799 C 282.88262,568.64142 282.80372,568.81301 282.70211,569.07277 L 278.74266,579.21577 z M 281.17189,575.82206 C 281.1145,575.82206 281.09537,575.78393 281.11451,575.70767 L 282.68298,571.26534 C 282.77861,571.01749 282.87425,571.01749 282.96989,571.26534 L 284.63401,575.70767 C 284.64476,575.7458 284.64715,575.7744 284.64118,575.79346 C 284.6352,575.81253 284.61368,575.82206 284.57663,575.82206 L 281.17189,575.82206 z M 296.40443,581.21768 C 296.87346,581.22245 297.34607,581.18431 297.82227,581.10328 C 298.29847,581.02225 298.71848,580.86972 299.08231,580.6457 C 299.67487,580.2481 300.08691,579.8088 300.31845,579.32778 C 300.54996,578.84677 300.66074,578.36456 300.65079,577.88116 C 300.66393,577.19639 300.4607,576.54497 300.04109,575.92692 C 299.62147,575.30887 298.90657,574.65746 297.8964,573.97268 L 297.4182,573.64856 C 296.59929,573.10638 296.02785,572.63689 295.70388,572.24008 C 295.3799,571.84328 295.22449,571.39762 295.23764,570.90309 C 295.25437,570.32953 295.47434,569.8942 295.89755,569.59708 C 296.32074,569.29999 296.84675,569.15064 297.47559,569.14904 C 298.22036,569.17049 298.75833,569.28013 299.08949,569.47792 C 299.42063,569.67574 299.60952,569.83303 299.65615,569.9498 C 299.70715,570.04633 299.75816,570.17741 299.80917,570.34303 C 299.86017,570.50868 299.89205,570.64452 299.90481,570.75057 C 299.91237,570.8177 299.92592,570.86933 299.94546,570.90547 C 299.96497,570.94163 300.00243,570.9599 300.05783,570.96029 C 300.11361,570.96069 300.15027,570.9313 300.16781,570.8721 C 300.18534,570.81293 300.19331,570.72157 300.19172,570.59804 C 300.1949,570.04752 300.20766,569.63284 300.22998,569.35399 C 300.25229,569.07517 300.26504,568.91788 300.26823,568.88211 C 300.26942,568.83565 300.25747,568.80467 300.23237,568.78917 C 300.20726,568.77369 300.16183,568.76654 300.09608,568.76772 C 300.03311,568.76932 299.9582,568.76614 299.87133,568.75819 C 299.78445,568.75026 299.66172,568.72801 299.50312,568.69146 C 299.2967,568.64182 299.04007,568.59812 298.73323,568.56038 C 298.42639,568.52266 298.10281,568.5028 297.7625,568.5008 C 296.63635,568.50876 295.73735,568.77886 295.06549,569.3111 C 294.39363,569.84336 294.04933,570.5901 294.03259,571.55132 C 294.01944,572.10344 294.19398,572.65318 294.55621,573.20051 C 294.91844,573.74787 295.54727,574.3548 296.44269,575.0213 L 297.2078,575.59327 C 297.94899,576.12195 298.48935,576.58509 298.82887,576.98269 C 299.16838,577.3803 299.33575,577.85773 299.33097,578.41501 C 299.32977,579.03861 299.11698,579.55021 298.69259,579.9498 C 298.26819,580.34938 297.63936,580.55593 296.80611,580.56944 C 296.21833,580.57659 295.66761,580.45743 295.15396,580.21196 C 294.64029,579.96648 294.30476,579.5518 294.14736,578.96791 C 294.11986,578.85153 294.10312,578.74111 294.09715,578.63664 C 294.09117,578.53218 294.08878,578.44559 294.08997,578.37687 C 294.08678,578.24659 294.03578,578.18304 293.93695,578.18622 C 293.8445,578.18939 293.79987,578.27837 293.80306,578.45314 C 293.7907,578.59136 293.77237,578.81062 293.74807,579.1109 C 293.72376,579.41119 293.71021,579.76391 293.70742,580.16906 C 293.70343,580.37917 293.71619,580.52138 293.74568,580.59565 C 293.77516,580.66993 293.8453,580.7311 293.95608,580.77916 C 294.31034,580.93924 294.70644,581.05283 295.14439,581.11996 C 295.58233,581.18709 296.00234,581.21966 296.40443,581.21768 L 296.40443,581.21768 z M 313.46351,581.27487 C 313.98434,581.27726 314.49202,581.21529 314.98656,581.08898 C 315.48108,580.96267 315.93616,580.75771 316.3518,580.47411 C 316.99696,579.98237 317.43291,579.43582 317.65966,578.83446 C 317.88639,578.23309 317.99239,577.72467 317.97766,577.30919 C 318.00236,576.56603 317.81905,575.85027 317.42774,575.16191 C 317.03641,574.47356 316.28883,573.69584 315.18501,572.82873 L 314.64944,572.40929 C 313.74883,571.71816 313.13037,571.14142 312.79404,570.67906 C 312.45771,570.21673 312.29831,569.72579 312.31585,569.20623 C 312.33139,568.50518 312.55853,567.9626 312.99727,567.57849 C 313.43601,567.19441 313.99311,566.99978 314.66856,566.9946 C 315.5309,567.02361 316.13501,567.16581 316.48091,567.4212 C 316.8268,567.67661 317.01967,567.87124 317.05953,568.00509 C 317.1189,568.12228 317.17229,568.27878 317.21972,568.47459 C 317.26714,568.67042 317.29663,568.83168 317.30819,568.95838 C 317.31575,569.03545 317.3293,569.09583 317.34883,569.13951 C 317.36835,569.18321 317.40581,569.20545 317.46121,569.20623 C 317.50862,569.20704 317.54289,569.17209 317.56402,569.10138 C 317.58513,569.03068 317.59549,568.91946 317.5951,568.76772 C 317.59828,568.12228 317.61104,567.6353 317.63336,567.3068 C 317.65567,566.97833 317.66842,566.79165 317.67162,566.74675 C 317.6732,566.6995 317.66045,566.66533 317.63336,566.64427 C 317.60625,566.62323 317.55525,566.61291 317.48034,566.61329 C 317.4082,566.6141 317.32292,566.60774 317.2245,566.59422 C 317.12607,566.58073 316.98819,566.55531 316.81087,566.51796 C 316.57415,566.45998 316.31115,566.41391 316.02185,566.37973 C 315.73253,566.34559 315.40258,566.32811 315.03199,566.3273 C 313.80422,566.34281 312.84066,566.65977 312.14131,567.27821 C 311.44195,567.89667 311.0857,568.72364 311.07255,569.75914 C 311.04943,570.39507 311.21042,571.03934 311.55552,571.69193 C 311.90062,572.34454 312.56849,573.07937 313.55915,573.89642 L 314.4199,574.60185 C 315.23123,575.25486 315.80347,575.8316 316.13662,576.33207 C 316.46975,576.83255 316.63074,577.39976 316.61959,578.03369 C 316.62038,578.6732 316.39403,579.24834 315.94055,579.75914 C 315.48706,580.26995 314.80165,580.54004 313.88432,580.56944 C 313.22361,580.57659 312.62747,580.42883 312.09588,580.12616 C 311.56428,579.82349 311.2168,579.32301 311.05342,578.62473 C 311.02592,578.48928 311.00918,578.3598 311.00321,578.23626 C 310.99723,578.11274 310.99484,578.00709 310.99604,577.9193 C 310.99763,577.84382 310.98966,577.78981 310.97213,577.75723 C 310.95459,577.72467 310.91793,577.70878 310.86214,577.70957 C 310.81512,577.70918 310.78005,577.7338 310.75694,577.78345 C 310.73382,577.83311 310.71788,577.91016 310.70912,578.01463 C 310.69677,578.17271 310.67843,578.42851 310.65412,578.78202 C 310.62982,579.13554 310.61627,579.5534 310.61348,580.0356 C 310.6087,580.28266 310.62304,580.45107 310.65652,580.54084 C 310.68999,580.63061 310.77128,580.70369 310.9004,580.7601 C 311.29411,580.94837 311.70695,581.08183 312.13892,581.16048 C 312.57088,581.23913 313.01241,581.27726 313.46351,581.27487 L 313.46351,581.27487 z M 322.84144,576.2987 C 322.84343,577.08716 322.83945,577.78385 322.82949,578.38879 C 322.81952,578.99373 322.79163,579.46641 322.74581,579.80681 C 322.71432,580.04751 322.67208,580.24294 322.61908,580.39308 C 322.56608,580.54322 322.46167,580.63378 322.30587,580.66477 C 322.22696,580.67629 322.14089,580.69138 322.04764,580.71005 C 321.95439,580.72872 321.86832,580.73905 321.78942,580.74103 C 321.74199,580.74302 321.70772,580.75811 321.68661,580.78631 C 321.66548,580.81452 321.65512,580.84391 321.65552,580.87449 C 321.65871,580.96664 321.74797,581.01113 321.92331,581.00795 C 322.06079,581.00756 322.2162,581.00358 322.38955,580.99604 C 322.56289,580.98849 322.73265,580.97975 322.89882,580.96982 C 323.08572,580.96069 323.24751,580.95512 323.38419,580.95314 C 323.52087,580.95115 323.60137,580.95035 323.62568,580.95075 C 323.74841,580.94996 323.92375,580.95155 324.15169,580.95552 C 324.37963,580.9595 324.66973,580.97061 325.02201,580.98889 C 325.3663,580.99961 325.78232,581.01153 326.27009,581.02463 C 326.75784,581.03774 327.72772,581.04489 328.35894,581.04608 C 328.67534,581.05483 328.89849,581.03734 329.02841,580.99365 C 329.15831,580.94996 329.24757,580.82762 329.2962,580.62663 C 329.3476,580.4185 329.39781,580.12934 329.44683,579.75914 C 329.49584,579.38895 329.52214,579.15698 329.52573,579.06325 C 329.52693,579.00287 329.51977,578.94725 329.50424,578.89641 C 329.48869,578.84557 329.45761,578.81856 329.41099,578.81538 C 329.36436,578.8138 329.32849,578.83127 329.3034,578.86781 C 329.27828,578.90436 329.25676,578.9695 329.23884,579.06324 C 329.19259,579.3818 329.10811,579.62648 328.98538,579.79727 C 328.86263,579.96807 328.69208,580.09835 328.47371,580.18813 C 328.23859,580.27035 327.54765,580.32039 327.2217,580.33827 C 326.89572,580.35614 326.61518,580.36329 326.38007,580.35972 C 325.57072,580.37362 325.03276,580.29338 324.76617,580.11901 C 324.49957,579.94464 324.36807,579.59272 324.37166,579.06325 C 324.36329,578.84081 324.3609,578.40865 324.36449,577.76677 C 324.36807,577.12489 324.37046,576.63553 324.37166,576.2987 L 324.37166,574.94503 C 324.37046,574.91525 324.37763,574.88903 324.39318,574.86639 C 324.40872,574.84375 324.4398,574.83184 324.48643,574.83064 C 324.68925,574.83025 325.09173,574.83581 325.69386,574.84732 C 326.29599,574.85885 326.7415,574.8787 327.03042,574.9069 C 327.34721,574.94663 327.56479,575.01018 327.68315,575.09756 C 327.8015,575.18495 327.87083,575.28663 327.89116,575.40261 C 327.92782,575.50708 327.95013,575.6032 327.95811,575.69098 C 327.96607,575.77877 327.96926,575.86059 327.96768,575.93646 C 327.96767,576.03496 328.00592,576.08581 328.08244,576.08898 C 328.13902,576.08462 328.17887,576.05045 328.20199,575.9865 C 328.22509,575.92256 328.23625,575.85503 328.23547,575.78393 C 328.23625,575.71045 328.24422,575.5619 328.25938,575.33826 C 328.27451,575.11465 328.29204,574.91366 328.31197,574.73531 C 328.33428,574.47038 328.36138,574.26622 328.39327,574.12282 C 328.42514,573.97944 328.44267,573.8849 328.44587,573.83922 C 328.44267,573.74707 328.41079,573.70259 328.35023,573.70576 C 328.32193,573.70735 328.28766,573.72801 328.24742,573.76773 C 328.20716,573.80745 328.15855,573.8567 328.10157,573.91548 C 328.01708,573.99771 327.90869,574.05252 327.7764,574.07992 C 327.64409,574.10733 327.47832,574.12878 327.27908,574.14427 C 327.12782,574.15675 326.84374,574.1657 326.42683,574.1711 C 326.00991,574.17653 325.60256,574.17982 325.20478,574.18099 C 324.80699,574.18217 324.56116,574.18264 324.4673,574.1824 C 324.42147,574.18241 324.39357,574.16811 324.38362,574.1395 C 324.37365,574.11091 324.36966,574.06801 324.37166,574.01081 L 324.37166,569.60662 C 324.37086,569.54943 324.37723,569.50653 324.39079,569.47792 C 324.40433,569.44933 324.42984,569.43504 324.4673,569.43502 C 324.55219,569.43504 324.76921,569.43716 325.11835,569.44138 C 325.46749,569.44562 325.82194,569.45198 326.18171,569.46044 C 326.54147,569.46893 326.77974,569.47952 326.89652,569.49222 C 327.34123,569.54625 328.05289,569.6098 328.2107,569.68288 C 328.3685,569.75597 328.46892,569.85766 328.51196,569.98793 C 328.54941,570.08803 328.57492,570.1929 328.58847,570.30252 C 328.60201,570.41216 328.60839,570.49795 328.6076,570.55991 C 328.6044,570.69655 328.64904,570.76646 328.7415,570.76963 C 328.78014,570.76725 328.81282,570.74819 328.83953,570.71243 C 328.86622,570.67669 328.88454,570.63856 328.89452,570.59804 C 328.91403,570.47968 328.93237,570.29697 328.94951,570.04989 C 328.96664,569.80284 328.98019,569.62967 328.99016,569.53035 C 329.01246,569.30555 329.03956,569.13554 329.07145,569.02034 C 329.10332,568.90517 329.12085,568.82096 329.12405,568.76772 C 329.12444,568.72801 329.11886,568.69306 329.10731,568.66286 C 329.09575,568.63269 329.07582,568.6168 329.04754,568.61519 C 329.00928,568.61719 328.97102,568.62752 328.93277,568.64618 C 328.89451,568.66486 328.85625,568.67995 328.81801,568.69146 C 328.74786,568.70259 328.64425,568.71848 328.50718,568.73912 C 328.37009,568.75979 328.21866,568.77568 328.0529,568.78679 C 327.88499,568.7928 327.07929,568.79562 326.45659,568.79526 C 325.83387,568.79492 325.22603,568.79351 324.63307,568.79102 C 324.04011,568.78856 323.70431,568.78716 323.62568,568.78679 C 323.55036,568.78521 323.30887,568.77886 322.90122,568.76772 C 322.49355,568.75661 322.0847,568.75026 321.67465,568.74865 C 321.57981,568.74827 321.51127,568.7586 321.46903,568.77964 C 321.42679,568.80071 321.40606,568.83486 321.40686,568.88211 C 321.40885,568.91271 321.42399,568.94211 321.45229,568.9703 C 321.48058,568.99851 321.51007,569.0136 321.54076,569.01558 C 321.62324,569.01599 321.72127,569.01995 321.83485,569.02749 C 321.94841,569.03505 322.04166,569.04379 322.11459,569.05371 C 322.38357,569.08986 322.56289,569.17963 322.65255,569.32301 C 322.74221,569.46641 322.79242,569.67535 322.80319,569.9498 C 322.82152,570.16311 322.83267,570.49438 322.83666,570.9436 C 322.84064,571.39285 322.84223,572.2246 322.84144,573.43884 L 322.84144,576.2987 z M 359.02213,576.2987 C 359.02412,577.08716 359.02013,577.78385 359.01018,578.38879 C 359.00021,578.99373 358.97231,579.46641 358.92649,579.80681 C 358.89501,580.04751 358.85277,580.24294 358.79977,580.39308 C 358.74677,580.54322 358.64236,580.63378 358.48655,580.66477 C 358.40765,580.67629 358.32157,580.69138 358.22833,580.71005 C 358.13508,580.72872 358.049,580.73905 357.9701,580.74103 C 357.92268,580.74302 357.88841,580.75811 357.86729,580.78631 C 357.84617,580.81452 357.83581,580.84391 357.83621,580.87449 C 357.8394,580.96664 357.92866,581.01113 358.104,581.00795 C 358.24148,581.00756 358.39689,581.00358 358.57024,580.99604 C 358.74358,580.98849 358.91334,580.97975 359.07951,580.96982 C 359.2664,580.96069 359.42819,580.95512 359.56488,580.95314 C 359.70156,580.95115 359.78205,580.95035 359.80637,580.95075 C 359.9291,580.94996 360.10444,580.95155 360.33238,580.95552 C 360.56031,580.9595 360.85042,580.97061 361.20269,580.98889 C 361.54699,580.99961 361.96301,581.01153 362.45078,581.02463 C 362.93853,581.03774 363.95401,581.04489 364.58523,581.04608 C 364.90163,581.05483 365.12479,581.03734 365.2547,580.99365 C 365.3846,580.94996 365.47387,580.82762 365.52249,580.62663 C 365.57388,580.4185 365.6241,580.12934 365.67312,579.75914 C 365.72213,579.38895 365.74843,579.15698 365.75202,579.06325 C 365.75322,579.00287 365.74605,578.94725 365.73053,578.89641 C 365.71498,578.84557 365.6839,578.81856 365.63728,578.81538 C 365.59065,578.8138 365.55478,578.83127 365.52969,578.86781 C 365.50457,578.90436 365.48305,578.9695 365.46513,579.06324 C 365.41888,579.3818 365.3344,579.62648 365.21166,579.79727 C 365.08892,579.96807 364.91836,580.09835 364.7,580.18813 C 364.46488,580.27035 363.72834,580.32039 363.40238,580.33827 C 363.0764,580.35614 362.79587,580.36329 362.56076,580.35972 C 361.75141,580.37362 361.21345,580.29338 360.94686,580.11901 C 360.68026,579.94464 360.54876,579.59272 360.55235,579.06325 C 360.54398,578.84081 360.54158,578.40865 360.54518,577.76677 C 360.54876,577.12489 360.55115,576.63553 360.55235,576.2987 L 360.55235,574.94503 C 360.55115,574.91525 360.55832,574.88903 360.57387,574.86639 C 360.58941,574.84375 360.62049,574.83184 360.66712,574.83064 C 360.86994,574.83025 361.27242,574.83581 361.87455,574.84732 C 362.47667,574.85885 362.92219,574.8787 363.2111,574.9069 C 363.5279,574.94663 363.74548,575.01018 363.86384,575.09756 C 363.98218,575.18495 364.05152,575.28663 364.07185,575.40261 C 364.1085,575.50708 364.13082,575.6032 364.1388,575.69098 C 364.14676,575.77877 364.14995,575.86059 364.14836,575.93646 C 364.14835,576.03496 364.18661,576.08581 364.26313,576.08898 C 364.31971,576.08462 364.35956,576.05045 364.38268,575.9865 C 364.40578,575.92256 364.41694,575.85503 364.41615,575.78393 C 364.41694,575.71045 364.42491,575.5619 364.44006,575.33826 C 364.4552,575.11465 364.47273,574.91366 364.49266,574.73531 C 364.51497,574.47038 364.54207,574.26622 364.57395,574.12282 C 364.60582,573.97944 364.62336,573.8849 364.62656,573.83922 C 364.62336,573.74707 364.59148,573.70259 364.53092,573.70576 C 364.50262,573.70735 364.46835,573.72801 364.4281,573.76773 C 364.38785,573.80745 364.33923,573.8567 364.28226,573.91548 C 364.19777,573.99771 364.08938,574.05252 363.95709,574.07992 C 363.82478,574.10733 363.659,574.12878 363.45976,574.14427 C 363.30851,574.15675 363.02443,574.1657 362.60752,574.1711 C 362.1906,574.17653 361.78325,574.17982 361.38547,574.18099 C 360.98768,574.18217 360.74185,574.18264 360.64799,574.1824 C 360.60215,574.18241 360.57426,574.16811 360.5643,574.1395 C 360.55434,574.11091 360.55035,574.06801 360.55235,574.01081 L 360.55235,569.60662 C 360.55155,569.54943 360.55792,569.50653 360.57147,569.47792 C 360.58502,569.44933 360.61052,569.43504 360.64799,569.43502 C 360.73288,569.43504 360.94989,569.43716 361.29904,569.44138 C 361.64817,569.44562 362.00263,569.45198 362.3624,569.46044 C 362.72216,569.46893 362.96043,569.47952 363.07721,569.49222 C 363.52192,569.54625 364.14238,569.6098 364.30019,569.68288 C 364.45799,569.75597 364.55841,569.85766 364.60146,569.98793 C 364.63891,570.08803 364.66441,570.1929 364.67797,570.30252 C 364.6915,570.41216 364.69788,570.49795 364.69709,570.55991 C 364.6939,570.69655 364.73853,570.76646 364.83099,570.76963 C 364.86963,570.76725 364.90231,570.74819 364.92902,570.71243 C 364.95571,570.67669 364.97404,570.63856 364.98401,570.59804 C 365.00353,570.47968 365.02186,570.29697 365.039,570.04989 C 365.05613,569.80284 365.06968,569.62967 365.07965,569.53035 C 365.10195,569.30555 365.12905,569.13554 365.16094,569.02034 C 365.19281,568.90517 365.21034,568.82096 365.21354,568.76772 C 365.21393,568.72801 365.20835,568.69306 365.19681,568.66286 C 365.18524,568.63269 365.16531,568.6168 365.13703,568.61519 C 365.09877,568.61719 365.06051,568.62752 365.02227,568.64618 C 364.984,568.66486 364.94574,568.67995 364.9075,568.69146 C 364.83735,568.70259 364.73375,568.71848 364.59667,568.73912 C 364.45958,568.75979 364.30816,568.77568 364.14239,568.78679 C 363.97448,568.7928 363.25998,568.79562 362.63727,568.79526 C 362.01455,568.79492 361.40672,568.79351 360.81376,568.79102 C 360.2208,568.78856 359.885,568.78716 359.80637,568.78679 C 359.73105,568.78521 359.48956,568.77886 359.0819,568.76772 C 358.67424,568.75661 358.26539,568.75026 357.85534,568.74865 C 357.76049,568.74827 357.69195,568.7586 357.64971,568.77964 C 357.60747,568.80071 357.58675,568.83486 357.58755,568.88211 C 357.58954,568.91271 357.60468,568.94211 357.63298,568.9703 C 357.66127,568.99851 357.69076,569.0136 357.72144,569.01558 C 357.80393,569.01599 357.90196,569.01995 358.01553,569.02749 C 358.1291,569.03505 358.22235,569.04379 358.29527,569.05371 C 358.56425,569.08986 358.74358,569.17963 358.83324,569.32301 C 358.9229,569.46641 358.97311,569.67535 358.98387,569.9498 C 359.0022,570.16311 359.01336,570.49438 359.01735,570.9436 C 359.02133,571.39285 359.02293,572.2246 359.02213,573.43884 L 359.02213,576.2987 z M 373.81063,569.49222 L 375.91468,569.53035 C 376.69851,569.5534 377.2301,569.64555 377.50946,569.80681 C 377.7888,569.96808 377.93305,570.17463 377.94223,570.42644 L 377.96135,570.59804 C 377.97051,570.71006 377.98565,570.78632 378.00678,570.82682 C 378.02789,570.86735 378.05738,570.88641 378.09525,570.88402 C 378.13508,570.88364 378.17015,570.86536 378.20045,570.82921 C 378.23072,570.79307 378.24667,570.74144 378.24827,570.6743 C 378.25065,570.54482 378.26021,570.27472 378.27696,569.864 C 378.29369,569.45331 378.30325,569.10694 378.30565,568.82492 C 378.30723,568.77528 378.30405,568.73159 378.29609,568.69384 C 378.28811,568.65612 378.26579,568.63625 378.22914,568.63426 C 378.19127,568.63506 378.13309,568.64301 378.0546,568.65809 C 377.97609,568.6732 377.87487,568.69067 377.75095,568.71052 C 377.61824,568.7304 377.45326,568.74787 377.25602,568.76295 C 377.05875,568.77806 376.82205,568.78601 376.5459,568.78679 L 370.19549,568.78679 C 370.0867,568.7872 369.9026,568.78163 369.64318,568.7701 C 369.38376,568.7586 369.12792,568.73874 368.87568,568.71052 C 368.65092,568.67757 368.48356,568.63864 368.37357,568.59374 C 368.26359,568.54887 368.1823,568.52425 368.12969,568.51986 C 368.09981,568.52663 368.06872,568.56555 368.03645,568.63664 C 368.00417,568.70776 367.97787,568.77051 367.95754,568.82492 C 367.93403,568.94568 367.87107,569.23326 367.76866,569.68765 C 367.66624,570.14205 367.60807,570.43917 367.59412,570.57897 C 367.59651,570.62625 367.61085,570.66041 367.63716,570.68144 C 367.66346,570.70251 367.68737,570.71284 367.70888,570.71243 C 367.74714,570.71443 367.78061,570.70569 367.80931,570.68622 C 367.838,570.66676 367.86191,570.62466 367.88103,570.55991 C 367.90534,570.50629 367.93324,570.44194 367.96472,570.36686 C 367.9962,570.2918 368.05757,570.18456 368.14882,570.04512 C 368.26279,569.85805 368.4461,569.72698 368.69875,569.65189 C 368.95139,569.57683 369.33554,569.53632 369.85119,569.53035 L 372.28042,569.49222 L 372.28042,576.2987 C 372.28201,577.08716 372.27881,577.78385 372.27085,578.38879 C 372.26288,578.99373 372.24056,579.46641 372.2039,579.80681 C 372.17959,580.04712 372.13257,580.24334 372.06283,580.39546 C 371.99309,580.54759 371.87434,580.64372 371.70658,580.68384 C 371.62847,580.70369 371.54559,580.72117 371.45792,580.73626 C 371.37025,580.75136 371.28736,580.7593 371.20926,580.7601 C 371.16184,580.76129 371.12757,580.7732 371.10645,580.79584 C 371.08532,580.81848 371.07496,580.8447 371.07537,580.87449 C 371.07457,580.92176 371.09529,580.95592 371.13753,580.97697 C 371.17977,580.99802 371.24831,581.00835 371.34315,581.00795 C 371.62848,581.00557 371.97119,580.99604 372.37128,580.97935 C 372.77137,580.96267 373.00887,580.95314 373.0838,580.95075 C 373.15512,580.95314 373.3998,580.96267 373.81782,580.97935 C 374.23584,580.99604 374.68614,581.00557 375.16873,581.00795 C 375.26355,581.00716 375.33208,580.99444 375.37433,580.96982 C 375.41656,580.9452 375.43728,580.91342 375.43649,580.87449 C 375.43807,580.84391 375.4301,580.81452 375.41258,580.78631 C 375.39504,580.75811 375.35838,580.74301 375.3026,580.74103 C 375.21811,580.74024 375.10015,580.73229 374.94873,580.7172 C 374.7973,580.70211 374.66022,580.68463 374.53749,580.66477 C 374.28802,580.62545 374.12225,580.5325 374.04017,580.38593 C 373.95807,580.23936 373.90706,580.04632 373.88714,579.80681 C 373.85048,579.46641 373.82816,578.99373 373.8202,578.38879 C 373.81222,577.78385 373.80903,577.08716 373.81063,576.2987 L 373.81063,569.49222 z"
       id="text2396"
       sodipodi:nodetypes="csssssssssssssssssssssssccsssssssssssssssssssscsccccsccsssssssssssccscssssssssssssscccssssssssssssssssssssscscccsscscscsscccscscsscscccssssssssssssssssssssssccccssscscsccssssscscscscssssssssssssssscscccssscscssccsscccsssssssssssssssssssssssccsssssssssssssssssssscscccssssssssssssssccsssccccsccssssssssssssscscssssssscccccccscccscscsccssscssssssssssssssscscsccscscscssscssssscccscscsccscscscssssssssssssscscsccscscscssssssssscscccsssssssssssssscscssssssssscscscsccssscscssssssssssssssssssccsssssssssssssssssssssssssssssssssscscccsssssssssssssscscssssssssscscscsccssscscssssssssssssssssssccsssssssssssssssssssssssssssssssssscsccccsccsssssssssssccscssssssssssssscccssssssssssssssssssssscscc" />
    <path
       style="font-size:603.11419678px;font-style:normal;font-weight:normal;text-align:start;line-height:125%;text-anchor:start;fill:#333333;fill-opacity:1;stroke:none;stroke-width:1px;stroke-linecap:butt;stroke-linejoin:miter;stroke-opacity:1;font-family:Bitstream Vera Sans"
       d="M 223.91179,581.33132 C 224.41556,581.33291 224.91611,581.30581 225.41345,581.25002 C 225.91077,581.19423 226.32109,581.10019 226.64442,580.96789 C 226.76758,580.91688 226.85208,580.86109 226.89792,580.80052 C 226.94374,580.73995 226.98527,580.63634 227.02252,580.48969 C 227.10522,580.16731 227.1847,579.76484 227.26097,579.28226 C 227.33723,578.79968 227.37805,578.50719 227.38343,578.40477 C 227.382,578.345 227.36769,578.29239 227.34049,578.24696 C 227.31327,578.20153 227.28176,578.17763 227.24597,578.17523 C 227.19655,578.17404 227.16218,578.19077 227.14285,578.22544 C 227.1235,578.26011 227.10632,578.31989 227.09129,578.40477 C 227.06477,578.57254 227.00175,578.79171 226.90222,579.06229 C 226.80267,579.33287 226.6709,579.56639 226.50693,579.76284 C 226.21081,580.08761 225.86207,580.29882 225.46071,580.39645 C 225.05933,580.49408 224.5774,580.53791 224.01491,580.52795 C 222.37433,580.47734 221.06244,579.88518 220.07925,578.75146 C 219.09604,577.61775 218.59191,576.24613 218.56685,574.63661 C 218.5536,573.81173 218.64025,573.04184 218.8268,572.32693 C 219.01333,571.61204 219.37926,570.96648 219.92457,570.39025 C 220.17806,570.10055 220.56905,569.84313 221.09754,569.61797 C 221.62601,569.39283 222.36932,569.27408 223.32746,569.26171 C 224.00452,569.2681 224.60103,569.35577 225.11699,569.52472 C 225.63292,569.69369 226.02749,569.90569 226.30069,570.16072 C 226.50011,570.33965 226.65551,570.57476 226.76687,570.86605 C 226.87821,571.15736 226.93479,571.4642 226.93658,571.78657 C 226.93516,571.90134 226.94232,571.98741 226.95809,572.04478 C 226.97384,572.10217 227.00678,572.13086 227.05692,572.13085 C 227.10059,572.13205 227.13783,572.10575 227.16863,572.05195 C 227.19941,571.99816 227.21946,571.90969 227.22878,571.78655 C 227.23663,571.65028 227.24235,571.4112 227.24594,571.06928 C 227.24951,570.72739 227.25524,570.41178 227.26312,570.12246 C 227.28102,569.83317 227.29677,569.62276 227.31039,569.49125 C 227.32398,569.35975 227.33114,569.26412 227.33187,569.20433 C 227.33365,569.15532 227.32148,569.11468 227.29535,569.08239 C 227.2692,569.05012 227.21836,569.03339 227.14282,569.03218 C 226.89576,569.02063 226.64655,568.99115 226.39522,568.94371 C 226.14385,568.89631 225.87747,568.8429 225.59605,568.78352 C 225.21866,568.71698 224.83484,568.66837 224.44457,568.63767 C 224.05429,568.607 223.70483,568.59186 223.3962,568.59224 C 222.24615,568.60381 221.30234,568.77197 220.56476,569.09673 C 219.82718,569.42152 219.23568,569.83356 218.79027,570.33286 C 218.13289,571.08563 217.68176,571.87066 217.43685,572.68797 C 217.19195,573.50529 217.07594,574.19947 217.08883,574.7705 C 217.07308,575.56072 217.19481,576.38082 217.45404,577.23081 C 217.71327,578.0808 218.2045,578.86743 218.92777,579.59069 C 219.51246,580.16532 220.20778,580.59888 221.01375,580.89138 C 221.81971,581.18387 222.78573,581.33052 223.91179,581.33132 L 223.91179,581.33132 z"
       id="text2406" />
    <path
       style="font-size:603.11419678px;font-style:normal;font-weight:normal;text-align:start;line-height:125%;text-anchor:start;fill:#333333;fill-opacity:1;stroke:none;stroke-width:1px;stroke-linecap:butt;stroke-linejoin:miter;stroke-opacity:1;font-family:Bitstream Vera Sans"
       d="M 338.66904,581.33132 C 339.1728,581.33291 339.67335,581.30581 340.17069,581.25002 C 340.66801,581.19423 341.07833,581.10019 341.40166,580.96789 C 341.52482,580.91688 341.60931,580.86109 341.65515,580.80052 C 341.70097,580.73995 341.74251,580.63634 341.77976,580.48969 C 341.86245,580.16731 341.94194,579.76484 342.01822,579.28226 C 342.09447,578.79968 342.13528,578.50719 342.14067,578.40477 C 342.13924,578.345 342.12493,578.29239 342.09773,578.24696 C 342.07051,578.20153 342.039,578.17763 342.00321,578.17523 C 341.95378,578.17404 341.91941,578.19077 341.90009,578.22544 C 341.88075,578.26011 341.86356,578.31989 341.84853,578.40477 C 341.82201,578.57254 341.75898,578.79171 341.65945,579.06229 C 341.5599,579.33287 341.42814,579.56639 341.26417,579.76284 C 340.96805,580.08761 340.61931,580.29882 340.21795,580.39645 C 339.81657,580.49408 339.33464,580.53791 338.77215,580.52795 C 337.13157,580.47734 335.81968,579.88518 334.83649,578.75146 C 333.85328,577.61775 333.34915,576.24613 333.32409,574.63661 C 333.31084,573.81173 333.39749,573.04184 333.58403,572.32693 C 333.77058,571.61204 334.1365,570.96648 334.68181,570.39025 C 334.93531,570.10055 335.32629,569.84313 335.85478,569.61797 C 336.38325,569.39283 337.12656,569.27408 338.0847,569.26171 C 338.76176,569.2681 339.35827,569.35577 339.87422,569.52472 C 340.39016,569.69369 340.78473,569.90569 341.05793,570.16072 C 341.25735,570.33965 341.41275,570.57476 341.52411,570.86605 C 341.63545,571.15736 341.69202,571.4642 341.69383,571.78657 C 341.6924,571.90134 341.69957,571.98741 341.71533,572.04478 C 341.73108,572.10217 341.76402,572.13086 341.81416,572.13085 C 341.85783,572.13205 341.89507,572.10575 341.92587,572.05195 C 341.95665,571.99816 341.9767,571.90969 341.98602,571.78655 C 341.99387,571.65028 341.99959,571.4112 342.00318,571.06928 C 342.00675,570.72739 342.01248,570.41178 342.02036,570.12246 C 342.03825,569.83317 342.05401,569.62276 342.06763,569.49125 C 342.08122,569.35975 342.08838,569.26412 342.08911,569.20433 C 342.09089,569.15532 342.07871,569.11468 342.05259,569.08239 C 342.02644,569.05012 341.9756,569.03339 341.90006,569.03218 C 341.653,569.02063 341.4038,568.99115 341.15245,568.94371 C 340.9011,568.89631 340.63471,568.8429 340.35329,568.78352 C 339.9759,568.71698 339.59207,568.66837 339.20181,568.63767 C 338.81153,568.607 338.46208,568.59186 338.15345,568.59224 C 337.00339,568.60381 336.05957,568.77197 335.322,569.09673 C 334.58442,569.42152 333.99292,569.83356 333.54751,570.33286 C 332.89014,571.08563 332.439,571.87066 332.19409,572.68797 C 331.94919,573.50529 331.83318,574.19947 331.84607,574.7705 C 331.83031,575.56072 331.95205,576.38082 332.21128,577.23081 C 332.4705,578.0808 332.96175,578.86743 333.685,579.59069 C 334.26969,580.16532 334.96502,580.59888 335.77099,580.89138 C 336.57695,581.18387 337.54297,581.33052 338.66904,581.33132 L 338.66904,581.33132 z"
       id="text2409" />
    <path
       style="font-size:127.40306091px;font-style:normal;font-weight:normal;text-align:start;line-height:125%;text-anchor:start;fill:#333333;fill-opacity:1;stroke:none;stroke-width:1px;stroke-linecap:butt;stroke-linejoin:miter;stroke-opacity:1;font-family:Bitstream Vera Sans"
       d="M 289.04619,571.25414 L 289.00021,571.19573 C 289.56226,570.80147 289.9276,570.40598 290.09621,570.00927 C 290.26483,569.61257 290.34914,569.27549 290.34914,568.99804 C 290.34914,568.80821 290.29038,568.71329 290.17286,568.71329 C 290.15242,568.71329 290.10643,568.72303 290.0349,568.74249 C 289.96336,568.76197 289.8995,568.7717 289.84329,568.7717 C 289.04762,568.79073 288.91498,567.80427 289.2493,567.47207 C 289.40514,567.31145 289.61591,567.23113 289.88161,567.23112 C 290.1984,567.23113 290.47305,567.36012 290.70553,567.61809 C 290.93802,567.87608 291.05426,568.23628 291.05426,568.69868 C 291.05426,569.21465 290.90608,569.67585 290.60973,570.08228 C 290.31337,570.48873 289.79219,570.87935 289.04619,571.25414 L 289.04619,571.25414 z"
       id="text2413"
       sodipodi:nodetypes="ccssssccsssscc" />
    <path
       style="font-size:636.26794434px;font-style:normal;font-weight:normal;text-align:start;line-height:125%;text-anchor:start;fill:#333333;fill-opacity:1;stroke:none;stroke-width:1px;stroke-linecap:butt;stroke-linejoin:miter;stroke-opacity:1;font-family:Bitstream Vera Sans"
       d="M 346.18994,576.46754 C 346.19194,577.256 346.18795,577.95269 346.17799,578.55763 C 346.16803,579.16257 346.14013,579.63524 346.09431,579.97564 C 346.06282,580.21516 346.02058,580.4082 345.96758,580.55476 C 345.91458,580.70133 345.81017,580.79428 345.65437,580.8336 C 345.57546,580.85346 345.48939,580.87094 345.39615,580.88604 C 345.30289,580.90113 345.21682,580.90908 345.13792,580.90987 C 345.0905,580.91185 345.05622,580.92695 345.03511,580.95515 C 345.01399,580.98335 345.00362,581.01275 345.00403,581.04333 C 345.00721,581.13548 345.09648,581.17996 345.27182,581.17679 C 345.5659,581.17441 345.90542,581.16487 346.29037,581.14819 C 346.67532,581.13151 346.8905,581.12198 346.93594,581.11959 C 346.9981,581.12198 347.2372,581.13151 347.65323,581.14819 C 348.06925,581.16487 348.51876,581.17441 349.00174,581.17679 C 349.09657,581.176 349.1651,581.16328 349.20735,581.13866 C 349.24958,581.11403 349.2703,581.08225 349.26951,581.04333 C 349.2711,581.01275 349.26313,580.98335 349.2456,580.95515 C 349.22806,580.92695 349.1914,580.91185 349.13562,580.90987 C 349.05192,580.90908 348.93716,580.90113 348.79132,580.88604 C 348.64546,580.87094 348.51157,580.85346 348.38963,580.8336 C 348.13938,580.79428 347.97041,580.70133 347.88275,580.55476 C 347.79507,580.4082 347.74088,580.21516 347.72016,579.97564 C 347.6835,579.63603 347.66118,579.16655 347.65322,578.56716 C 347.64524,577.96778 347.64206,577.27427 347.64365,576.48661 L 347.64365,576.10529 C 347.64365,576.01314 347.6819,575.96866 347.75842,575.97183 L 349.2137,576.00996 C 349.26869,576.00917 349.31173,576.01553 349.34281,576.02903 C 349.37389,576.04254 349.40736,576.06796 349.44324,576.10529 C 349.63371,576.34084 349.89353,576.68005 350.22269,577.12293 C 350.55184,577.56581 350.89773,578.01466 351.26037,578.46945 C 351.72899,579.07876 352.14024,579.58082 352.49411,579.97564 C 352.84796,580.37046 353.20182,580.6628 353.5557,580.85267 C 353.75493,580.96627 353.98765,581.04889 354.25386,581.10053 C 354.52004,581.15216 354.88666,581.17758 355.35371,581.17679 L 356.40573,581.17679 C 356.55635,581.17719 356.66155,581.16686 356.72134,581.14581 C 356.7811,581.12475 356.80979,581.0906 356.80741,581.04333 C 356.807,581.01275 356.79345,580.98335 356.76677,580.95515 C 356.74005,580.92695 356.70259,580.91185 356.65439,580.90987 C 356.60815,580.91106 356.53802,580.90868 356.44399,580.90272 C 356.34993,580.89676 356.22241,580.88007 356.06143,580.85267 C 355.8554,580.83797 355.60275,580.75774 355.3035,580.61196 C 355.00422,580.46619 354.63202,580.17147 354.18692,579.72779 C 353.69954,579.21818 353.16317,578.60728 352.57779,577.89509 C 351.99239,577.18291 351.3556,576.39565 350.66741,575.53332 C 351.43968,574.87039 352.66707,574.23725 352.97551,573.63388 C 353.28393,573.03055 353.43217,572.43077 353.42023,571.83456 C 353.3979,571.26935 353.25604,570.79826 352.99464,570.42131 C 352.73321,570.04437 352.48615,569.77824 352.25344,569.62293 C 351.80472,569.32662 351.30581,569.13279 350.75669,569.04142 C 350.20756,568.95008 349.66083,568.90876 349.11649,568.91749 C 348.81363,568.91907 348.41992,568.92542 347.93536,568.93653 C 347.45079,568.94766 347.14315,568.95401 347.01245,568.95559 C 346.93553,568.95401 346.68767,568.94766 346.26885,568.93653 C 345.85003,568.92541 345.4348,568.91906 345.02316,568.91746 C 344.92831,568.91709 344.85977,568.92743 344.81753,568.94847 C 344.77529,568.96954 344.75456,569.00369 344.75536,569.05095 C 344.75736,569.08155 344.7725,569.11094 344.80079,569.13913 C 344.82908,569.16735 344.85857,569.18244 344.88926,569.18441 C 344.97174,569.18483 345.06977,569.18879 345.18335,569.19632 C 345.29691,569.20389 345.39016,569.21263 345.46309,569.22255 C 345.73207,569.2587 345.91139,569.34847 346.00106,569.49185 C 346.09072,569.63525 346.14093,569.84418 346.15169,570.11863 C 346.17002,570.33195 346.18117,570.66321 346.18516,571.11244 C 346.18914,571.56169 346.19074,572.39343 346.18994,573.60768 L 346.18994,576.46754 z M 347.64365,569.77545 C 347.64445,569.72819 347.6572,569.68927 347.68191,569.65867 C 347.70661,569.6281 347.73849,569.60347 347.77755,569.58479 C 347.87198,569.56415 348.03218,569.5435 348.25813,569.52283 C 348.48407,569.50218 348.72556,569.49107 348.98259,569.48946 C 349.89036,569.49583 350.59968,569.77387 351.11056,570.32359 C 351.62142,570.87333 351.88123,571.65662 351.89001,572.67345 C 351.88363,573.29508 351.78639,573.81541 351.59831,574.23446 C 351.41021,574.65352 350.4825,574.95936 350.18922,575.152 C 349.98598,575.2807 349.77557,575.36173 349.558,575.39509 C 349.19493,575.482 348.84983,575.42468 348.49962,575.36411 C 348.14495,575.31685 347.89789,575.25885 347.75842,575.19014 C 347.72016,575.16233 347.69147,575.13215 347.67235,575.09957 C 347.65321,575.067 347.64365,575.02729 347.64365,574.98041 L 347.64365,569.77545 z"
       id="path2418"
       sodipodi:nodetypes="cssssssssssssssssssssssccccssscscsccssssscscscscssssssssssssssscscccssscscssccsscc" />
    <path
       style="font-size:636.26794434px;font-style:normal;font-weight:normal;text-align:start;line-height:125%;text-anchor:start;fill:#333333;fill-opacity:1;stroke:none;stroke-width:1px;stroke-linecap:butt;stroke-linejoin:miter;stroke-opacity:1;font-family:Bitstream Vera Sans"
       d="M 198.28925,569.29454 C 198.14703,568.92946 198.02909,568.61301 197.93544,568.34516 C 197.84178,568.07735 197.79322,567.8813 197.78975,567.75701 C 197.78705,567.69065 197.8017,567.62427 197.83369,567.55788 C 197.86568,567.49151 197.9312,567.43439 198.03025,567.38653 C 198.11967,567.35027 198.23221,567.32556 198.36788,567.31243 C 198.50354,567.29932 198.62533,567.29315 198.73325,567.29391 C 198.85966,567.29701 198.92133,567.25378 198.91825,567.16423 C 198.91825,567.07471 198.75175,567.03149 198.41875,567.03457 C 198.05107,567.03687 197.69957,567.04613 197.36426,567.06232 C 197.02894,567.07854 196.80694,567.0878 196.69826,567.0901 C 196.56644,567.0878 196.28894,567.07854 195.86575,567.06231 C 195.44256,567.04612 194.99856,567.03685 194.53375,567.03453 C 194.38421,567.03302 194.26704,567.04075 194.18225,567.05771 C 194.09746,567.07471 194.05429,567.11022 194.05275,567.16423 C 194.05198,567.20207 194.06277,567.23294 194.08513,567.25686 C 194.10748,567.2808 194.14602,567.29315 194.20075,567.29391 C 194.26126,567.29238 194.35762,567.29546 194.48981,567.30317 C 194.62201,567.3109 194.75999,567.33251 194.90375,567.368 C 195.2171,567.44366 195.46916,567.57487 195.65994,567.76165 C 195.85072,567.94845 196.04266,568.29269 196.23575,568.79438 L 200.76825,580.14981 C 200.9359,580.58668 201.06309,580.88925 201.14981,581.05751 C 201.23653,581.22577 201.33134,581.30604 201.43425,581.29833 C 201.51519,581.30913 201.60306,581.21342 201.69788,581.0112 C 201.79268,580.80897 201.96381,580.4354 202.21125,579.89048 C 202.42631,579.42853 202.73618,578.71765 203.14088,577.75785 C 203.54556,576.79807 204.03118,575.63798 204.59776,574.27759 C 205.08414,573.104 205.52197,572.04735 205.91125,571.10761 C 206.30051,570.16789 206.55335,569.55119 206.66975,569.25749 C 206.91563,568.64427 207.11759,568.21743 207.27563,567.977 C 207.43364,567.73658 207.57084,567.58297 207.68725,567.5162 C 207.86993,567.4097 208.04568,567.34487 208.2145,567.32169 C 208.3833,567.29855 208.50355,567.28929 208.57525,567.29391 C 208.72324,567.29701 208.79724,567.25378 208.79726,567.16423 C 208.79416,567.07471 208.68932,567.03149 208.48276,567.03457 C 208.19485,567.03687 207.90117,567.04613 207.60172,567.06232 C 207.30224,567.07854 207.11493,567.0878 207.03979,567.0901 C 206.91336,567.0878 206.67594,567.07854 206.32753,567.06231 C 205.97911,567.04612 205.61219,567.03685 205.22678,567.03453 C 205.0803,567.03379 204.97546,567.0446 204.91226,567.06698 C 204.84904,567.08938 204.8182,567.12797 204.81976,567.18276 C 204.82128,567.22793 204.84133,567.25803 204.87988,567.27307 C 204.91841,567.28813 204.9662,567.29508 205.02326,567.29391 C 205.12769,567.29238 205.24254,567.29546 205.36782,567.30317 C 205.49307,567.3109 205.61255,567.33251 205.72625,567.368 C 205.8172,567.41703 205.88041,567.48109 205.91588,567.56019 C 205.95132,567.63932 205.96828,567.71728 205.96675,567.79407 C 205.96559,567.87898 205.9494,567.9824 205.91819,568.10435 C 205.88696,568.22631 205.84765,568.35752 205.80025,568.49799 C 205.6431,568.99885 205.32016,569.90105 204.8314,571.20461 C 204.34263,572.50818 203.81686,573.87555 203.25411,575.30673 C 202.69133,576.73791 202.22038,577.89534 201.84125,578.77901 L 198.28925,569.29454 z"
       id="path2420"
       sodipodi:nodetypes="csssssssssssssssssssccssscscssssssssssssssssscsssssscc" />
  </g>
</svg>
