<svg xmlns="http://www.w3.org/2000/svg" class="logo_gap logo_gap_text-only" viewBox="0 0 110 83.8"><path class="logo_gap--text" d="M97.8 1.5H83.1v2.4H87v74.4c-.1 1.6-.7 2.2-3.1 2.3h-.8v2.1h16.6v-2.1H98c-2.8-.1-3.8-1.2-3.9-3.7V48.1h4.8c7 0 11.1-3.4 11.1-7.9V10.1c0-4.5-3.5-8.6-12.2-8.6m5.1 23v16c0 2.5-1.6 4.9-4.7 4.8h-4.1V3.9h3.7c2.8 0 5.1 2.3 5.1 5.1v15.5zM11.3 48.1h4.3v29.1c.1 2.5-1.9 4.6-4.4 4.7h-.1c-2.5 0-4.3-2.1-4.3-4.7V8.9c0-1.9.4-6.3 3.6-6.2 2.6 0 4.5 2.4 5.3 6.1.9 3.8 1.5 12.7 1.5 16.6 0 1.3.5 1.8 1.9 1.8h3.1V1.5h-2.5v1.2c0 1.3-.8 1.2-1.5.8C15.8 1.9 13.1.8 10.5.8 6.2.8 0 2.7 0 10.9v60.3c.1 10.5 5.6 12.4 11.1 12.5 4.2 0 6.2-2.2 7.8-3 1.1-.5 1.9.8 1.9 2.4H23v-35h3.6v-2.6H11.3v2.6zm35.9-2.6l3.9-32.6 4.4 32.7-8.3-.1zm19.2 31.4L57 1.5h-7.4l-9.4 75.6c-.5 2.4-.6 3-4.2 3.2v2.3h11.6v-2.1c-1.3.1-2.6-.3-3.6-1.1-.4-.5-.6-1-.6-1.6L46.9 48h9l3.7 29.8c0 1.9-.2 2.6-2.5 2.7H56v2.1h14.8v-2.1h-.4c-2.9 0-3.8-1.8-4-3.6"/></svg>