<svg xmlns="http://www.w3.org/2000/svg" width="509.425" height="203.236" viewBox="0 0 407.53999 162.58876"><path d="M162.19 23.699c8.69-10.92 22.16-17.34 35.85-19.06 7.496-1.016 12.046-.67 17.91 0 18.25 2.12 34.37 13.05 45.96 26.92 11.65 13.25 19.72 29.38 32.53 41.67 4.6 4.23 9.68 8.22 15.67 10.24 4.26-.1 8.09-2.52 12.09-3.8 6.29-2.48 13.15-1.54 19.74-1.92 5.65-.12 11.35-2.23 16.96-.5 8.75 2.09 19.27 5.14 26.87-1.54 3.33.75 6.56 1.94 9.53 3.63.7 1.19.71 2.65 1.19 3.93 1.81 2.14 4.82 3.48 5.55 6.37.23 2.93-2.49 5.09-5.09 5.72-4.44.93-8.88-.55-13.11-1.78-1.78 1.4-3.98 2.76-4.66 5.04 1.16 11.98 6.49 23.43 15.03 31.92 2.13.9 4.46.46 6.69.32 1.66-.41 1.94 1.9 2.64 2.86-1.43-.37-2.84-.78-4.25-1.18.11.51.32 1.53.42 2.04-2.07.19-4.19 1.03-6.25.62-4.32-3.01-7.55-7.31-10.74-11.44-4.2-5.61-5.45-13.63-11.86-17.39-5.03.95-9.31 3.76-13.07 7.09.55 5.94 1.27 11.85 1.45 17.8 3.05.55 6.99-.03 8.57 3.38-3.6.3-7.21-.15-10.78.4-1.62.49-2.41-1.37-2.89-2.54-.57-4.56.4-9.22-.7-13.72-.49-2.73-1.38-5.38-1.65-8.15 1.11-2 3.56-3.21 4.06-5.5-4.57-.69-9.15-1.44-13.53-3.01-4.74-1.37-9.06-3.95-13.89-5.06 2.1 5.29 6.27 10.45 4.69 16.49-.63 5.76-6.89 8.49-8.06 14-.12 1.54-.09 3.09-.09 4.64 2.78.22 6.54-.56 7.9 2.64-3.96.17-7.91-.06-11.85.41-1.46-1.54-.99-3.87-.95-5.78.56-5.6 4.33-9.98 7.04-14.66-.59-3.73-2.14-7.43-5.57-9.38-.88 1.99-1.67 4.04-2.75 5.93-3.83 5.59-9.99 8.76-15.35 12.63-1.22.79-1.88 2.12-2.66 3.29.82 1.62 1.62 3.25 2.46 4.85 1.46.56 6.65 2.24 2.82 3.26-5.94 1.71-8.04-5.08-10.05-9.15 3.23-6.96 12.22-8.23 15.83-14.8 1.42-7.22-2.54-14.36-.85-21.57-10.12-5.08-18.75-12.66-26.18-21.13-11.02-13.05-19.03-28.52-31.44-40.42-11.07-11.5-26.26-19.49-42.38-20.08-16.31-1.19-33.78 4.08-44.71 16.7-6.27 6.98-9.11 16.34-9.29 25.6 2.59-1.68 5.8-3.52 8.94-2.16 5.29 1.11 7.08 8.32 3.9 12.32-2.11 3.12-6.43 3.68-9.77 2.5-3.06-1.07-4.77-4.19-5.66-7.12-2.83-11.22.54-23.49 7.79-32.37zM4 36.398l12.06-.09c.01 22.6 0 45.21 0 67.81 7.98-9.95 15.66-20.13 23.6-30.11 2.61-.03 5.21-.04 7.82-.02-6.35 8.38-13.13 16.45-19.47 24.84.58 1.25 1.42 2.35 2.25 3.44 7.84 9.88 15.51 19.9 23.33 29.79-5.23-.12-10.52.43-15.71-.23-7.58-8.65-14.29-18.07-21.82-26.79-.05 9.03.11 18.06-.09 27.08L4 132.115zm128.94-.089H145c.07 30.43-.14 60.86.11 91.28 3.25.14 6.5.13 9.75.12.01 1.45.03 2.9.04 4.36-5.65-.12-11.34.44-16.95-.37-3.34-.34-5.33-3.96-5-7.08-.03-29.44 0-58.87-.01-88.31zm-73.58 12.69c4.82-3.02 12.43.57 11.92 6.59.63 5.03-4.56 9.21-9.37 8.05-6.9-.82-8.49-11.44-2.55-14.64z"/><path d="M235.28 80.979c5.44-6 13.79-8.71 21.74-8.43 8.32.16 16.22 5.1 20.41 12.21-1.48 1.33-3.13 2.43-4.72 3.61-2.53-3.55-4.92-7.47-8.71-9.84-5.39-3.25-12.97-1.61-16.7 3.42-3.32 4.49-4.71 10.12-5.24 15.6-.18 6.42-.53 13.04 1.69 19.19 1.68 5.33 5.34 10.75 11.13 12.04 5.09 1.93 10.81-1.68 12.59-6.54 2.25-5.99 1.02-12.52 1.31-18.76h11.15c-.01 18.37.01 36.74-.01 55.11h-11.13c.07-9.98-.19-19.97.15-29.94-4.46 2.86-9.57 5.17-14.97 4.96-6.26-.28-12.6-2.41-17.21-6.75-6.36-5.85-9.31-14.76-8.86-23.28-.41-8.09 1.96-16.47 7.38-22.6zm-177.93-7.01h12.19c-.02 19.38.04 38.76-.02 58.14-4.04-.02-8.08-.03-12.12.02-.13-19.39-.03-38.77-.05-58.16zm33.675-.03c-4.588-.005-9.195.135-13.775.025-.01 28.2 0 56.415 0 84.625H89.4c.02-8.83-.025-17.67.025-26.5 8.67-.17 17.955 1.01 25.975-3.05 6.04-2.81 10.285-8.575 12.125-14.875 2.23-7.73 2.295-16.415-1.375-23.725-3.99-8.34-12.475-13.93-21.425-15.6-4.54-.75-9.113-.895-13.7-.9zm.675 4.45c5.416-.078 11.029.689 15.325 4.25 6.18 5 7.57 13.395 8 20.875.14 7.25-.845 15.53-6.425 20.75-5.31 4.64-12.74 3.34-19.2 3.35.03-16.37.03-32.745 0-49.125.761-.039 1.526-.09 2.3-.1zm65.66-4.41c4.05-.01 8.11-.01 12.16 0-.02 19.38.03 38.75-.02 58.13-4.04-.02-8.07-.02-12.11 0-.07-19.37 0-38.75-.03-58.13zm58.3.05c1.82-.04 3.64-.06 5.46-.1.08 18.22.04 36.44.02 54.66-.25 1.55.36 3.85-1.53 4.52-2.78 1.64-5.88-.49-7.29-2.92-9.12-13.59-18.02-27.32-26.81-41.12-1.3-1.95-2.57-4.03-4.68-5.2-.57 16.07-.04 32.17-.27 48.26-1.86-.02-3.71-.04-5.56-.05.01-16.86-.02-33.73.01-50.6-.02-3.37 2.54-6.69 6-7.03 4.1-1.21 8.79.34 11.25 3.87 7.79 10.54 14.39 21.94 22.21 32.44.28-.12.83-.35 1.1-.46.26-12.08.05-24.18.09-36.27z"/></svg>