<svg xmlns="http://www.w3.org/2000/svg" width="603" height="398" viewBox="0 0 603.00001 398.00001"><defs><clipPath id="a"><path d="M0 800h600V0H0v800z"/></clipPath></defs><g clip-path="url(#a)" transform="matrix(1.25 0 0 -1.25 -95.371 752.35)" fill="#231f20"><path d="M132.777 332.499h6.318v-46.66h-6.318v46.66zm127.759-6.954l6.963-20.595h-14.413l7.31 20.595h.14zm-3.195 6.954l-17.681-46.66h6.532l4.826 13.492h18.75l4.687-13.492h6.751l-16.765 46.66h-7.1zm-54.116 0v-19.314h24.358v19.314h6.177v-46.66h-6.177v21.807h-24.358v-21.807h-6.39v46.66h6.39zm-44.526-9.017c-2.908-3.266-4.332-7.882-4.332-13.847 0-12.994 5.043-19.531 15.34-19.531 7.241 0 11.716 4.258 13.421 12.92h6.109c-1.138-7.453-4.476-12.782-9.945-15.831-3.055-1.779-6.605-2.63-10.507-2.63-5.828 0-10.656 1.92-14.418 5.679-4.404 4.407-6.533 10.802-6.533 19.181 0 7.24 1.914 13.14 5.822 17.538 3.908 4.621 9.235 6.819 15.839 6.819 5.676 0 10.295-1.634 13.845-4.828 3.052-2.696 4.828-6.183 5.467-10.438h-6.175c-1.278 6.533-5.684 9.727-13.137 9.727-4.404 0-7.959-1.561-10.796-4.759m-42.615 1.565l-13.137-39.208h-6.249l-12.994 39.208h-.284l.284-39.208h-6.178v46.66h9.017l13.206-39.414h.287l13.209 39.414h9.019v-46.66h-6.18l.146 39.208h-.146zm422.705 3.194c-7.24 0-10.793-2.696-10.793-8.166 0-3.056 1.914-4.976 5.61-5.825l13.355-3.051c6.957-1.776 10.507-5.899 10.507-12.427 0-5.114-1.986-8.739-6.106-11.223-3.198-2.057-7.246-2.986-12.077-2.986-6.034 0-10.797 1.562-14.129 4.476-3.2 2.839-4.687 6.751-4.687 11.857h5.893c0-3.903 1.422-6.746 4.118-8.66 2.272-1.498 5.115-2.203 8.662-2.203 8.171 0 12.22 2.556 12.22 7.882 0 2.416-.714 4.189-2.06 5.258-1.281 1.066-3.908 2.127-7.814 2.908l-9.587 2.275c-6.604 1.562-9.945 5.187-9.945 11.009 0 3.903 1.35 7.243 3.837 9.802 2.91 3.123 6.959 4.613 12.289 4.613 11.504 0 17.538-4.974 18.251-14.914h-5.968c-.072 3.196-1.493 5.685-3.977 7.39-2.06 1.272-4.614 1.985-7.599 1.985m-56.46-1.068h15.625c5.679 0 8.524-2.622 8.524-7.808 0-5.465-3.198-8.166-9.444-8.166h-14.705v15.974zm-6.249 5.326v-46.66h6.249v20.025h15.275c5.536 0 8.373-2.691 8.373-8.303 0-5.683.355-9.585.997-11.722h7.813v1.068c-1.561.854-2.278 2.415-2.278 4.614l-.492 8.455c-.078 2.911-.711 5.186-1.849 6.463-.639.855-1.914 1.706-3.69 2.416 4.257 2.482 6.389 6.244 6.389 11.08 0 8.45-5.111 12.564-15.263 12.564H476.08zm-31.03-4.258c4.971 0 8.871-1.92 11.859-5.538 2.908-3.478 4.329-7.957 4.329-13.49 0-5.618-1.421-10.234-4.329-13.642-2.988-3.693-6.888-5.467-11.859-5.467-5.117 0-9.023 1.774-11.865 5.467-2.909 3.408-4.33 8.024-4.33 13.642 0 5.533 1.421 10.012 4.33 13.49 2.985 3.618 6.89 5.538 11.865 5.538m-17.9-2.979c-3.197-4.476-4.834-9.8-4.834-16.049 0-6.326 1.637-11.652 4.834-16.128 4.043-5.68 9.94-8.522 17.9-8.522 7.951 0 13.842 2.842 17.753 8.522 3.338 4.476 4.966 9.802 4.966 16.128 0 6.249-1.628 11.573-4.966 16.049-3.911 5.676-9.802 8.518-17.753 8.518-7.96 0-13.857-2.842-17.9-8.518m-36.219 7.237v-22.581l22.509 22.581h8.737l-19.387-18.956 19.888-27.704h-8.034l-16.467 23.443-7.246-7.109v-16.334h-6.393v46.66h6.393zm-54.331 0v-41.045h23.721v-5.615h-29.827v46.66h6.106zm-14.912-5.538h-27.7v-14.344h25.5v-5.538h-25.5v-15.625h28.053v-5.615h-34.3v46.66h33.947v-5.538z" fill-rule="evenodd"/><path d="M317.497 388.128c-34.72 0-65.139 18.722-81.729 46.588h18.854l.401 48.335 20.948-48.335h20.538l20.985 48.335v-48.335h22.513l.807 33.029 7.25 6.04 31.821-39.07h19.335c-16.59-27.865-47.004-46.587-81.723-46.587m-83.823 139.836v-89.56a94.502 94.502 0 0 0-11.235 44.782 94.47 94.47 0 0 0 11.235 44.778m83.823 50.275c34.83 0 65.325-18.841 81.878-46.854h-23.114l-35.045-32.627v32.627h-29.802l-24.569-60.015-23.36 60.015H235.61c16.558 28.013 47.056 46.854 81.886 46.854m95.052-95.053a94.526 94.526 0 0 0-9.839-42.066l-36.925 47.57 36.561 37.263a94.471 94.471 0 0 0 10.203-42.767m-95.052 117.61c-64.958 0-117.616-52.661-117.616-117.61 0-64.955 52.658-117.616 117.616-117.616 64.95 0 117.61 52.66 117.61 117.616 0 64.949-52.66 117.61-117.61 117.61"/></g></svg>