<svg xmlns="http://www.w3.org/2000/svg" width="372.972" height="91.703"><path d="M128.19 5.003c-5.143.025-10.262.237-15.343 1.125-8.413 1.362-16.7 3.919-24.125 8.156-3.737 2.138-7.194 5.138-8.656 9.313-8.05-11.513-21.75-18.9-35.875-18.5-11.4.687-22.612 5.856-29.875 14.78-12.5 14.426-12.394 37.888.156 52.251C24.885 84.653 43.26 90.165 58.66 84.44c14.125-4.537 24.656-17.443 27.343-31.906 1.425-8.162 6.207-15.638 12.97-20.437 7.3-5.188 16.187-7.838 25.062-8.5.062 4.4.118 8.787-.094 13.187-5.663.275-11.456-.6-17.031.688-7.513 2.8-11.75 10.838-12.313 18.5 9.813.062 19.625-.05 29.438.062.112 9.912.019 19.806.03 29.718 6.538-.013 13.057.044 19.595-.03a7498.73 7498.73 0 0 1 .03-44.344c14.45 13.637 28.07 28.175 42.407 41.937 8.1.613 16.288.087 24.438.25-13.888-15.025-28.094-29.756-41.97-44.781 9.563-10.6 19.195-21.175 28.782-31.75.225-.5.681-1.487.906-2-6.962.025-13.925 0-20.875 0-11.337 10.875-22.081 22.4-33.718 32.937-.063-10.975.03-21.963-.032-32.937-5.13.1-10.293-.056-15.437-.031zM45.286 23.44c10.046-.093 19.855 7.416 21.468 17.594 2.613 11.838-6.768 24.413-18.78 25.375-10.313 1.413-20.695-5.881-23.22-15.906-3.137-10.962 4.006-23.332 14.97-26.219 1.825-.572 3.701-.826 5.562-.844z"/><path d="M203.222 5.11c6.5-.089 12.988-.013 19.488-.063.4 17.825-.125 35.662.262 53.487.2 3.125 2.938 5.025 5.475 6.313 21.363 1.125 42.813-.088 64.188.637-.075 6.563-.225 13.138.1 19.7-14.45.837-29 .113-43.5.363-8.8-.263-17.713.724-26.425-.9-7.863-2.35-14.4-8.163-18.388-15.263-.7-2.262-1.462-4.55-1.287-6.95.112-19.112-.075-38.225.087-57.325"/><path d="M243.66 23.521c1.937-7.937 6.437-17.562 15.675-18.387 15.9-.25 31.812.025 47.712-.125.725 7.675 2.275 16.038 8.238 21.475 7.65 6.825 20.962 6 27.387-2.112 4.425-5.438 5.95-12.525 6.575-19.35 6.238.05 12.488-.063 18.725.137v1.05c-.6 6.525-1.35 13.238-4.425 19.15-5 9.912-14.037 18.813-25.525 20.088-.012 13.425.013 26.85 0 40.262-6.287.05-12.562.05-18.837 0 .037-13.412-.075-26.825.075-40.237-11.575-2.938-21.413-11.125-26.45-21.938-16.388-.037-32.763 0-49.15-.013"/><path d="M244.11 37.209c16.2.1 32.412-.188 48.6.138-.338 6.15-.1 12.312-.163 18.462-16.112.212-32.237 0-48.35.1-.075-6.237.05-12.475-.087-18.7"/></svg>