<svg xmlns="http://www.w3.org/2000/svg" viewBox="0 0 140 81"><g fill="#D12430"><path d="M53.5 8.4h-2.7V6.6h1.7c.2 0 .3-.2.3-.3v-.6c0-.2-.2-.3-.3-.3h-1.7V3.9h2.5c.2 0 .3-.2.3-.3v-.7c0-.2-.2-.3-.3-.3h-3.5c-.2 0-.3.2-.3.3v6.4c0 .2.2.3.3.3h3.7c.2 0 .3-.2.3-.3v-.5c0-.2-.1-.4-.3-.4m4.3-3c-.7-.3-1.2-.5-1.2-1s.4-.8.8-.8c.5 0 .8.3 1 1.1 0 .1.1.2.2.2h.3l.6-.2c.2-.1.3-.2.2-.4-.3-1.2-1.2-1.9-2.2-1.9-1.3 0-2.2.9-2.2 2.1 0 1.4 1 1.8 1.9 2.1.8.3 1.2.5 1.2 1.1 0 .5-.4.8-.9.8-.7 0-1.1-.6-1.2-1.1 0-.1-.1-.2-.1-.2-.1 0-.2-.1-.3 0l-.7.2c-.2 0-.3.2-.3.4.3 1.3 1.2 2.1 2.5 2.1s2.3-.9 2.3-2.2c.1-1.5-1-1.9-1.9-2.3m7.4-2.8h-4.1c-.2 0-.3.2-.3.3v.6c0 .2.2.3.3.3h1.4v5.5c0 .2.2.3.3.3h.7c.2 0 .3-.2.3-.3V3.9h1.4c.2 0 .3-.2.3-.3v-.7c0-.1-.1-.3-.3-.3m2.1 5.5h-.8c-.2 0-.3.2-.3.3v1c0 .2.2.3.3.3h.8c.2 0 .3-.2.3-.3v-1c0-.2-.1-.3-.3-.3m9.5.3h-.6V2.9c0-.2-.2-.3-.3-.3h-.6l-1.2.4c-.1 0-.2.2-.2.3v.4c0 .1 0 .2.1.3.1.1.1.1.2.1l.7-.1v4.4h-.6c-.2 0-.3.2-.3.3v.6c0 .2.2.3.3.3h2.5c.2 0 .3-.2.3-.3v-.5c0-.2-.1-.4-.3-.4M81 6.6c.8.3 1.2.6 1.2 1.1 0 .6-.6.9-1.1.9-.5 0-1-.2-1-.9 0-.5.3-.8.9-1.1m.2-1.3c-.3-.1-.9-.4-.9-.9s.5-.7.9-.7.8.2.8.7c0 .4-.3.7-.8.9m1.3.6c.5-.4.8-.9.8-1.5 0-1.2-1.1-1.9-2.2-1.9s-2.2.7-2.2 1.9c0 .8.4 1.2.8 1.5-.7.5-1 1-1 1.8 0 1.4 1.2 2.1 2.4 2.1s2.4-.7 2.4-2.1c0-.7-.3-1.3-1-1.8m4.8-2.2c.3 0 1 .1 1 1.5-.1.2-.5.9-1.2.9-.6 0-.7-.7-.7-1.1.1-.9.5-1.3.9-1.3m.1-1.2c-1.1 0-2.2.8-2.2 2.5s1.3 2.4 2.1 2.4c.4 0 .7-.1 1.1-.3-.3.9-.8 1.5-1.4 1.5-.3 0-.5-.1-.7-.3-.1-.1-.2-.1-.3-.1-.1 0-.2.1-.2.2l-.3.5c-.1.2-.1.4.1.5.4.3.9.4 1.4.4 1.3 0 2.7-1.1 2.7-4.1 0-2.4-1.2-3.2-2.3-3.2m6.1 2.2c-.3 0-.6 0-.8.1l.1-1h2.1c.2 0 .3-.2.3-.3v-.6c0-.2-.2-.3-.3-.3H92c-.2 0-.3.1-.3.3l-.2 3.4c0 .2.1.3.3.4l.5.1h.1c.1 0 .2-.1.3-.2.3-.5.6-.7.9-.7.4 0 .8.4.8 1.3 0 .2 0 1.4-1 1.4-.6 0-.8-.5-.9-.7 0-.1-.1-.2-.2-.2H92l-.6.3c-.2.1-.2.3-.1.4.5.9 1.1 1.4 2.1 1.4 1.4 0 2.3-1.1 2.3-2.7 0-1.1-.7-2.4-2.2-2.4M53.8 63.2c-.2.1-.3.1-.5.2l-.9.3c-.1 0-.2 0-.2.1-.2 0-.3.1-.5.1-.1 0-.2 0-.3-.1v-.2c0-.2.1-.3.1-.5.1-.4.2-.9.4-1.3s.3-.8.5-1.2l.3-.9c.1-.2.1-.4.2-.6.2-.8.5-1.5 1.2-1.8.3-.1.7-.2 1.1-.3h.3c.7 0 1.2.3 1.5.8.2.4.4.9.3 1.4 0 .2-.1.4-.2.7 0 .1-.1.2-.1.3-.1.3-.2.6-.5 1-.2.3-.4.6-.8.9-.5.4-1 .8-1.5 1.1 0-.2-.2-.1-.4 0m-1.3 4.1c1 0 1.9.9 2.1 2.2.2 1.5-.6 3.2-2 4.1-.6.4-1.3.6-1.9.7h-.5c-.7 0-1.2-.2-1.6-.7-.2-.3-.1-.7.1-1.1v-.1c.2-.5.3-1 .5-1.6v-.2c.2-.8.6-2.4 1.3-2.7.5-.2.9-.4 1.4-.5.3-.1.5-.1.6-.1m5.3.5c-.2-.6-.6-1.1-1-1.5l-.3-.3h-.1l-.1-.1-.2-.2s-.1 0-.1-.1c0 0-.1-.1-.2-.1v-.1c.1-.1.2-.2.4-.3.1-.1.2-.1.2-.1.2-.1.3-.2.5-.4.1-.1.2-.1.2-.2.2-.2.5-.3.7-.5.2-.2.4-.3.7-.5l.2-.1c.4-.3.8-.7 1.2-1.1 1.2-1.6 1.6-3.8 1.1-5.7-.1-.4-.3-.7-.6-1.1-.4-.5-.9-1.1-1.5-1.5-.3-.2-.6-.3-.9-.4-.3-.1-.5-.1-.8-.2-.4-.1-.7-.1-1.1-.1h-.9c-.3 0-.7.1-1.1.1H54c-1 .2-1.8.4-2.5.8-.4.2-.7.4-1 .6-.2.1-.3.2-.5.3-.3.2-.7.4-1 .7l-.2.1c-.2.2-1.5 1.2-1.7 1.4-.3.3-.1 1 0 1.4 0 .1 0 .1.1.2.1.3.5 1.1.9 1.2h.1c.2 0 .3-.1.5-.2l.1-.1c.1-.1.3-.1.4-.2.1 0 .2-.1.3-.1 0 0 .1-.1.2-.1.1-.1.2-.2.3-.1.1 0 .1.2 0 .6-.1.2-.2.4-.2.7 0 .1-.1.2-.1.3-.2.6-.4 1.1-.6 1.7l-.5.5c-.1.3-.2.7-.3 1-.2.7-.4 1.4-.7 2-.1.1-.1.3-.1.4l-1.6 4.7c-.5.3-.8.9-.8 1.5 0 .2 0 .4.1.6-.1.4-.3.8-.4 1.2l-.3 1-.3.9c0 .1 0 .1-.1.2-.1.4-.3.9.1 1.1.3.2.7.2 1.1.2h1.1c.3 0 .4-.1.5-.4.2-.4.3-.8.4-1.2.1 0 .2.2.4.3.1.1.2.1.2.2.4.2.8.4 1.2.5.7.2 1.3.3 1.8.3.4 0 .7 0 1.1-.1 1.3-.3 3-1 4.2-2.4 1.5-1.9 2.6-4.8 1.6-7.2"/><path d="M66.2 65.4c-.1.1-.1.3-.1.4-.4 1.5-.9 2.9-1.5 4.1-.2.4-.5.7-.8.8-.6.1-1.5-.3-1.7-.9-.4-1.2-.1-2.6.4-3.6.7-1.4 1.5-2.1 2.6-2.2h.5c.5 0 .8.1.9.4 0 .2-.1.7-.3 1m4.5-3.3c.1-.3.1-.5-.1-.7-.3-.2-1-.3-1.5-.3h-.2c-.3 0-.5.1-.7.3-.1.1-.2.3-.3.5-.1.2-.2.4-.3.5-.9-.5-1.7-.9-2.7-.9-.2 0-.5 0-.7.1-1.4.2-2.3 1-3.1 1.8-1 1-1.4 2.2-1.8 3.4-.3.8-.4 1.5-.4 2.3 0 2.2.6 3.7 1.8 4.3.4.2 1.1.4 1.7.4.3 0 .5 0 .7-.1 0 .3-.2 1-.2 1.1-.2.4-.3.7-.5.9-.4.5-1 .7-1.5.6-.2 0-.3-.2-.5-.3-.2-.2-.5-.4-.8-.4h-.2c-.4.2-1.6 1.7-1.5 2.1 0 .3.4.5.8.8.6.3 1.1.5 1.9.5 1.1 0 2.4-.1 3.4-1.1 1.1-1 1.6-2.3 2-3.6.2-.7.5-1.4.7-2 .2-.6.5-1.2.7-1.8.5-1.4 1-2.9 1.6-4.5.2-.4.4-.9.6-1.3.1-.3.3-.6.4-.9.1-.1.1-.2.2-.4.1-.3.4-.7.5-1.3zm5.4-.6h.2c.1 0 .2 0 .3.1.2.1.6.4.7 1.5.1.7-.1 1.6-.3 2.4-.5 1.5-1.7 2.4-2.4 2.5-.2 0-.3 0-.4-.1-.2-.1-.5-.5-.6-1.5-.1-.8.1-1.7.4-2.6.4-1.5 1.5-2.3 2.1-2.3m4 1.7c0-.3 0-.6-.1-.9-.1-.7-.3-1.7-1-2.5-.6-.8-1.8-.9-2.5-.9h-.1c-1 0-1.8.3-2.7.9-2.1 1.3-3.5 3.8-3.5 6.4 0 1.1.3 3.1 2 4.1.5.3 1.1.4 1.8.4 1.5 0 3.1-.8 4.3-2.2.7-.9 1.2-2 1.5-3.5.2-.6.3-1.2.3-1.8m5-5.9c.4 0 .7.2 1 .4.3.2.6.5 1.1.4.7-.1 1.2-.8 1.4-1.1.1-.2.2-.5.1-.7-.3-.8-2-1.3-2.5-1.4-.3-.1-.6-.1-.9 0-.9.1-2.1.8-2.6 1.6-.4.7-.7 1.5-.7 2.2-.1 1 .2 2.2.8 3.2.1.2.3.4.4.6.6.9 1.4 2.1.7 3-.3.4-.9.5-1.1.5-.2 0-1.1-.2-1.3-.3 0 0-.1 0-.1-.1-.1-.1-.2-.1-.3-.1-.3 0-.5.4-.7.6l-.1.1c-.2.3-.7 1-.5 1.6.1.3.3.5.7.6.7.2 1.3.3 1.9.3h.6c.7 0 1.3-.1 1.7-.3 1-.4 2-1.7 2.2-2.9.3-1.7-.4-3.3-1-4.3l-.1-.1c-.3-.5-.6-1-.8-1.5-.1-.2-.2-.5-.3-.8-.1-.3-.1-.9.1-1.2 0-.2.1-.2.3-.3M96 55.8c-.3-.3-.7-.5-1.1-.6-.4-.1-1.1.1-1.6.4.2-.4.4-.9.5-1.4l.3-.9c.2-.5.4-1 .6-1.6 0 0 0-.1.1-.1.3-.6.5-1.4.3-1.7 0-.1-.1-.1-.2-.2-.2 0-.5-.1-.8-.1-.8 0-1.3.2-1.5.7l-.1.2c-.1.1-.1.2-.2.5-.2.4-.3.8-.5 1.2-.1.3-.2.7-.4 1-.3.7-.5 1.5-.8 2.2-.2.5-.3.9-.5 1.4-.1.4-.3.7-.4 1.1-.3.8-.6 1.7-.9 2.5-.2.6-.4 1.2-.7 1.8-.2.5-.3.9-.5 1.4-.1.4-.2.8-.4 1.2v.1c-.1.4-.5 1.1-.2 1.6.1.1.2.2.4.2.3 0 .7.1.9.1h.5c.7 0 .9-.6 1.1-1.2 0-.1.1-.2.1-.3.1-.3.2-.7.3-1 .1-.4.2-.8.4-1.2.1-.1.1-.4.2-.6.4-1 1.1-2.9 1.4-3.3.4-.5 1.1-1 1.4-1h.1c.4.2.1 1-.1 1.5 0 .1 0 .1-.1.2-.1.4-.3.8-.5 1.2-.1.3-.3.7-.4 1-.1.4-.3.7-.4 1.1-.1.3-.3.7-.4 1.1-.1.4-.3.9 0 1.1.1.1.2.1.5.1.6 0 1.6-.2 1.8-.3.2-.1.6-1.3 1.2-3.1.2-.6.4-1.1.5-1.5.1-.2.1-.4.2-.6.3-.7.5-1.3.6-2.1.2-1 0-1.5-.7-2.1m-32.4 3.3c.1 0 .3.1.4.1h.2c.5-.1 1-.3 1.5-.7 1.2-.9 1.8-2.8 1.4-4.3-.2-.5-1-1.1-1.5-1.2-.8-.2-1.4.1-1.8.7-.4.7-.4 1.6 0 2.3.1.2.3.3.5.5.3.2.5.4.5.7 0 .4-.4.6-.8.7-.3.1-.6.3-.7.5-.1.2-.1.3-.1.4 0 .2.2.3.4.3M13.8 41.6c-4.4 0-6.4-4.9-6.4-9.5 0-4.9 2-9.8 6.4-9.8 4.3 0 6.3 5 6.3 9.6.1 4.8-1.9 9.7-6.3 9.7m13.1-10C26.9 22.3 21.7 16 14 16 6.2 16 .7 22.6.7 32.1c0 9.2 5.3 15.7 12.9 15.7 6.6 0 13.3-5 13.3-16.2m6.8 12.3c5.6 0 8.1-3.8 8.1-7.5 0-4.5-3.1-6.4-5.7-7.5-2.6-1.1-3.1-1.8-3.1-2.9 0-.4.2-1.9 2.4-1.9 1.7 0 2.8.7 2.9.8.3.2.8.3 1.2.2.4-.1.7-.5.8-.8L41 22c.2-.6-.1-1.2-.5-1.5-1.2-.8-3.1-1.3-5-1.3-4.4 0-7.6 3-7.6 7.1 0 3.3 1.9 5.7 5.9 7.3 2.7 1.1 2.9 2 2.9 3 0 1.5-1 2.4-2.8 2.4-1.3 0-2.7-.4-3.7-1.2-.3-.2-.8-.3-1.2-.2-.4.1-.7.5-.8.9l-.7 2.3c-.1.5 0 1.1.5 1.4 1.2 1 3.6 1.7 5.7 1.7m11.7-.4H48c.7 0 1.3-.6 1.3-1.3v-8.8h6.8v8.8c0 .7.6 1.3 1.3 1.3h2.5c.7 0 1.3-.6 1.3-1.3V20.8c0-.7-.6-1.3-1.3-1.3h-2.5c-.7 0-1.3.6-1.3 1.3v7.7h-6.8v-7.7c0-.7-.6-1.3-1.3-1.3h-2.5c-.7 0-1.3.6-1.3 1.3v21.4c-.1.7.5 1.3 1.2 1.3m24.1 4c.9 0 1.7-.7 1.7-1.7V36l.6-.7 7 11.5c.3.5.8.8 1.4.8H84c.6 0 1.2-.3 1.4-.8.3-.5.3-1.2 0-1.7l-9.2-14.9 8.4-10.8c.4-.5.5-1.2.2-1.7-.3-.6-.9-.9-1.5-.9h-4c-.5 0-1 .2-1.3.7l-6.7 9.1v-8.1c0-.9-.7-1.7-1.7-1.7h-3.2c-.9 0-1.7.7-1.7 1.7V46c0 .9.7 1.7 1.7 1.7h3.1z"/><path d="M93.4 24c3.4 0 4.9 3.9 4.9 7.5 0 3.8-1.5 7.6-5 7.6-3.4 0-5-3.8-5-7.4.1-3.9 1.6-7.7 5.1-7.7m-.2 19.9c5.1 0 10.3-3.9 10.3-12.6 0-7.3-4.1-12.2-10.1-12.2-6.1 0-10.3 5.2-10.3 12.6.1 7.2 4.2 12.2 10.1 12.2m26-7.5c0-4.5-3.1-6.4-5.7-7.5-2.6-1.1-3.1-1.8-3.1-2.9 0-.4.2-1.9 2.4-1.9 1.7 0 2.8.7 2.9.8.3.2.8.3 1.2.2.4-.1.7-.4.8-.8l.7-2.3c.2-.6 0-1.2-.5-1.5-1.2-.8-3.1-1.3-5-1.3-4.4 0-7.6 3-7.6 7.1 0 3.3 2 5.7 5.9 7.3 2.7 1.1 2.9 2 2.9 3 0 1.5-1 2.4-2.8 2.4-1.3 0-2.7-.4-3.7-1.2-.3-.2-.8-.3-1.2-.2-.4.1-.7.5-.8.9l-.7 2.3c-.1.5 0 1.1.5 1.4 1.3 1 3.7 1.6 5.7 1.6 5.6.1 8.1-3.7 8.1-7.4M138 19.5h-2.5c-.7 0-1.3.6-1.3 1.3v7.7h-6.8v-7.7c0-.7-.6-1.3-1.3-1.3h-2.5c-.7 0-1.3.6-1.3 1.3v21.4c0 .7.6 1.3 1.3 1.3h2.5c.7 0 1.3-.6 1.3-1.3v-8.8h6.8v8.8c0 .7.6 1.3 1.3 1.3h2.5c.7 0 1.3-.6 1.3-1.3V20.8c0-.7-.6-1.3-1.3-1.3M90.2 46.8s0 .8.8.8h47.5s.8 0 .8-.8v-.6s0-.8-.8-.8H91s-.8 0-.8.8v.6zm-29-.7s0-.8-.8-.8H27.1s-.8 0-.8.8v.6s0 .8.8.8h33.4s.8 0 .8-.8v-.6zM100 56.9c.1 0 .3 0 .4-.1.1-.1.2-.1.3-.2.1-.1.2-.2.2-.3.1-.1.1-.3.1-.4 0-.1 0-.3-.1-.4-.1-.1-.1-.2-.2-.3-.1-.1-.2-.2-.3-.2-.1-.1-.3-.1-.4-.1-.1 0-.3 0-.4.1-.1.1-.2.1-.3.2-.1.1-.2.2-.2.3-.1.1-.1.2-.1.4 0 .1 0 .3.1.4.1.1.1.2.2.3.1.1.2.2.3.2.1.1.2.1.4.1m0-2.2c.2 0 .3 0 .5.1s.3.2.4.3c.1.1.2.2.3.4.1.2.1.3.1.5s0 .3-.1.5-.2.3-.3.4c-.1.1-.2.2-.4.3-.2.1-.3.1-.5.1s-.3 0-.5-.1-.3-.2-.4-.3c-.1-.1-.2-.2-.3-.4-.1-.2-.1-.3-.1-.5s0-.3.1-.5.2-.3.3-.4c.1-.1.2-.2.4-.3.1-.1.3-.1.5-.1"/><path d="M100.2 55.6c0-.1-.1-.2-.2-.2h-.1v.4h.1c.1 0 .1 0 .2-.1-.1 0 0 0 0-.1m.3 1l-.2.1v-.3c0-.1-.1-.2-.3-.2h-.1v.6h-.2v-1.4h.3c.2 0 .3 0 .4.1l.1.1v.4c0 .1-.1.1-.1.1v.5c0-.2.1-.2.1 0 0-.1 0-.1 0 0"/></g></svg>