<svg preserveAspectRatio="xMidYMid" width="256" height="256" viewBox="0 0 256 256" xmlns="http://www.w3.org/2000/svg"><path d="M131.8 244.4c0 2.8-1.3 2.7-2.7 2.7-1 0-4 .2-6.2-5-.1-.6 0-2.3 1.9-2.7 0 0 9.2-3.6 10.2-4.1 1.1-.5 1.2-2.4 1.2-3.9s-2.3-12.6-10.9-12.6c-8.6 0-12 9.3-12 19.4s4.8 17.8 13.4 17.8c8.6 0 10-5.5 10-8.9.2-4-4.9-4.9-4.9-2.7zm-89.5 7.9c-1.3-.8-1.6-1.7-1.6-2.7v-27.4c0-2.4-1.1-3.2-1.7-3.2-1.6 0-9 3.2-10.8 4.1s-.4 2.1.4 2.5c.8.4 1.5.8 1.5 2.9v21c0 .9-.3 1.9-1.6 2.7-.3.2-.4.4-.5.6-.1-.3-.4-.6-.8-.9-2-1.5-1.7-2.1-1.7-3.9v-37.8c0-2-.1-3.6.9-3.6 2.7 0 4.1 5.1 5.6 8.5 1.5 3.5 6.2 1.6 5.7-.8-.5-2.4-1.6-9.2-2.1-11.6-.5-2.4-1.5-4-2.4-4s-2.5 1.5-2.5 1.5l-11.2.2-11.2-.2s-1.6-1.5-2.5-1.5-1.9 1.6-2.4 4-1.6 9.2-2.1 11.6c-.5 2.4 4.3 4.3 5.7.8 1.5-3.5 2.9-8.5 5.6-8.5 1.1 0 .9 1.6.9 3.6V248c0 1.8.3 2.4-1.7 3.9s-.3 3 2.9 3h9.7c2 0 3.4-.6 3.7-1.4.2.7 1 1.4 1.8 1.4H41c1.5.1 2.7-1.8 1.3-2.6zm130.7 0c-1.3-.8-1.6-1.7-1.6-2.7v-45.3c0-2.4-1.1-3.2-1.7-3.2-1.6 0-9 3.2-10.8 4.1-1.7.9-.4 2.1.4 2.5.8.4 1.5.8 1.5 2.9v10.1c-.7-1-1.9-1.6-3.7-1.6-6.3 0-5.3 4.6-8.8 5.5v-2.5c0-2.4-1.1-3.2-1.7-3.2-1.6 0-9 3.2-10.8 4.1s-.4 2.1.4 2.5c.8.4 1.5.8 1.5 2.9v21c0 .9-.3 1.9-1.6 2.7-1.3.8-.1 2.8 1.3 2.8h11.2c1.5 0 2.7-2 1.3-2.8-1.3-.8-1.6-1.7-1.6-2.7v-13.7c.8-2.7 2.9-8.1 6-8.1 1.3 0 .9 3.6 4 3.6.7 0 1.8-1.5 2.5-3.5v21.6c0 .9-.3 1.9-1.6 2.7-1.3.8-.1 2.8 1.3 2.8h11.2c1.5.2 2.6-1.7 1.3-2.5zm56.7 0c-1.3-.8-1.6-1.7-1.6-2.7 0-1.9.6-30.2-9.9-30.2-3.3 0-3.9 2.2-5.6 3.1v-.4c0-2.4-1.1-3.2-1.7-3.2-1.6 0-9 3.2-10.8 4.1s-.4 2.1.4 2.5c.8.4 1.5.8 1.5 2.9v21c0 .9-.2 1.8-1.4 2.6-.2-1.1-1.1-2.4-2.1-2.4-1.1 0-1.3-.9-1.3-2.1 0-1.2 0-1.7-1.1-14.9-1.1-13.2-6.6-12.8-12.5-12.8s-10.9 2.8-10.9 7.3 2.9 4.9 5.2 4.9c2.3 0 4-.5 4-3.5 0-2.9-1.9-3.9-1.9-3.9s.9-.3 3.1-.3 3.3 3.3 3.3 6.2c0 2.4-4.3 2.5-5.8 3.3-5.5 2.8-8.2 7.2-8.2 12.6s3.2 8.2 4.3 8.2h9.3c2.1 0 3.1-1.2 3.7-1.2.7 0 1.1 1.2 1.9 1.2h5.8c1.8 0 2.6-.3 3-.7.4.4.9.7 1.4.7H213c1.5 0 2.7-2 1.3-2.8s-1.6-1.7-1.6-2.7v-20.7c0-.8 1.1-2 2.2-2 2.8 0 3.7 19.8 3.7 22.7 0 .9-.3 1.9-1.6 2.7s-.1 2.8 1.3 2.8h10c1.5.4 2.7-1.5 1.4-2.3zm-127.3-33.8c-2.9 0-2.4 1.3-4.5 1.9v-17c0-2.4-1.1-3.2-1.7-3.2-1.6 0-8.3 3.2-10.1 4.1-1.7.9-.4 2.8.4 3.2.8.4.8.8.8 2.9v39.7c0 1.1.1 2 .2 2.6-.1-.2-.2-.4-.5-.5-1.3-.8-1.6-1.7-1.6-2.7 0-1.9.6-30.2-9.9-30.2-3.8 0-4 2.9-6.4 3.5-1-2.1-2.8-3.9-6-3.9-5.2 0-4.5 3-7.2 3.7v-.5c0-2.4-1.1-3.2-1.7-3.2-1.6 0-9 3.2-10.8 4.1-1.7.9-.4 2.1.4 2.5.8.4 1.5.8 1.5 2.9v21c0 .9-.3 1.9-1.6 2.7-1.3.8-.1 2.8 1.3 2.8h11.2c1.5 0 2.7-2 1.3-2.8-1.3-.8-1.6-1.7-1.6-2.7v-19.9c0-2.1 1.5-3.4 2.7-3.4 1.2 0 2.1.8 2.1 3.2v20.1c0 .9-.3 1.9-1.6 2.7-1.3.8-.1 2.8 1.3 2.8h10c1.5 0 2.7-2 1.3-2.8-1.3-.8-1.6-1.7-1.6-2.7V228c0-.7 1-1.4 1.9-1.4 2.8 0 3.7 19.8 3.7 22.7 0 .9-.3 1.9-1.6 2.7-1.3.8-.1 2.8 1.3 2.8h10c1 0 1.9-.9 1.9-1.8.5 2 1.4 1.8 2 1.8.8 0 1.5.5 3.7-3.2.4-.7 1.3-.3 2.5 1.1 1.2 1.3 1.9 2.9 6.9 2.9s10.5-.8 10.5-19c.3-14.1-7.6-18.1-10.5-18.1zm154.1 33.8c-1.3-.8-1.6-1.7-1.6-2.7v-44.1c0-2.4-1.1-3.2-1.7-3.2-1.1 0-4.7 2.2-7.6 3.4-1.3.6-2.6.4-3.2.7-1.7.9-.4 2.1.4 2.5.8.4 1.5.8 1.5 2.9v10.5c-.7-.7-2.5-2-5.1-2-3.5 0-10.5 6.5-10.5 20.2 0 5.7 1.7 9.8 2.8 12.4 1.1 2.5 2.3 2.1 4 2.1h19.7c1.4 0 2.6-1.9 1.3-2.7zm-155.4-28.2c2.4 0 3.5 8 3.5 12s-1.1 10.9-3.7 10.9c-2.7 0-3.1-8.1-3.1-10.9 0-2.8.9-12 3.3-12zm22.3-.4c1.2 0 3.9 3.7 3.9 7.3 0 3.6-3.1 4.7-4.5 4.7-.6 0-1.4-.1-1.5-.7-1.3-10.2.9-11.3 2.1-11.3zm63.4 13.4v10.6c0 1.2-.3 2.7-1.9 2.7-1.6 0-3.2-.5-3.2-5.9.1-5.2 2.3-7.4 5.1-7.4zm54-10.6c1.5 0 4 4.3 4 11.8 0 7.6-1.9 10.9-3.1 10.9-1.2 0-3.9-3.1-3.9-10.8.1-7.7 2.1-11.9 3-11.9zm-71.5-71.3c-15.4-.2-57.4-3.9-80.3-4.1-17.8-.2-32.3 1.4-37.9 2.2 1.9 2.5 3.8 5 5.9 7.2 7.4.1 28.4 1 67.4 7.6 32.4 5.5 50.4 6.4 59.2 6.3 8.8-6.2 16.6-14 22.9-22.8-9.1 1.6-25.5 3.7-37.2 3.6zm-110.5 7.3c17.5 18.2 42 29.5 69.2 29.5 18.8 0 36.2-5.4 51.1-14.7-9.7-.2-27.1-1.6-55.8-6.8-34.8-6.1-55.1-7.6-64.5-8zm162-91.4l-51.5 13.1 5.6-10.4c12.2-1.9 27.7-5.8 42.2-13.6-1.1-2.8-2.3-5.5-3.8-8.1-12.4 6.2-23.6 9.1-32.4 10.2l8-15.2 20.8-1.4c-1.8-2.9-3.8-5.8-5.9-8.5h-24l9.5-15c-2-1.7-4-3.2-6.1-4.7l-19.3 26.8-5.6-11.1.9-3.9 18.3-15.5c-2-1.2-4.1-2.3-6.2-3.4L152 20.8 142.1 1c-2.8-.4-5.8-.8-8.7-.9L144 27.2l-3.1 2.8-15.7-30c-.9 0-1.8.1-2.8.2l-12 25.3L98.1 4.7c-4 1.4-8 2.9-11.8 4.7L85.7 26 68 21c-3.7 2.9-7.1 6.2-10.3 9.6L79 56.8l-6 .5L53.9 35c-2.3 2.8-4.5 5.8-6.5 8.9l11.9 14.5L39 59.8C34.5 71 32 83.2 32 96c0 20.8 6.6 40.1 17.9 55.8 4.5-.7 19.8-2.7 39-2.7 23 0 65 3.3 80.3 3.3 13.1 0 31.7-2.8 39.5-4.5 9.6-15 15.2-32.8 15.2-51.9.1-8.6-1-17-3.1-24.9zm-47.9-22.9l5.3-.4-9.2 15.1c-2 0-3.8-.1-5.2-.3l9.1-14.4zm-11.3 27.1l-7.8 12.9-7.2 1.9 9.1-14.5c1.5-.1 3.4-.1 5.9-.3zm-9.1-26l2.8 7.1-15.7 21.9-.7-19.5 13.6-9.5zM109.2 55l2.5 17-6.9-6.8 4.4-10.2zm-9.7-24.8l-4.1-.5-.4-7.5 4.5 8zm4.7 11.7l-7.4 12.7-.8-15.4 8.2 2.7zM70.1 31l14.4 4.6.8 10.4-15.2-15zm4.4 35.3l13.9-.5 4.8 4.1-13.6 11-13-4.9 7.9-9.7zm-15.2.5l-3.7 5-11.8-4.4 15.5-.6zm-14 9.9l4.9 2.3-6.8 9.2c.4-4 1.1-7.8 1.9-11.5zm74.3 58.7C96 132 72.5 128.6 49.2 128c-3.9-9.8-6.1-20.5-6.1-31.6v-.7l4.6.2h3.2L60.4 84l11 5.3-5.3 7.3 12.4.5L102 77.3l5.9 6.6-23.6 13.2 19.7.8 12.2-4.7 4.6 5.1-1.2 37.1zm4.7-62l-1.5-6.5 5.6-2.5.2 9.2-4.3-.2zm4.8-22.7l-8.1 5.9-4.7-18.2 8.3-19.2 7.3 15.3-2.8 16.2zm72.5 93.6c-20.5-.5-41-3-61.5-5.9-4.3-18.3-2.3-37-2.3-37l31.4-7.8 4.4 6.5 8.3-.4-2.2-8.7 12.3-3.1c2.1 3.1 7.7 10.4 13.5 13.5l6.5-3.1s-6.1-7.5-7.9-13.5l10.5-2.6c.8 4.6 1.1 9.2 1.1 14 .3 17.8-5 34.3-14.1 48.1z"/></svg>