<svg xmlns="http://www.w3.org/2000/svg" width="2426.487" height="1590.43" viewBox="0 0 187.088 122.62601"><g clip-rule="evenodd" fill-rule="evenodd"><path d="M187.072 122.626V92.283H0v30.343h187.072z" fill="#001c4e"/><path d="M24.093 113.933h-.991v-6.043H14.59v6.043h-.991v-12.758h.991v5.893h8.512v-5.893h.991v12.758zm16.743 0h-.991v-12.758h.991v12.758zm16.725-.824h6.304v.824h-7.296v-12.758h.992v11.934zm27.144-11.112H79.13v4.846h5.033v.822H79.13v6.268h-.991v-12.758h6.566v.822zm15.434 11.936h-.993v-12.758h.993v12.758zm26.414-10.719c-1.553-.879-2.994-1.291-4.527-1.291-3.236 0-5.631 2.395-5.631 5.631 0 2.861 1.889 5.631 5.91 5.631 1.479 0 2.49-.281 3.5-.785v-3.443h-2.695v-.822h3.686v4.883c-1.516.729-3.049 1.084-4.527 1.084-3.965 0-6.939-2.805-6.939-6.584 0-3.742 2.9-6.51 6.848-6.51 1.439 0 2.58.279 4.377 1.084v1.122h-.002zm22.56-1.217h-5.967v5.108h5.817v.822h-5.817v5.182h6.118v.824h-7.11v-12.758h6.959v.822zm15.994 0h2.076c2.34 0 3.367 1.049 3.367 2.488 0 1.535-1.084 2.508-3.33 2.508h-2.113v-4.996zm-.99-.822v12.758h.99v-6.117h1.721c1.535 0 2.021.205 3.555 2.619l2.227 3.498h1.16l-2.881-4.414c-.6-.898-1.105-1.629-1.703-1.945 1.627-.6 2.432-1.629 2.432-3.105 0-1.703-1.104-3.293-4.227-3.293h-3.274v-.001zM.126 30.343v61.94h92.98v-61.94H.126z" fill="#fff"/><path d="M93.106 92.283h93.966v5.888h.016V30.343H93.106v61.94z" fill="#b81d37"/><path d="M187.088 30.343V0H.015v30.343h187.073z" fill="#001c4e"/><path d="M24.022 10.28h-4.789v11.935h-.992V10.28h-4.789v-.824h10.57v.824zm36.012 5.555c0 3.18-2.469 5.631-5.668 5.631-3.199 0-5.706-2.451-5.706-5.631s2.506-5.63 5.706-5.63c3.198 0 5.668 2.45 5.668 5.63zm1.066 0c0-3.667-2.975-6.547-6.771-6.547-3.779 0-6.735 2.881-6.735 6.547s2.956 6.547 6.735 6.547c3.796.001 6.771-2.88 6.771-6.547zm37.041-6.379h.992v12.759h-.992V10.896h-.037l-4.827 5.968-4.826-5.968h-.038v11.319h-.992V9.456h.992l4.864 5.931 4.864-5.931zm38.554 0h.992v12.759h-.992V10.896h-.037l-4.826 5.968-4.826-5.968h-.037v11.319h-.992V9.456h.992l4.863 5.931 4.863-5.931zm32.346 5.912v6.847h-.992v-6.847l-4.957-5.912h1.197l4.266 5.051 4.246-5.051h1.197l-4.957 5.912z" fill="#fff"/></g></svg>