<svg xmlns="http://www.w3.org/2000/svg" version="1" width="791.429" height="320"><g fill="#231f20"><path d="M771.149 27.657c-5.457 12.799 5.141 33.081-10.13 37.057l-474.417-1.59-50.336 1.046-7.124 10.892-59.377 225.254-8.224 3.736-80.139-1.405-7.526-15.631C51.567 195.178 26.47 104.866 5 13.136c20.533-2.69 44.454-4.248 65.303.142 21.73 67.09 31.61 138.492 50.543 207.956l2.483 2.015 5.86-6.623 51.099-200.363 5.719-4.793 538.804.871c15.435 4.815 47.667-11.001 46.338 15.316"/><path d="M771.89 114.179c1.34 15.076-13.006 28.899-23.474 37.7-19.531-8.67-43.637-26.557-67.645-13.627-7.505 5.632-12.777 15.74-7.298 24.073 33.245 24.869 92.567 11.318 105.072 61.763 6.177 21.71 1.231 49.475-15.969 64.856-27.711 25.849-67.895 31.317-106.63 20.173-16.993-7.581-35.99-12.679-50.706-26.295 5.653-15.435 15.61-28.637 26.295-40.162 21.6 5.348 40.424 22.864 67.111 19.738 8.823-.142 19.923-6.242 24.28-15.675 3.148-37.58-44.846-23.06-66.925-33.757-22.461-5.381-40.206-24.542-44.628-46.022-4.347-22.461 1.873-43.996 19.019-58.44 40.15-27.461 103.307-23.126 141.498 5.675m-183.381-10.915c1.6 64.53 1.328 131.542-.502 195.723-20.794 5.359-44.203.719-66.228.675-17.788-29.64-28.681-57.983-49.083-87.85-2.582-1.101-3.747 2.341-5.556 3.017l-1.677 82.861c-13.889 7.604-33.518.698-49.628 3.748l-3.54-10.926c.653-60.76-1.732-127.12 3.18-186.66 17.995-3.78 38.3-3.878 58.495-3.083l5.85 4.02 45.249 81.348 6.285-1.21c-1.558-23.975 3.66-54.333 2.342-80.966 15.555-6.634 38.212-3.006 54.813-.697M312.374 208.968c-1.373-16.001-7.963-31.458-14.662-45.314-9.074 12.472-8.747 30.14-12.669 44.802 7.418 6.808 19.14 3.453 27.33.512m47.984-56.839l36.284 146.858c-15.5 5.697-35.457 1.405-53.092 1.667-8.703-12.19-3.224-35.522-23.267-38.093-18.638 1.133-42.787-6.154-55.423 8.616l-8.693 30.097c-16.916 2.168-37.264 2.299-52.775-1.753 17.003-66.48 36.6-131.837 57.013-197.183 25.173-4.945 57.645-3.093 83.733-.033l16.22 49.824zm419.8-71.871c-.403-.185-.98-.283-1.742-.283h-.698v3.279h1.133c.708.021 1.242-.131 1.623-.37.392-.317.589-.774.589-1.384.01-.62-.316-1.046-.905-1.242m-5.315 8.921V78.101c.708-.021 1.72 0 3.104 0 1.373.022 2.146 0 2.266 0 .915.066 1.645.25 2.211.6.991.511 1.47 1.416 1.47 2.614 0 .947-.239 1.623-.762 2.004-.512.425-1.144.675-1.906.73.708.152 1.22.392 1.58.664.653.556 1.023 1.406 1.012 2.528l.011.969c-.01.109.033.218-.01.349 0 .087.043.217.043.305l.076.359-2.745-.054c-.087-.316-.152-.85-.174-1.536-.011-.643-.076-1.079-.196-1.34a1.426 1.426 0 0 0-.806-.839 4.66 4.66 0 0 0-1.035-.163h-.632l-.632-.022v3.921l-2.875-.01zm-1.416-11.306c-1.602 1.59-2.397 3.518-2.397 5.784 0 2.265.817 4.248 2.44 5.882 1.623 1.612 3.54 2.407 5.795 2.375 2.277.043 4.248-.807 5.882-2.419 1.569-1.623 2.386-3.594 2.386-5.838 0-2.266-.817-4.194-2.407-5.773-1.667-1.689-3.584-2.517-5.86-2.517-2.256 0-4.216.828-5.84 2.506m12.865 12.951c-1.972 1.874-4.303 2.843-7.026 2.821-2.832-.032-5.207-.98-7.146-2.897-1.895-1.928-2.832-4.335-2.875-7.135 0-2.92 1.056-5.36 3.148-7.276 1.96-1.852 4.237-2.734 6.895-2.767 2.745 0 5.152.98 7.048 2.93 1.982 2.004 2.952 4.346 2.952 7.113.01 2.854-.97 5.283-2.996 7.211"/></g></svg>