<svg xmlns="http://www.w3.org/2000/svg" width="191.637" height="28.5" version="1"><g font-weight="400" fill="#333" font-family="Bitstream Vera Sans"><path style="text-align:start;line-height:125%;marker:none" d="M23.299 13.98c0-1.214 0-2.046.002-2.495.002-.45.008-.78.017-.994.012-.281.059-.49.138-.627.08-.136.231-.226.455-.269a1.895 1.895 0 0 1 .42-.038.139.139 0 0 0 .089-.045.138.138 0 0 0 .045-.088.105.105 0 0 0-.062-.103.487.487 0 0 0-.205-.03 42.88 42.88 0 0 0-1.007.018l-.677.02-.679-.02a42.17 42.17 0 0 0-1.023-.019.487.487 0 0 0-.206.031.105.105 0 0 0-.062.103c0 .03.014.06.038.088a.13.13 0 0 0 .096.045 3.226 3.226 0 0 1 .516.057.55.55 0 0 1 .39.26c.081.138.13.344.146.617.018.214.03.545.034.994.004.45.005 1.281.004 2.495v2.86c.001.789-.005 1.485-.019 2.09a17.286 17.286 0 0 1-.076 1.418c-.023.24-.063.433-.12.58a.437.437 0 0 1-.32.278 3.07 3.07 0 0 1-.258.053c-.094.015-.18.023-.259.023-.047.002-.081.018-.103.046a.142.142 0 0 0-.03.088c.003.092.092.137.267.133.29-.002.62-.011.99-.028s.595-.026.674-.029l.73.029c.423.017.881.026 1.374.028a.435.435 0 0 0 .206-.038c.042-.024.063-.056.062-.095a.15.15 0 0 0-.03-.088c-.022-.028-.056-.044-.104-.046-.083 0-.199-.008-.346-.023a8.691 8.691 0 0 1-.419-.053c-.24-.04-.396-.132-.47-.279a1.57 1.57 0 0 1-.142-.579 15.89 15.89 0 0 1-.067-1.418 146.73 146.73 0 0 1-.01-2.09v-2.86zm22.926-3.946l2.104.038c.784.023 1.316.115 1.595.276.28.162.423.368.433.62l.019.171a.686.686 0 0 0 .045.23c.021.04.05.059.089.056.04 0 .075-.018.105-.054a.244.244 0 0 0 .048-.155c.002-.13.012-.4.028-.81.017-.411.027-.758.03-1.04a.554.554 0 0 0-.01-.13c-.008-.038-.03-.058-.067-.06a.98.98 0 0 0-.175.024 7.072 7.072 0 0 1-.799.105 9.853 9.853 0 0 1-.71.023h-6.35a13.205 13.205 0 0 1-1.32-.076 2.301 2.301 0 0 1-.502-.117.946.946 0 0 0-.244-.074c-.03.007-.06.046-.093.117a3.023 3.023 0 0 0-.079.188c-.024.121-.086.409-.189.863-.102.455-.16.752-.174.891.002.048.016.082.043.103.026.021.05.031.071.03a.16.16 0 0 0 .1-.025c.03-.02.053-.062.072-.127.025-.053.053-.118.084-.193.032-.075.093-.182.184-.321.114-.187.298-.319.55-.394.253-.075.637-.115 1.153-.121l2.429-.038v6.806c.001.789-.002 1.485-.01 2.09a15.89 15.89 0 0 1-.067 1.418 1.9 1.9 0 0 1-.14.589.499.499 0 0 1-.357.288c-.078.02-.161.038-.249.053-.087.015-.17.023-.248.024-.048 0-.082.013-.103.035a.11.11 0 0 0-.031.079.104.104 0 0 0 .062.102c.042.021.11.032.206.031.285-.002.628-.011 1.028-.028l.712-.029.734.029c.418.017.869.026 1.351.028a.435.435 0 0 0 .206-.038c.042-.024.063-.056.062-.095a.15.15 0 0 0-.024-.088c-.018-.028-.054-.044-.11-.046a6.836 6.836 0 0 1-.765-.076c-.25-.04-.415-.132-.497-.279a1.43 1.43 0 0 1-.153-.579c-.037-.34-.06-.813-.067-1.418-.008-.605-.012-1.301-.01-2.09v-6.806zm5.755 5.357c-.004.997.223 1.98.682 2.948.458.968 1.173 1.774 2.144 2.417.97.644 2.222.979 3.754 1.003 2.056-.05 3.688-.699 4.897-1.95 1.21-1.25 1.828-2.805 1.855-4.666-.04-1.905-.676-3.39-1.908-4.456-1.23-1.066-2.814-1.608-4.748-1.626-1.546.03-2.811.384-3.796 1.061-.986.677-1.713 1.5-2.182 2.467-.469.968-.701 1.902-.698 2.802zm1.741-.438c.026-1.764.481-3.085 1.365-3.964.885-.879 2.043-1.318 3.474-1.318 1.373.004 2.544.506 3.513 1.507.968 1 1.475 2.474 1.518 4.423-.028 1.544-.31 2.714-.844 3.508-.535.794-1.154 1.328-1.857 1.602-.702.273-1.32.4-1.851.38-1.553-.019-2.819-.57-3.8-1.653-.98-1.083-1.486-2.578-1.518-4.485zM68.73 16.84c.002.789-.002 1.485-.012 2.09-.01.605-.038 1.078-.084 1.418-.031.24-.073.433-.126.58a.423.423 0 0 1-.314.278c-.078.02-.165.038-.258.053s-.18.023-.258.023c-.047.002-.082.018-.103.046a.142.142 0 0 0-.03.088c.002.092.092.137.267.133.294-.002.634-.011 1.018-.028l.646-.029.717.029c.416.017.866.026 1.349.028a.435.435 0 0 0 .205-.038c.043-.024.063-.056.063-.095a.15.15 0 0 0-.024-.088c-.018-.028-.055-.044-.11-.046a3.61 3.61 0 0 1-.345-.023 6.978 6.978 0 0 1-.401-.053c-.25-.04-.42-.132-.507-.279a1.353 1.353 0 0 1-.163-.579c-.036-.34-.059-.809-.067-1.408-.008-.6-.01-1.293-.01-2.08v-.382c0-.092.039-.137.115-.134l1.456.039a.32.32 0 0 1 .129.019.329.329 0 0 1 .1.076c.19.235.45.575.78 1.018.329.442.675.891 1.037 1.346.47.61.88 1.111 1.234 1.506s.708.687 1.062.877c.199.114.432.197.698.248.266.052.633.077 1.1.076h1.052c.15 0 .256-.01.315-.03.06-.022.089-.056.087-.103a.13.13 0 0 0-.041-.088.157.157 0 0 0-.113-.046 2.598 2.598 0 0 1-.21-.007 3.875 3.875 0 0 1-.382-.05c-.207-.014-.46-.095-.758-.24-.3-.146-.672-.44-1.117-.885a32.904 32.904 0 0 1-1.61-1.832 228.24 228.24 0 0 1-1.91-2.362c.773-.663 2-1.296 2.309-1.9.308-.603.456-1.203.444-1.799-.022-.565-.164-1.036-.425-1.413-.262-.377-.509-.643-.741-.798a3.822 3.822 0 0 0-1.497-.582 9.09 9.09 0 0 0-1.64-.124c-.303.002-.697.008-1.182.02-.484.01-.792.017-.922.018l-.744-.019a55.047 55.047 0 0 0-1.246-.019.487.487 0 0 0-.205.031.105.105 0 0 0-.063.103.14.14 0 0 0 .046.088.139.139 0 0 0 .088.045 4.892 4.892 0 0 1 .574.038c.27.036.448.126.538.27.09.143.14.352.15.626.02.214.03.545.034.994.004.45.006 1.281.005 2.495v2.86zm1.454-6.692a.18.18 0 0 1 .038-.117.27.27 0 0 1 .096-.074c.094-.02.254-.04.48-.062a9.05 9.05 0 0 1 .725-.033c.907.006 1.617.285 2.128.834.51.55.77 1.333.78 2.35-.007.622-.105 1.142-.293 1.561-.188.42-1.115.725-1.409.918a1.64 1.64 0 0 1-.63.243c-.364.087-.71.03-1.06-.031-.354-.048-.601-.106-.74-.174a.305.305 0 0 1-.087-.09.231.231 0 0 1-.028-.12v-5.205zm13.271 3.832c0-1.214 0-2.046.003-2.495.002-.45.007-.78.016-.994.013-.281.06-.49.14-.627.079-.136.23-.226.453-.269a1.895 1.895 0 0 1 .421-.038.139.139 0 0 0 .089-.045.138.138 0 0 0 .045-.088.105.105 0 0 0-.062-.103.487.487 0 0 0-.206-.03 42.88 42.88 0 0 0-1.006.018l-.677.02-.679-.02a42.17 42.17 0 0 0-1.023-.019.487.487 0 0 0-.206.031.105.105 0 0 0-.062.103c0 .03.014.06.038.088a.13.13 0 0 0 .096.045 3.226 3.226 0 0 1 .516.057.55.55 0 0 1 .39.26c.08.138.13.344.146.617.018.214.03.545.033.994.004.45.006 1.281.005 2.495v2.86c0 .789-.005 1.485-.019 2.09a17.75 17.75 0 0 1-.076 1.418 2.27 2.27 0 0 1-.12.58.437.437 0 0 1-.32.278c-.08.02-.165.038-.259.053a1.632 1.632 0 0 1-.258.023c-.047.002-.082.018-.103.046a.142.142 0 0 0-.03.088c.002.092.092.137.267.133.29-.002.62-.011.99-.028s.595-.026.674-.029l.73.029c.423.017.881.026 1.374.028a.435.435 0 0 0 .206-.038c.042-.024.063-.056.062-.095 0-.03-.01-.06-.031-.088-.021-.028-.055-.044-.103-.046-.083 0-.199-.008-.347-.023a8.691 8.691 0 0 1-.418-.053c-.24-.04-.397-.132-.471-.279a1.57 1.57 0 0 1-.141-.579c-.037-.34-.06-.813-.067-1.418a146.73 146.73 0 0 1-.01-2.09v-2.86zm5.454 5.777a3.674 3.674 0 0 1-.543 1.015c-.208.263-.5.42-.873.472a4.341 4.341 0 0 1-.497.038.167.167 0 0 0-.105.039.124.124 0 0 0-.048.095c.003.092.112.137.325.133.362-.002.71-.011 1.045-.028.335-.017.554-.026.657-.029.122.003.348.012.677.029.33.017.608.026.835.028.077 0 .137-.01.181-.03a.109.109 0 0 0 .067-.103.122.122 0 0 0-.036-.095c-.025-.025-.07-.038-.136-.039h-.153a.74.74 0 0 1-.394-.097c-.114-.067-.174-.18-.18-.341.001-.145.023-.312.067-.5a4.53 4.53 0 0 1 .182-.587l.956-2.593c.039-.092.096-.136.172-.133h3.883c.046-.001.079.005.098.019.02.013.038.039.055.076l1.511 3.718c.05.133.051.234.003.305a.32.32 0 0 1-.156.133.705.705 0 0 0-.086.043c-.019.012-.028.036-.028.072.004.045.062.074.174.086.112.012.252.021.419.028.605.019 1.163.03 1.673.034.51.004.839.005.985.004.1 0 .188-.01.263-.03.076-.022.116-.056.12-.103a.115.115 0 0 0-.07-.103.313.313 0 0 0-.14-.03 2.5 2.5 0 0 1-.306-.02 2.154 2.154 0 0 1-.364-.076c-.18-.033-.388-.162-.624-.386-.235-.224-.506-.686-.81-1.387-.27-.641-.61-1.468-1.024-2.478-.413-1.01-.836-2.046-1.267-3.106a1973.8 1973.8 0 0 0-1.131-2.773 88.135 88.135 0 0 0-.614-1.48 10.337 10.337 0 0 0-.201-.432c-.053-.105-.12-.158-.201-.16-.054-.007-.109.031-.165.114a3.124 3.124 0 0 0-.237.515l-3.96 10.143zm2.429-3.393c-.057 0-.077-.039-.057-.115l1.568-4.442c.096-.248.191-.248.287 0l1.664 4.442c.01.038.013.067.007.086-.006.019-.027.029-.064.029h-3.405zm15.233 5.395c.469.005.941-.033 1.417-.114a3.496 3.496 0 0 0 1.26-.458c.593-.397 1.005-.837 1.237-1.318.231-.48.342-.963.332-1.446.013-.685-.19-1.337-.61-1.955-.42-.618-1.134-1.27-2.145-1.954l-.478-.324c-.819-.542-1.39-1.012-1.714-1.408a1.972 1.972 0 0 1-.466-1.337c.016-.574.236-1.01.66-1.306.423-.298.949-.447 1.578-.448.744.021 1.282.13 1.614.328.33.198.52.355.566.472.051.097.102.228.153.393.051.166.083.302.096.408a.436.436 0 0 0 .04.155c.02.036.058.054.113.055.056 0 .092-.03.11-.088a.999.999 0 0 0 .024-.275 18.294 18.294 0 0 1 .076-1.715c.002-.047-.01-.078-.036-.093-.025-.016-.07-.023-.136-.022a1.966 1.966 0 0 1-.225-.01 2.97 2.97 0 0 1-.368-.066 8.365 8.365 0 0 0-1.74-.19c-1.127.007-2.026.277-2.697.81-.672.532-1.017 1.279-1.033 2.24-.013.552.161 1.102.523 1.649.363.547.991 1.154 1.887 1.82l.765.573c.741.528 1.281.992 1.621 1.39.34.397.507.874.502 1.431-.001.624-.214 1.136-.638 1.535-.425.4-1.054.606-1.887.62a3.676 3.676 0 0 1-1.652-.358c-.514-.245-.85-.66-1.007-1.244a1.92 1.92 0 0 1-.05-.33 3.605 3.605 0 0 1-.007-.26c-.003-.131-.054-.194-.153-.191-.092.003-.137.092-.134.267l-.055.657c-.024.3-.038.653-.04 1.059-.004.21.008.352.038.426.03.074.1.136.21.184.354.16.75.273 1.188.34.438.068.858.1 1.26.098zm17.059.057c.52.003 1.028-.06 1.523-.186.494-.126.95-.33 1.365-.614.645-.492 1.081-1.039 1.308-1.64.226-.601.332-1.11.318-1.525a4.017 4.017 0 0 0-.55-2.148c-.392-.688-1.14-1.466-2.243-2.333l-.535-.42c-.901-.69-1.52-1.267-1.856-1.73-.336-.462-.496-.953-.478-1.472.015-.701.243-1.244.681-1.628.44-.384.996-.579 1.672-.584.862.03 1.466.171 1.812.427.346.255.539.45.579.584.059.117.112.273.16.47.047.195.077.356.088.483a.6.6 0 0 0 .04.181c.02.044.058.066.113.067.048 0 .082-.034.103-.105a1.26 1.26 0 0 0 .031-.334 25.275 25.275 0 0 1 .077-2.02c.001-.048-.011-.082-.039-.103-.027-.021-.078-.032-.153-.031a1.77 1.77 0 0 1-.255-.02 6.301 6.301 0 0 1-.414-.076 6.57 6.57 0 0 0-.79-.138 8.69 8.69 0 0 0-.989-.052c-1.228.015-2.191.332-2.89.95-.7.62-1.056 1.446-1.07 2.482-.022.636.139 1.28.484 1.932.345.653 1.013 1.388 2.003 2.205l.861.705c.811.653 1.384 1.23 1.717 1.73a2.91 2.91 0 0 1 .483 1.702c0 .64-.226 1.215-.68 1.726-.453.51-1.138.78-2.056.81a3.472 3.472 0 0 1-1.788-.443c-.532-.303-.88-.804-1.042-1.502a2.581 2.581 0 0 1-.05-.388 5.223 5.223 0 0 1-.008-.317.349.349 0 0 0-.024-.162c-.017-.033-.054-.049-.11-.048-.047 0-.082.024-.105.074a.724.724 0 0 0-.048.231l-.055.767c-.024.354-.038.772-.04 1.254-.005.247.01.416.043.505.033.09.114.163.243.22.394.188.807.321 1.239.4.432.079.873.117 1.325.114zm9.378-4.976c.002.789-.002 1.485-.012 2.09-.01.605-.038 1.078-.084 1.418a3.014 3.014 0 0 1-.127.587.394.394 0 0 1-.313.271 5.01 5.01 0 0 0-.258.046c-.094.018-.18.029-.258.03-.048.002-.082.018-.103.046a.142.142 0 0 0-.031.088c.003.092.092.137.267.133.138 0 .293-.004.467-.011.173-.008.343-.017.509-.027a14.416 14.416 0 0 1 .727-.019 23.69 23.69 0 0 1 1.396.038c.344.011.76.023 1.248.036.488.013 1.458.02 2.089.022.316.008.54-.01.67-.053.13-.044.219-.166.267-.367a8.44 8.44 0 0 0 .15-.867c.05-.37.076-.603.08-.696a.532.532 0 0 0-.022-.167c-.015-.051-.046-.078-.093-.081a.117.117 0 0 0-.108.052.554.554 0 0 0-.064.196c-.046.318-.13.563-.254.734a1.15 1.15 0 0 1-.511.39c-.235.083-.926.133-1.252.15a12.28 12.28 0 0 1-.842.022c-.81.014-1.347-.066-1.614-.24-.266-.175-.398-.527-.394-1.056a34.59 34.59 0 0 1-.007-1.297l.007-1.468v-1.354a.126.126 0 0 1 .021-.078c.016-.023.047-.035.094-.036.202 0 .605.005 1.207.017.602.011 1.048.031 1.337.06.316.04.534.103.652.19.119.087.188.19.208.305.037.105.06.2.067.288.008.088.011.17.01.246 0 .098.038.15.115.152.056-.004.096-.038.12-.102a.573.573 0 0 0 .033-.203 13.97 13.97 0 0 1 .076-1.049 5.05 5.05 0 0 1 .081-.612 2.49 2.49 0 0 0 .053-.283c-.003-.092-.035-.137-.096-.134-.028.002-.062.022-.102.062l-.146.148a.64.64 0 0 1-.326.164 4.072 4.072 0 0 1-.497.065 14.85 14.85 0 0 1-.852.027 121.26 121.26 0 0 1-1.96.01c-.045 0-.073-.013-.083-.042a.375.375 0 0 1-.012-.129v-4.404a.297.297 0 0 1 .019-.129c.013-.028.039-.043.076-.043l.651.007c.35.004.704.01 1.064.019.36.008.598.019.715.032.444.054 1.156.117 1.314.19.158.073.258.175.301.305.038.1.063.205.077.315.013.11.02.195.019.257-.004.137.041.207.134.21a.13.13 0 0 0 .098-.057.317.317 0 0 0 .055-.115c.02-.118.037-.3.055-.548.017-.247.03-.42.04-.52.023-.224.05-.394.082-.51.031-.114.049-.199.052-.252a.285.285 0 0 0-.017-.105c-.011-.03-.031-.046-.06-.047a.296.296 0 0 0-.114.03.763.763 0 0 1-.115.046l-.31.048c-.138.02-.29.036-.455.047a92.3 92.3 0 0 1-1.596.009 499.393 499.393 0 0 1-2.831-.009 190.13 190.13 0 0 1-.725-.019 52.605 52.605 0 0 0-1.226-.019.487.487 0 0 0-.206.031.104.104 0 0 0-.062.103.14.14 0 0 0 .045.088.139.139 0 0 0 .089.045 4.893 4.893 0 0 1 .574.038c.269.036.448.126.538.27.09.143.14.352.15.626.019.214.03.545.034.994.004.45.005 1.281.005 2.495v2.86zm36.18 0c.002.789-.002 1.485-.012 2.09-.01.605-.038 1.078-.083 1.418a2.96 2.96 0 0 1-.127.587.394.394 0 0 1-.313.271 5.009 5.009 0 0 0-.259.046 1.473 1.473 0 0 1-.258.03c-.047.002-.081.018-.103.046a.142.142 0 0 0-.03.088c.002.092.092.137.267.133.138 0 .293-.004.466-.011.174-.008.343-.017.51-.027a14.414 14.414 0 0 1 .726-.019 23.69 23.69 0 0 1 1.397.038c.344.011.76.023 1.248.036.488.013 1.503.02 2.134.022.317.008.54-.01.67-.053.13-.044.219-.166.268-.367.051-.208.101-.497.15-.867.05-.37.076-.603.08-.696a.533.533 0 0 0-.022-.167c-.016-.051-.047-.078-.094-.081a.117.117 0 0 0-.107.052.554.554 0 0 0-.065.196c-.046.318-.13.563-.253.734a1.15 1.15 0 0 1-.512.39c-.235.083-.972.133-1.298.15a12.28 12.28 0 0 1-.841.022c-.81.014-1.347-.066-1.614-.24-.267-.175-.398-.527-.395-1.056-.008-.223-.01-.655-.007-1.297l.007-1.468v-1.354a.126.126 0 0 1 .022-.078c.015-.023.047-.035.093-.036.203 0 .606.005 1.208.017.602.011 1.047.031 1.336.06.317.04.535.103.653.19.118.087.188.19.208.305.037.105.059.2.067.288.008.088.011.17.01.246 0 .098.038.15.114.152.057-.004.097-.038.12-.102a.573.573 0 0 0 .033-.203 13.985 13.985 0 0 1 .077-1.049 5.05 5.05 0 0 1 .081-.612c.032-.143.05-.238.053-.283-.004-.092-.035-.137-.096-.134-.028.002-.063.022-.103.062l-.146.148a.64.64 0 0 1-.325.164 4.072 4.072 0 0 1-.497.065 15.88 15.88 0 0 1-.852.027 121.26 121.26 0 0 1-1.96.01c-.046 0-.074-.013-.084-.042a.376.376 0 0 1-.012-.129v-4.404c0-.057.006-.1.02-.129.013-.028.039-.043.076-.043l.651.007c.35.004.704.01 1.063.019.36.008.599.019.715.032.445.054 1.065.117 1.223.19.158.073.258.175.302.305.037.1.062.205.076.315.014.11.02.195.02.257-.004.137.04.207.133.21a.13.13 0 0 0 .098-.057.316.316 0 0 0 .055-.115 6.45 6.45 0 0 0 .055-.548c.017-.247.03-.42.04-.52.023-.224.05-.394.082-.51.032-.114.05-.199.053-.252a.285.285 0 0 0-.017-.105c-.012-.03-.032-.046-.06-.047a.296.296 0 0 0-.115.03.763.763 0 0 1-.114.046l-.311.048c-.137.02-.289.036-.455.047a80.23 80.23 0 0 1-1.505.009 499.388 499.388 0 0 1-2.83-.009l-.725-.019a52.603 52.603 0 0 0-1.227-.019.487.487 0 0 0-.205.031.104.104 0 0 0-.062.103.14.14 0 0 0 .045.088.139.139 0 0 0 .089.045 4.892 4.892 0 0 1 .573.038c.27.036.449.126.538.27.09.143.14.352.151.626.018.214.03.545.033.994.004.45.006 1.281.005 2.495v2.86zm14.789-6.806l2.104.038c.784.023 1.315.115 1.595.276.279.162.423.368.432.62l.02.171a.686.686 0 0 0 .045.23c.021.04.05.059.088.056.04 0 .075-.018.106-.054a.244.244 0 0 0 .047-.155c.003-.13.012-.4.029-.81.017-.411.026-.758.029-1.04a.554.554 0 0 0-.01-.13c-.008-.038-.03-.058-.067-.06a.96.96 0 0 0-.174.024 7.072 7.072 0 0 1-.799.105 9.853 9.853 0 0 1-.71.023h-6.35a13.205 13.205 0 0 1-1.32-.076 2.302 2.302 0 0 1-.502-.117.946.946 0 0 0-.244-.074c-.03.007-.061.046-.093.117a3.03 3.03 0 0 0-.08.188c-.023.121-.086.409-.188.863-.103.455-.16.752-.175.891.003.048.017.082.043.103.027.021.05.031.072.03a.16.16 0 0 0 .1-.025c.03-.02.053-.062.072-.127l.084-.193c.031-.075.093-.182.184-.321.114-.187.297-.319.55-.394.252-.075.637-.115 1.152-.121l2.43-.038v6.806c.001.789-.002 1.485-.01 2.09a15.89 15.89 0 0 1-.067 1.418 1.87 1.87 0 0 1-.141.589.499.499 0 0 1-.356.288c-.078.02-.161.038-.249.053s-.17.023-.249.024c-.047 0-.081.013-.102.035a.11.11 0 0 0-.032.079c0 .047.02.081.063.102.042.021.11.032.205.031.286-.002.628-.011 1.028-.028l.713-.029.734.029c.418.017.868.026 1.35.028a.435.435 0 0 0 .206-.038c.043-.024.063-.056.063-.095a.15.15 0 0 0-.024-.088c-.018-.028-.055-.044-.11-.046a6.836 6.836 0 0 1-.765-.076c-.25-.04-.416-.132-.498-.279a1.43 1.43 0 0 1-.153-.579 16.02 16.02 0 0 1-.067-1.418c-.008-.605-.01-1.301-.01-2.09v-6.806z" font-size="636.268" overflow="visible"/><path style="text-align:start;line-height:125%" d="M34.077 21.873c.504.001 1.004-.026 1.502-.082.497-.055.907-.15 1.23-.282a.605.605 0 0 0 .254-.167.915.915 0 0 0 .125-.31c.082-.323.162-.726.238-1.208.076-.483.117-.775.123-.878a.316.316 0 0 0-.043-.158c-.028-.045-.06-.069-.095-.071-.05-.001-.084.015-.103.05a.624.624 0 0 0-.052.18c-.026.167-.09.386-.189.657-.1.27-.231.504-.395.7a2.05 2.05 0 0 1-1.046.634c-.402.098-.884.141-1.446.131-1.64-.05-2.952-.642-3.936-1.776-.983-1.134-1.487-2.505-1.512-4.115a8.573 8.573 0 0 1 .26-2.31 4.411 4.411 0 0 1 1.098-1.936c.253-.29.644-.547 1.173-.773.528-.225 1.271-.343 2.23-.356.677.007 1.273.094 1.79.263.515.17.91.381 1.183.636.2.18.355.414.466.706.111.29.168.598.17.92a1 1 0 0 0 .021.258c.016.058.049.086.099.086.044.002.08-.025.112-.079a.668.668 0 0 0 .06-.265c.008-.136.013-.375.017-.717a56.7 56.7 0 0 1 .017-.947c.018-.29.034-.5.047-.631.014-.132.021-.227.022-.287a.177.177 0 0 0-.037-.122c-.026-.032-.077-.05-.152-.05a5.382 5.382 0 0 1-.748-.089c-.251-.047-.517-.1-.799-.16a13.312 13.312 0 0 0-2.2-.191c-1.15.011-2.094.18-2.831.504-.738.325-1.33.737-1.775 1.236-.657.753-1.108 1.538-1.353 2.355-.245.818-.361 1.512-.348 2.083-.016.79.106 1.61.365 2.46.26.85.75 1.637 1.474 2.36a5.717 5.717 0 0 0 2.086 1.3c.806.293 1.772.44 2.898.44zm114.757 0c.504.001 1.004-.026 1.502-.082.497-.055.907-.15 1.23-.282a.605.605 0 0 0 .254-.167.915.915 0 0 0 .125-.31c.083-.323.162-.726.238-1.208.077-.483.117-.775.123-.878a.316.316 0 0 0-.043-.158c-.027-.045-.059-.069-.095-.071-.05-.001-.083.015-.103.05a.625.625 0 0 0-.051.18c-.027.167-.09.386-.19.657a2.31 2.31 0 0 1-.395.7 2.05 2.05 0 0 1-1.046.634c-.401.098-.883.141-1.446.131-1.64-.05-2.952-.642-3.935-1.776-.984-1.134-1.488-2.505-1.513-4.115a8.574 8.574 0 0 1 .26-2.31 4.412 4.412 0 0 1 1.098-1.936c.253-.29.644-.547 1.173-.773.528-.225 1.272-.343 2.23-.356.677.007 1.273.094 1.79.263.515.17.91.381 1.183.636.2.18.355.414.466.706.112.29.168.598.17.92a1 1 0 0 0 .021.258c.016.058.05.086.1.086.043.002.08-.025.111-.079a.668.668 0 0 0 .06-.265c.008-.136.014-.375.017-.717a56.7 56.7 0 0 1 .017-.947c.018-.29.034-.5.048-.631.013-.132.02-.227.021-.287a.177.177 0 0 0-.036-.122c-.026-.032-.077-.05-.153-.05a5.383 5.383 0 0 1-.747-.089 37.91 37.91 0 0 1-.8-.16 13.312 13.312 0 0 0-2.2-.191c-1.15.011-2.093.18-2.83.504-.738.325-1.33.737-1.775 1.236-.658.753-1.109 1.538-1.354 2.355-.245.818-.36 1.512-.348 2.083-.016.79.106 1.61.365 2.46.26.85.75 1.637 1.474 2.36a5.717 5.717 0 0 0 2.086 1.3c.806.293 1.772.44 2.898.44z" font-size="603.114"/><path style="text-align:start;line-height:125%" d="M99.211 11.796l-.046-.059c.562-.394.928-.79 1.096-1.186.169-.397.253-.734.253-1.012 0-.19-.059-.284-.176-.284a.72.72 0 0 0-.138.029.739.739 0 0 1-.192.03c-.795.018-.928-.968-.594-1.3.156-.161.367-.241.633-.241.316 0 .591.129.824.387.232.258.348.618.348 1.08 0 .516-.148.977-.444 1.384-.297.406-.818.797-1.564 1.172z" font-size="127.403"/><path style="text-align:start;line-height:125%" d="M156.355 17.009c.002.788-.002 1.485-.012 2.09a12.85 12.85 0 0 1-.084 1.418c-.031.24-.073.433-.126.58a.423.423 0 0 1-.314.278 3.33 3.33 0 0 1-.258.053c-.093.015-.18.023-.258.023-.047.002-.082.017-.103.046a.142.142 0 0 0-.03.088c.002.092.092.136.267.133a29.34 29.34 0 0 0 1.018-.028l.646-.029.717.029c.416.016.866.026 1.349.028a.435.435 0 0 0 .205-.038c.043-.025.063-.056.063-.095a.15.15 0 0 0-.024-.088c-.018-.029-.055-.044-.11-.046a3.61 3.61 0 0 1-.345-.023 6.987 6.987 0 0 1-.401-.053c-.25-.04-.42-.132-.507-.279a1.353 1.353 0 0 1-.163-.579c-.036-.34-.059-.809-.067-1.408-.008-.6-.01-1.293-.01-2.08v-.382c0-.092.039-.137.116-.134l1.455.038a.32.32 0 0 1 .129.02.33.33 0 0 1 .1.076c.19.235.45.575.78 1.017.329.443.675.892 1.037 1.347.47.61.88 1.111 1.234 1.506s.708.687 1.062.877c.199.114.432.196.698.248.266.052.633.077 1.1.076h1.052c.15 0 .256-.01.315-.03.06-.022.089-.056.087-.103a.13.13 0 0 0-.041-.088.157.157 0 0 0-.113-.046 2.598 2.598 0 0 1-.21-.007 3.876 3.876 0 0 1-.382-.05c-.207-.015-.46-.095-.758-.24-.3-.146-.672-.441-1.117-.885a32.9 32.9 0 0 1-1.61-1.832 239.44 239.44 0 0 1-1.91-2.362c.773-.663 2-1.296 2.309-1.9.308-.603.456-1.203.444-1.799-.022-.565-.164-1.036-.425-1.413-.262-.377-.509-.643-.741-.799a3.822 3.822 0 0 0-1.497-.581 9.09 9.09 0 0 0-1.64-.124c-.303.002-.697.008-1.182.019l-.922.02-.744-.02a54.987 54.987 0 0 0-1.246-.02.487.487 0 0 0-.205.032.105.105 0 0 0-.063.102c.002.031.018.06.046.089a.138.138 0 0 0 .088.045 4.91 4.91 0 0 1 .574.038c.27.036.448.126.538.27.09.143.14.352.15.626.02.213.03.545.034.994.004.45.006 1.28.005 2.495v2.86zm1.454-6.692a.18.18 0 0 1 .038-.117.27.27 0 0 1 .096-.074c.094-.02.254-.041.48-.062a9.05 9.05 0 0 1 .725-.033c.907.006 1.617.284 2.128.834.51.55.77 1.333.78 2.35-.007.622-.105 1.142-.293 1.56-.188.42-1.115.726-1.409.918-.203.13-.413.21-.63.244-.364.086-.71.03-1.06-.031-.354-.048-.601-.106-.74-.174a.305.305 0 0 1-.087-.091.231.231 0 0 1-.028-.12v-5.204zM8.454 9.836c-.142-.365-.26-.682-.353-.95-.094-.267-.143-.463-.146-.588a.415.415 0 0 1 .044-.199.397.397 0 0 1 .196-.171c.09-.036.202-.061.338-.074.136-.013.257-.02.365-.019.127.003.188-.04.185-.13 0-.089-.166-.132-.5-.129-.367.002-.718.012-1.054.028-.335.016-.557.025-.666.028a67.792 67.792 0 0 1-.832-.028 40.135 40.135 0 0 0-1.332-.028 1.794 1.794 0 0 0-.352.023c-.084.017-.128.053-.13.107 0 .038.01.068.033.092.023.024.061.037.116.037.06-.001.157.002.289.01.132.007.27.029.414.064.313.076.565.207.756.394.19.187.383.531.576 1.033l4.532 11.355c.168.437.295.74.382.908.087.168.181.249.284.24.081.012.17-.084.264-.286.095-.203.266-.576.513-1.121a70.44 70.44 0 0 0 .93-2.133 880.285 880.285 0 0 0 2.77-6.65c.39-.94.642-1.556.759-1.85.246-.613.448-1.04.606-1.28.158-.241.295-.395.411-.461.183-.107.359-.172.528-.195a2.15 2.15 0 0 1 .36-.028c.148.003.222-.04.222-.13-.003-.089-.108-.132-.314-.129-.288.002-.582.012-.881.028-.3.016-.487.025-.562.028a30.407 30.407 0 0 1-.712-.028 27.295 27.295 0 0 0-1.101-.028c-.147 0-.251.01-.315.032-.063.023-.094.061-.092.116.001.045.021.075.06.09a.375.375 0 0 0 .143.021c.105-.001.22.002.345.01.125.007.245.029.358.064a.411.411 0 0 1 .19.193.54.54 0 0 1 .05.234 1.363 1.363 0 0 1-.048.31c-.031.122-.07.253-.118.393-.157.501-.48 1.404-.969 2.707a276.713 276.713 0 0 1-1.577 4.102 127.53 127.53 0 0 1-1.413 3.472L8.454 9.836z" font-size="636.268"/></g></svg>